<svg width="1920" height="215" viewBox="0 0 1920 215" fill="none" xmlns="http://www.w3.org/2000/svg">
    <rect width="1920" height="215" fill="white"/>
    <rect x="331" y="84" width="123" height="63" fill="#335B7F"/>
    <path d="M174.594 134.469L173.938 151.344H167.937V140H164.563V134.469H174.594ZM133.813 140V92H139.344V134.656H164.094V92H169.625V140H133.813ZM188.158 131.844L205.502 104H211.877V140H206.346V112.156L189.096 140H182.627V104H188.158V131.844ZM217.109 109.156V104H246.359V109.156H234.547V140H229.016V109.156H217.109ZM263.152 140.844C260.871 140.844 258.801 140.414 256.941 139.555C255.082 138.68 253.605 137.422 252.512 135.781C251.418 134.125 250.871 132.125 250.871 129.781C250.871 127.719 251.277 126.047 252.09 124.766C252.902 123.469 253.988 122.453 255.348 121.719C256.707 120.984 258.207 120.437 259.848 120.078C261.504 119.703 263.168 119.406 264.84 119.188C267.027 118.906 268.801 118.695 270.16 118.555C271.535 118.398 272.535 118.141 273.16 117.781C273.801 117.422 274.121 116.797 274.121 115.906V115.719C274.121 113.406 273.488 111.609 272.223 110.328C270.973 109.047 269.074 108.406 266.527 108.406C263.887 108.406 261.816 108.984 260.316 110.141C258.816 111.297 257.762 112.531 257.152 113.844L251.902 111.969C252.84 109.781 254.09 108.078 255.652 106.859C257.23 105.625 258.949 104.766 260.809 104.281C262.684 103.781 264.527 103.531 266.34 103.531C267.496 103.531 268.824 103.672 270.324 103.953C271.84 104.219 273.301 104.773 274.707 105.617C276.129 106.461 277.309 107.734 278.246 109.437C279.184 111.141 279.652 113.422 279.652 116.281V140H274.121V135.125H273.84C273.465 135.906 272.84 136.742 271.965 137.633C271.09 138.523 269.926 139.281 268.473 139.906C267.02 140.531 265.246 140.844 263.152 140.844ZM263.996 135.875C266.184 135.875 268.027 135.445 269.527 134.586C271.043 133.727 272.184 132.617 272.949 131.258C273.73 129.898 274.121 128.469 274.121 126.969V121.906C273.887 122.187 273.371 122.445 272.574 122.68C271.793 122.898 270.887 123.094 269.855 123.266C268.84 123.422 267.848 123.562 266.879 123.687C265.926 123.797 265.152 123.891 264.559 123.969C263.121 124.156 261.777 124.461 260.527 124.883C259.293 125.289 258.293 125.906 257.527 126.734C256.777 127.547 256.402 128.656 256.402 130.062C256.402 131.984 257.113 133.437 258.535 134.422C259.973 135.391 261.793 135.875 263.996 135.875ZM284.85 109.156V104H314.1V109.156H302.287V140H296.756V109.156H284.85Z"
          fill="#345B80"/>
    <path d="M364.824 119.469V124.625H344.949V119.469H364.824ZM346.262 104V140H340.73V104H346.262ZM369.043 104V140H363.512V104H369.043ZM384.676 131.844L402.02 104H408.395V140H402.863V112.156L385.613 140H379.145V104H384.676V131.844ZM418.525 140V104H424.057V119.656H427.713L440.65 104H447.775L433.244 121.344L447.963 140H440.838L429.025 124.812H424.057V140H418.525Z"
          fill="white"/>
    <path d="M523.114 76.7287V73.6364H539.361V76.7287H533.067V94H529.408V76.7287H523.114ZM540.748 94V78.7273H547.161C548.971 78.7273 550.399 79.0885 551.447 79.8111C552.501 80.5336 553.028 81.5412 553.028 82.8338C553.028 83.6889 552.729 84.3883 552.133 84.9318C551.543 85.4687 550.737 85.83 549.717 86.0156C550.519 86.0819 551.221 86.2841 551.825 86.6222C552.434 86.9602 552.912 87.4044 553.256 87.9545C553.601 88.5047 553.773 89.1378 553.773 89.8537C553.773 90.6955 553.551 91.428 553.107 92.0511C552.67 92.6676 552.03 93.1482 551.188 93.4929C550.353 93.831 549.339 94 548.146 94H540.748ZM544.119 91.1662H548.146C548.808 91.1662 549.329 91.0104 549.707 90.6989C550.085 90.3807 550.273 89.9498 550.273 89.4062C550.273 88.7765 550.085 88.2827 549.707 87.9247C549.329 87.5601 548.808 87.3778 548.146 87.3778H544.119V91.1662ZM544.119 85.0511H547.231C547.721 85.0511 548.142 84.9815 548.494 84.8423C548.845 84.6965 549.113 84.4943 549.299 84.2358C549.485 83.9706 549.577 83.6558 549.577 83.2912C549.577 82.7675 549.362 82.3565 548.931 82.0582C548.507 81.7599 547.917 81.6108 547.161 81.6108H544.119V85.0511ZM563.406 94.2983C561.914 94.2983 560.622 93.9702 559.528 93.3139C558.434 92.6577 557.586 91.7396 556.983 90.5597C556.386 89.3797 556.088 88.0009 556.088 86.4233C556.088 84.8456 556.386 83.4635 556.983 82.277C557.586 81.0904 558.434 80.169 559.528 79.5128C560.622 78.8565 561.914 78.5284 563.406 78.5284C564.897 78.5284 566.19 78.8565 567.284 79.5128C568.377 80.169 569.223 81.0904 569.819 82.277C570.422 83.4635 570.724 84.8456 570.724 86.4233C570.724 88.0009 570.422 89.3797 569.819 90.5597C569.223 91.7396 568.377 92.6577 567.284 93.3139C566.19 93.9702 564.897 94.2983 563.406 94.2983ZM563.426 91.4148C564.234 91.4148 564.911 91.1927 565.454 90.7486C565.998 90.2978 566.402 89.6946 566.667 88.9389C566.939 88.1832 567.075 87.3414 567.075 86.4134C567.075 85.4787 566.939 84.6335 566.667 83.8778C566.402 83.1155 565.998 82.509 565.454 82.0582C564.911 81.6075 564.234 81.3821 563.426 81.3821C562.597 81.3821 561.908 81.6075 561.358 82.0582C560.814 82.509 560.406 83.1155 560.135 83.8778C559.869 84.6335 559.737 85.4787 559.737 86.4134C559.737 87.3414 559.869 88.1832 560.135 88.9389C560.406 89.6946 560.814 90.2978 561.358 90.7486C561.908 91.1927 562.597 91.4148 563.426 91.4148ZM582.808 94V81.6506H579.546C578.718 81.6506 578.081 81.8428 577.637 82.2273C577.193 82.6117 576.974 83.089 576.981 83.6591C576.974 84.2292 577.183 84.6998 577.607 85.071C578.031 85.4422 578.638 85.6278 579.427 85.6278H583.941V88.2528H579.427C578.207 88.2528 577.153 88.0606 576.265 87.6761C575.377 87.2917 574.694 86.7481 574.217 86.0455C573.739 85.3428 573.501 84.5208 573.501 83.5795C573.501 82.5985 573.743 81.7467 574.227 81.0241C574.717 80.295 575.413 79.7315 576.315 79.3338C577.223 78.9295 578.3 78.7273 579.546 78.7273H586.178V94H582.808ZM572.944 94L577.21 86.1648H580.759L576.484 94H572.944ZM608.988 73.0795L610.241 75.4062C609.797 75.7907 609.299 76.0691 608.749 76.2415C608.199 76.4138 607.553 76.5265 606.81 76.5795C606.075 76.6259 605.2 76.6591 604.185 76.679C603.045 76.7055 602.114 76.9209 601.391 77.3253C600.669 77.7296 600.115 78.3428 599.731 79.1648C599.346 79.9801 599.094 81.0208 598.975 82.2869H599.144C599.621 81.3523 600.291 80.6397 601.153 80.1491C602.014 79.6586 603.025 79.4134 604.185 79.4134C605.451 79.4134 606.568 79.6984 607.536 80.2685C608.511 80.8319 609.27 81.6506 609.813 82.7244C610.363 83.7983 610.638 85.0975 610.638 86.6222C610.638 88.1932 610.344 89.5554 609.754 90.7088C609.164 91.8556 608.325 92.7405 607.238 93.3636C606.157 93.9867 604.875 94.2983 603.39 94.2983C601.912 94.2983 600.626 93.9768 599.532 93.3338C598.445 92.6842 597.603 91.7263 597.006 90.4602C596.416 89.1875 596.121 87.6198 596.121 85.7571V84.3849C596.121 80.7921 596.791 78.1108 598.13 76.3409C599.469 74.571 601.454 73.6695 604.086 73.6364C604.868 73.6231 605.567 73.6198 606.184 73.6264C606.807 73.633 607.351 73.6032 607.815 73.5369C608.279 73.4706 608.67 73.3182 608.988 73.0795ZM603.41 91.4148C604.146 91.4148 604.782 91.2259 605.319 90.848C605.856 90.4635 606.267 89.92 606.552 89.2173C606.844 88.5147 606.989 87.6828 606.989 86.7216C606.989 85.7737 606.844 84.9683 606.552 84.3054C606.26 83.6359 605.846 83.1255 605.309 82.7741C604.772 82.4228 604.132 82.2472 603.39 82.2472C602.833 82.2472 602.333 82.3466 601.888 82.5455C601.444 82.7443 601.067 83.036 600.755 83.4205C600.443 83.8049 600.205 84.2723 600.039 84.8224C599.873 85.3726 599.784 86.0057 599.771 86.7216C599.771 88.16 600.095 89.3035 600.745 90.152C601.395 90.9938 602.283 91.4148 603.41 91.4148ZM617.171 89.1278L623.286 78.7273H626.985V94H623.505V83.5895L617.41 94H613.701V78.7273H617.171V89.1278ZM642.922 73.0795L644.174 75.4062C643.73 75.7907 643.233 76.0691 642.683 76.2415C642.133 76.4138 641.486 76.5265 640.744 76.5795C640.008 76.6259 639.133 76.6591 638.119 76.679C636.979 76.7055 636.047 76.9209 635.325 77.3253C634.602 77.7296 634.049 78.3428 633.664 79.1648C633.28 79.9801 633.028 81.0208 632.909 82.2869H633.078C633.555 81.3523 634.225 80.6397 635.086 80.1491C635.948 79.6586 636.959 79.4134 638.119 79.4134C639.385 79.4134 640.502 79.6984 641.47 80.2685C642.444 80.8319 643.203 81.6506 643.747 82.7244C644.297 83.7983 644.572 85.0975 644.572 86.6222C644.572 88.1932 644.277 89.5554 643.687 90.7088C643.097 91.8556 642.259 92.7405 641.172 93.3636C640.091 93.9867 638.808 94.2983 637.324 94.2983C635.845 94.2983 634.559 93.9768 633.466 93.3338C632.378 92.6842 631.537 91.7263 630.94 90.4602C630.35 89.1875 630.055 87.6198 630.055 85.7571V84.3849C630.055 80.7921 630.725 78.1108 632.064 76.3409C633.403 74.571 635.388 73.6695 638.02 73.6364C638.802 73.6231 639.501 73.6198 640.118 73.6264C640.741 73.633 641.284 73.6032 641.748 73.5369C642.212 73.4706 642.603 73.3182 642.922 73.0795ZM637.343 91.4148C638.079 91.4148 638.716 91.2259 639.252 90.848C639.789 90.4635 640.2 89.92 640.485 89.2173C640.777 88.5147 640.923 87.6828 640.923 86.7216C640.923 85.7737 640.777 84.9683 640.485 84.3054C640.194 83.6359 639.779 83.1255 639.243 82.7741C638.706 82.4228 638.066 82.2472 637.324 82.2472C636.767 82.2472 636.266 82.3466 635.822 82.5455C635.378 82.7443 635 83.036 634.689 83.4205C634.377 83.8049 634.138 84.2723 633.973 84.8224C633.807 85.3726 633.717 86.0057 633.704 86.7216C633.704 88.16 634.029 89.3035 634.679 90.152C635.328 90.9938 636.217 91.4148 637.343 91.4148ZM646.581 94L646.561 91.0369H647.088C647.485 91.0369 647.82 90.9474 648.092 90.7685C648.364 90.5895 648.589 90.2912 648.768 89.8736C648.947 89.4493 649.086 88.8793 649.186 88.1634C649.285 87.4474 649.355 86.5559 649.395 85.4886L649.663 78.7273H660.799V94H657.319V81.6804H652.934L652.696 86.6023C652.636 87.875 652.493 88.9787 652.268 89.9134C652.049 90.8414 651.738 91.607 651.333 92.2102C650.936 92.8134 650.435 93.2642 649.832 93.5625C649.229 93.8542 648.516 94 647.694 94H646.581ZM667.894 89.1278L674.009 78.7273H677.708V94H674.228V83.5895L668.132 94H664.424V78.7273H667.894V89.1278ZM688.066 94.2983C686.575 94.2983 685.282 93.9702 684.188 93.3139C683.094 92.6577 682.246 91.7396 681.643 90.5597C681.046 89.3797 680.748 88.0009 680.748 86.4233C680.748 84.8456 681.046 83.4635 681.643 82.277C682.246 81.0904 683.094 80.169 684.188 79.5128C685.282 78.8565 686.575 78.5284 688.066 78.5284C689.558 78.5284 690.85 78.8565 691.944 79.5128C693.038 80.169 693.883 81.0904 694.479 82.277C695.083 83.4635 695.384 84.8456 695.384 86.4233C695.384 88.0009 695.083 89.3797 694.479 90.5597C693.883 91.7396 693.038 92.6577 691.944 93.3139C690.85 93.9702 689.558 94.2983 688.066 94.2983ZM688.086 91.4148C688.895 91.4148 689.571 91.1927 690.114 90.7486C690.658 90.2978 691.062 89.6946 691.327 88.9389C691.599 88.1832 691.735 87.3414 691.735 86.4134C691.735 85.4787 691.599 84.6335 691.327 83.8778C691.062 83.1155 690.658 82.509 690.114 82.0582C689.571 81.6075 688.895 81.3821 688.086 81.3821C687.257 81.3821 686.568 81.6075 686.018 82.0582C685.474 82.509 685.067 83.1155 684.795 83.8778C684.53 84.6335 684.397 85.4787 684.397 86.4134C684.397 87.3414 684.53 88.1832 684.795 88.9389C685.067 89.6946 685.474 90.2978 686.018 90.7486C686.568 91.1927 687.257 91.4148 688.086 91.4148ZM696.756 81.6804V78.7273H710.12V81.6804H705.178V94H701.698V81.6804H696.756ZM719.119 94.2983C717.587 94.2983 716.265 93.9801 715.151 93.3438C714.044 92.7008 713.192 91.7926 712.596 90.6193C711.999 89.4394 711.701 88.0507 711.701 86.4531C711.701 84.8821 711.999 83.5033 712.596 82.3168C713.199 81.1236 714.041 80.1955 715.121 79.5327C716.202 78.8632 717.471 78.5284 718.93 78.5284C719.871 78.5284 720.759 78.6809 721.594 78.9858C722.436 79.2841 723.179 79.7481 723.822 80.3778C724.471 81.0076 724.982 81.8097 725.353 82.7841C725.724 83.7519 725.91 84.9053 725.91 86.2443V87.348H713.391V84.9219H722.46C722.453 84.2325 722.304 83.6193 722.012 83.0824C721.72 82.5388 721.313 82.1113 720.789 81.7997C720.272 81.4882 719.669 81.3324 718.979 81.3324C718.244 81.3324 717.597 81.5114 717.04 81.8693C716.484 82.2206 716.049 82.6847 715.738 83.2614C715.433 83.8314 715.277 84.4579 715.271 85.1406V87.2585C715.271 88.1468 715.433 88.9091 715.758 89.5455C716.083 90.1752 716.537 90.6591 717.12 90.9972C717.703 91.3286 718.386 91.4943 719.168 91.4943C719.692 91.4943 720.166 91.4214 720.59 91.2756C721.014 91.1231 721.382 90.901 721.694 90.6094C722.005 90.3177 722.241 89.9564 722.4 89.5256L725.761 89.9034C725.549 90.7917 725.144 91.5672 724.548 92.2301C723.958 92.8864 723.202 93.3968 722.281 93.7614C721.359 94.1193 720.305 94.2983 719.119 94.2983ZM728.955 94V78.7273H732.554V84.892H733.867L738.461 78.7273H742.796L737.138 86.2244L742.855 94H738.5L734.314 88.2429H732.554V94H728.955ZM749.291 94.3082C748.323 94.3082 747.452 94.1359 746.676 93.7912C745.907 93.4399 745.297 92.9228 744.847 92.2401C744.402 91.5573 744.18 90.7154 744.18 89.7145C744.18 88.8527 744.339 88.1402 744.658 87.5767C744.976 87.0133 745.41 86.5625 745.96 86.2244C746.51 85.8864 747.13 85.6312 747.82 85.4588C748.516 85.2798 749.235 85.1506 749.977 85.071C750.872 84.9782 751.598 84.8954 752.155 84.8224C752.712 84.7429 753.116 84.6236 753.368 84.4645C753.626 84.2988 753.756 84.0436 753.756 83.6989V83.6392C753.756 82.8902 753.534 82.3101 753.089 81.8991C752.645 81.4882 752.006 81.2827 751.17 81.2827C750.289 81.2827 749.589 81.4749 749.072 81.8594C748.562 82.2438 748.217 82.6979 748.038 83.2216L744.678 82.7443C744.943 81.8163 745.38 81.0407 745.99 80.4176C746.6 79.7879 747.346 79.3172 748.227 79.0057C749.109 78.6875 750.083 78.5284 751.151 78.5284C751.886 78.5284 752.619 78.6146 753.348 78.7869C754.077 78.9593 754.743 79.2443 755.347 79.642C755.95 80.0331 756.434 80.5668 756.798 81.2429C757.17 81.919 757.355 82.7642 757.355 83.7784V94H753.895V91.902H753.776C753.557 92.3262 753.249 92.724 752.851 93.0952C752.46 93.4598 751.966 93.7547 751.369 93.9801C750.779 94.1989 750.087 94.3082 749.291 94.3082ZM750.226 91.6634C750.948 91.6634 751.575 91.5208 752.105 91.2358C752.635 90.9441 753.043 90.5597 753.328 90.0824C753.62 89.6051 753.766 89.0848 753.766 88.5213V86.7216C753.653 86.8144 753.461 86.9006 753.189 86.9801C752.924 87.0597 752.625 87.1293 752.294 87.1889C751.963 87.2486 751.634 87.3016 751.31 87.348C750.985 87.3944 750.703 87.4342 750.464 87.4673C749.928 87.5402 749.447 87.6596 749.023 87.8253C748.598 87.991 748.264 88.223 748.018 88.5213C747.773 88.813 747.651 89.1908 747.651 89.6548C747.651 90.3177 747.893 90.8182 748.376 91.1562C748.86 91.4943 749.477 91.6634 750.226 91.6634ZM780.816 78.7273V91.3153H783.153V98.9119H779.633V94H767.92V78.7273H771.39V91.0469H777.376V78.7273H780.816ZM789.574 89.1278L795.689 78.7273H799.387V94H795.907V83.5895L789.812 94H786.103V78.7273H789.574V89.1278ZM801.374 81.6804V78.7273H814.737V81.6804H809.795V94H806.315V81.6804H801.374ZM821.369 94.3082C820.402 94.3082 819.53 94.1359 818.754 93.7912C817.985 93.4399 817.375 92.9228 816.925 92.2401C816.481 91.5573 816.259 90.7154 816.259 89.7145C816.259 88.8527 816.418 88.1402 816.736 87.5767C817.054 87.0133 817.488 86.5625 818.038 86.2244C818.589 85.8864 819.208 85.6312 819.898 85.4588C820.594 85.2798 821.313 85.1506 822.055 85.071C822.95 84.9782 823.676 84.8954 824.233 84.8224C824.79 84.7429 825.194 84.6236 825.446 84.4645C825.705 84.2988 825.834 84.0436 825.834 83.6989V83.6392C825.834 82.8902 825.612 82.3101 825.168 81.8991C824.723 81.4882 824.084 81.2827 823.249 81.2827C822.367 81.2827 821.668 81.4749 821.151 81.8594C820.64 82.2438 820.295 82.6979 820.116 83.2216L816.756 82.7443C817.021 81.8163 817.458 81.0407 818.068 80.4176C818.678 79.7879 819.424 79.3172 820.305 79.0057C821.187 78.6875 822.161 78.5284 823.229 78.5284C823.964 78.5284 824.697 78.6146 825.426 78.7869C826.155 78.9593 826.821 79.2443 827.425 79.642C828.028 80.0331 828.512 80.5668 828.876 81.2429C829.248 81.919 829.433 82.7642 829.433 83.7784V94H825.973V91.902H825.854C825.635 92.3262 825.327 92.724 824.929 93.0952C824.538 93.4598 824.044 93.7547 823.447 93.9801C822.857 94.1989 822.165 94.3082 821.369 94.3082ZM822.304 91.6634C823.027 91.6634 823.653 91.5208 824.183 91.2358C824.714 90.9441 825.121 90.5597 825.406 90.0824C825.698 89.6051 825.844 89.0848 825.844 88.5213V86.7216C825.731 86.8144 825.539 86.9006 825.267 86.9801C825.002 87.0597 824.704 87.1293 824.372 87.1889C824.041 87.2486 823.713 87.3016 823.388 87.348C823.063 87.3944 822.781 87.4342 822.543 87.4673C822.006 87.5402 821.525 87.6596 821.101 87.8253C820.677 87.991 820.342 88.223 820.097 88.5213C819.851 88.813 819.729 89.1908 819.729 89.6548C819.729 90.3177 819.971 90.8182 820.455 91.1562C820.938 91.4943 821.555 91.6634 822.304 91.6634ZM831.342 81.6804V78.7273H844.706V81.6804H839.764V94H836.284V81.6804H831.342Z"
          fill="#335B7F"/>
    <path d="M528.42 135.199C527.483 135.199 526.647 135.038 525.913 134.716C525.184 134.394 524.604 133.946 524.173 133.374C523.747 132.796 523.515 132.126 523.477 131.364H525.267C525.305 131.832 525.466 132.237 525.75 132.578C526.034 132.914 526.406 133.175 526.865 133.359C527.324 133.544 527.833 133.636 528.392 133.636C529.017 133.636 529.571 133.527 530.054 133.31C530.537 133.092 530.916 132.789 531.19 132.401C531.465 132.012 531.602 131.562 531.602 131.051C531.602 130.516 531.47 130.045 531.205 129.638C530.939 129.226 530.551 128.904 530.04 128.672C529.528 128.44 528.903 128.324 528.165 128.324H527V126.761H528.165C528.742 126.761 529.249 126.657 529.685 126.449C530.125 126.241 530.468 125.947 530.714 125.568C530.965 125.189 531.091 124.744 531.091 124.233C531.091 123.741 530.982 123.312 530.764 122.947C530.546 122.583 530.239 122.299 529.841 122.095C529.448 121.892 528.984 121.79 528.449 121.79C527.947 121.79 527.473 121.882 527.028 122.067C526.588 122.247 526.228 122.509 525.949 122.855C525.67 123.196 525.518 123.608 525.494 124.091H523.79C523.818 123.329 524.048 122.661 524.479 122.088C524.91 121.51 525.473 121.061 526.169 120.739C526.87 120.417 527.639 120.256 528.477 120.256C529.377 120.256 530.149 120.438 530.793 120.803C531.437 121.162 531.931 121.638 532.277 122.23C532.623 122.822 532.795 123.461 532.795 124.148C532.795 124.967 532.58 125.665 532.149 126.243C531.723 126.821 531.143 127.221 530.409 127.443V127.557C531.328 127.708 532.045 128.099 532.561 128.729C533.077 129.354 533.335 130.128 533.335 131.051C533.335 131.842 533.12 132.552 532.689 133.182C532.263 133.807 531.68 134.299 530.942 134.659C530.203 135.019 529.363 135.199 528.42 135.199ZM539.479 135.256C538.787 135.256 538.16 135.125 537.597 134.865C537.033 134.6 536.586 134.219 536.254 133.722C535.923 133.22 535.757 132.614 535.757 131.903C535.757 131.278 535.88 130.772 536.126 130.384C536.373 129.991 536.702 129.683 537.114 129.46C537.526 129.238 537.98 129.072 538.477 128.963C538.979 128.849 539.483 128.759 539.99 128.693C540.653 128.608 541.19 128.544 541.602 128.501C542.019 128.454 542.322 128.376 542.511 128.267C542.705 128.158 542.803 127.969 542.803 127.699V127.642C542.803 126.941 542.611 126.397 542.227 126.009C541.848 125.62 541.273 125.426 540.501 125.426C539.701 125.426 539.074 125.601 538.619 125.952C538.165 126.302 537.845 126.676 537.661 127.074L536.07 126.506C536.354 125.843 536.732 125.327 537.206 124.957C537.684 124.583 538.205 124.323 538.768 124.176C539.337 124.025 539.895 123.949 540.445 123.949C540.795 123.949 541.197 123.991 541.652 124.077C542.111 124.157 542.554 124.325 542.98 124.581C543.411 124.837 543.768 125.223 544.053 125.739C544.337 126.255 544.479 126.946 544.479 127.812V135H542.803V133.523H542.717C542.604 133.759 542.414 134.013 542.149 134.283C541.884 134.553 541.531 134.782 541.091 134.972C540.651 135.161 540.113 135.256 539.479 135.256ZM539.734 133.75C540.397 133.75 540.956 133.62 541.411 133.359C541.87 133.099 542.215 132.763 542.447 132.351C542.684 131.939 542.803 131.506 542.803 131.051V129.517C542.732 129.602 542.575 129.68 542.334 129.751C542.097 129.818 541.822 129.877 541.51 129.929C541.202 129.976 540.902 130.019 540.608 130.057C540.319 130.09 540.085 130.118 539.905 130.142C539.469 130.199 539.062 130.291 538.683 130.419C538.309 130.542 538.006 130.729 537.774 130.98C537.547 131.226 537.433 131.562 537.433 131.989C537.433 132.571 537.649 133.011 538.08 133.31C538.515 133.603 539.067 133.75 539.734 133.75ZM547.538 135V124.091H556.118V135H554.441V125.653H549.214V135H547.538ZM563.61 135.227C562.626 135.227 561.761 134.993 561.018 134.524C560.279 134.055 559.702 133.4 559.285 132.557C558.873 131.714 558.667 130.729 558.667 129.602C558.667 128.466 558.873 127.474 559.285 126.626C559.702 125.779 560.279 125.121 561.018 124.652C561.761 124.183 562.626 123.949 563.61 123.949C564.595 123.949 565.457 124.183 566.196 124.652C566.939 125.121 567.517 125.779 567.929 126.626C568.345 127.474 568.554 128.466 568.554 129.602C568.554 130.729 568.345 131.714 567.929 132.557C567.517 133.4 566.939 134.055 566.196 134.524C565.457 134.993 564.595 135.227 563.61 135.227ZM563.61 133.722C564.359 133.722 564.974 133.53 565.457 133.146C565.94 132.763 566.297 132.259 566.529 131.634C566.761 131.009 566.877 130.331 566.877 129.602C566.877 128.873 566.761 128.194 566.529 127.564C566.297 126.934 565.94 126.425 565.457 126.037C564.974 125.649 564.359 125.455 563.61 125.455C562.862 125.455 562.247 125.649 561.764 126.037C561.281 126.425 560.923 126.934 560.691 127.564C560.459 128.194 560.343 128.873 560.343 129.602C560.343 130.331 560.459 131.009 560.691 131.634C560.923 132.259 561.281 132.763 561.764 133.146C562.247 133.53 562.862 133.722 563.61 133.722ZM577.078 132.727L580.885 124.091H582.476L577.76 135H576.396L571.766 124.091H573.328L577.078 132.727ZM572.788 124.091V135H571.112V124.091H572.788ZM581.368 135V124.091H583.044V135H581.368ZM593.413 128.778V130.341H587.391V128.778H593.413ZM587.788 124.091V135H586.112V124.091H587.788ZM594.692 124.091V135H593.016V124.091H594.692ZM599.429 132.528L604.685 124.091H606.616V135H604.94V126.562L599.713 135H597.753V124.091H599.429V132.528ZM619.743 135.227C618.721 135.227 617.84 134.986 617.101 134.503C616.363 134.02 615.794 133.355 615.397 132.507C614.999 131.66 614.8 130.691 614.8 129.602C614.8 128.494 615.004 127.517 615.411 126.669C615.823 125.817 616.396 125.152 617.13 124.673C617.868 124.19 618.73 123.949 619.715 123.949C620.482 123.949 621.173 124.091 621.789 124.375C622.404 124.659 622.908 125.057 623.301 125.568C623.694 126.08 623.938 126.676 624.033 127.358H622.357C622.229 126.861 621.945 126.42 621.505 126.037C621.069 125.649 620.482 125.455 619.743 125.455C619.09 125.455 618.517 125.625 618.025 125.966C617.537 126.302 617.156 126.778 616.881 127.393C616.611 128.004 616.476 128.722 616.476 129.545C616.476 130.388 616.609 131.122 616.874 131.747C617.144 132.372 617.523 132.857 618.01 133.203C618.503 133.549 619.08 133.722 619.743 133.722C620.179 133.722 620.574 133.646 620.929 133.494C621.284 133.343 621.585 133.125 621.831 132.841C622.078 132.557 622.253 132.216 622.357 131.818H624.033C623.938 132.462 623.704 133.042 623.33 133.558C622.961 134.07 622.471 134.477 621.86 134.78C621.254 135.078 620.548 135.227 619.743 135.227ZM629.694 135.256C629.002 135.256 628.375 135.125 627.811 134.865C627.248 134.6 626.801 134.219 626.469 133.722C626.138 133.22 625.972 132.614 625.972 131.903C625.972 131.278 626.095 130.772 626.341 130.384C626.587 129.991 626.917 129.683 627.328 129.46C627.74 129.238 628.195 129.072 628.692 128.963C629.194 128.849 629.698 128.759 630.205 128.693C630.868 128.608 631.405 128.544 631.817 128.501C632.234 128.454 632.537 128.376 632.726 128.267C632.92 128.158 633.017 127.969 633.017 127.699V127.642C633.017 126.941 632.826 126.397 632.442 126.009C632.063 125.62 631.488 125.426 630.716 125.426C629.916 125.426 629.289 125.601 628.834 125.952C628.38 126.302 628.06 126.676 627.875 127.074L626.284 126.506C626.569 125.843 626.947 125.327 627.421 124.957C627.899 124.583 628.42 124.323 628.983 124.176C629.551 124.025 630.11 123.949 630.659 123.949C631.01 123.949 631.412 123.991 631.867 124.077C632.326 124.157 632.769 124.325 633.195 124.581C633.626 124.837 633.983 125.223 634.267 125.739C634.551 126.255 634.694 126.946 634.694 127.812V135H633.017V133.523H632.932C632.819 133.759 632.629 134.013 632.364 134.283C632.099 134.553 631.746 134.782 631.306 134.972C630.865 135.161 630.328 135.256 629.694 135.256ZM629.949 133.75C630.612 133.75 631.171 133.62 631.625 133.359C632.085 133.099 632.43 132.763 632.662 132.351C632.899 131.939 633.017 131.506 633.017 131.051V129.517C632.946 129.602 632.79 129.68 632.549 129.751C632.312 129.818 632.037 129.877 631.725 129.929C631.417 129.976 631.116 130.019 630.823 130.057C630.534 130.09 630.3 130.118 630.12 130.142C629.684 130.199 629.277 130.291 628.898 130.419C628.524 130.542 628.221 130.729 627.989 130.98C627.762 131.226 627.648 131.562 627.648 131.989C627.648 132.571 627.864 133.011 628.294 133.31C628.73 133.603 629.282 133.75 629.949 133.75ZM643.719 132.727L647.526 124.091H649.116L644.401 135H643.037L638.406 124.091H639.969L643.719 132.727ZM639.429 124.091V135H637.753V124.091H639.429ZM648.009 135V124.091H649.685V135H648.009ZM654.202 128.04H657.327C658.605 128.04 659.583 128.364 660.26 129.013C660.937 129.661 661.276 130.483 661.276 131.477C661.276 132.131 661.124 132.725 660.821 133.26C660.518 133.79 660.073 134.214 659.486 134.531C658.899 134.844 658.179 135 657.327 135H652.753V124.091H654.429V133.438H657.327C657.99 133.438 658.534 133.262 658.96 132.912C659.386 132.562 659.599 132.112 659.599 131.562C659.599 130.985 659.386 130.514 658.96 130.149C658.534 129.785 657.99 129.602 657.327 129.602H654.202V128.04ZM663.009 135V124.091H664.685V135H663.009ZM672.327 135.227C671.276 135.227 670.369 134.995 669.607 134.531C668.849 134.062 668.264 133.409 667.852 132.571C667.445 131.728 667.241 130.748 667.241 129.631C667.241 128.513 667.445 127.528 667.852 126.676C668.264 125.819 668.837 125.152 669.571 124.673C670.31 124.19 671.171 123.949 672.156 123.949C672.724 123.949 673.286 124.044 673.839 124.233C674.393 124.422 674.898 124.73 675.352 125.156C675.807 125.578 676.169 126.136 676.439 126.832C676.709 127.528 676.844 128.385 676.844 129.403V130.114H668.435V128.665H675.139C675.139 128.049 675.016 127.5 674.77 127.017C674.528 126.534 674.183 126.153 673.733 125.874C673.288 125.594 672.762 125.455 672.156 125.455C671.489 125.455 670.911 125.62 670.423 125.952C669.94 126.278 669.569 126.705 669.308 127.23C669.048 127.756 668.918 128.319 668.918 128.92V129.886C668.918 130.71 669.06 131.409 669.344 131.982C669.633 132.55 670.033 132.983 670.544 133.281C671.055 133.575 671.65 133.722 672.327 133.722C672.767 133.722 673.165 133.66 673.52 133.537C673.88 133.409 674.19 133.22 674.45 132.969C674.711 132.713 674.912 132.396 675.054 132.017L676.673 132.472C676.503 133.021 676.216 133.504 675.814 133.92C675.411 134.332 674.914 134.654 674.322 134.886C673.731 135.114 673.065 135.227 672.327 135.227ZM691.751 124.091V125.653H686.695V135H685.018V124.091H691.751ZM692.314 135V133.438H692.712C693.039 133.438 693.311 133.374 693.529 133.246C693.747 133.113 693.922 132.884 694.054 132.557C694.192 132.225 694.296 131.766 694.367 131.179C694.443 130.587 694.497 129.834 694.53 128.92L694.729 124.091H702.002V135H700.326V125.653H696.32L696.15 129.545C696.112 130.44 696.031 131.229 695.908 131.911C695.79 132.588 695.607 133.156 695.361 133.615C695.12 134.074 694.798 134.42 694.395 134.652C693.993 134.884 693.489 135 692.882 135H692.314ZM708.287 135.256C707.596 135.256 706.969 135.125 706.405 134.865C705.842 134.6 705.394 134.219 705.063 133.722C704.731 133.22 704.566 132.614 704.566 131.903C704.566 131.278 704.689 130.772 704.935 130.384C705.181 129.991 705.51 129.683 705.922 129.46C706.334 129.238 706.789 129.072 707.286 128.963C707.788 128.849 708.292 128.759 708.799 128.693C709.462 128.608 709.999 128.544 710.411 128.501C710.828 128.454 711.131 128.376 711.32 128.267C711.514 128.158 711.611 127.969 711.611 127.699V127.642C711.611 126.941 711.419 126.397 711.036 126.009C710.657 125.62 710.082 125.426 709.31 125.426C708.51 125.426 707.882 125.601 707.428 125.952C706.973 126.302 706.654 126.676 706.469 127.074L704.878 126.506C705.162 125.843 705.541 125.327 706.015 124.957C706.493 124.583 707.014 124.323 707.577 124.176C708.145 124.025 708.704 123.949 709.253 123.949C709.604 123.949 710.006 123.991 710.461 124.077C710.92 124.157 711.363 124.325 711.789 124.581C712.22 124.837 712.577 125.223 712.861 125.739C713.145 126.255 713.287 126.946 713.287 127.812V135H711.611V133.523H711.526C711.412 133.759 711.223 134.013 710.958 134.283C710.693 134.553 710.34 134.782 709.9 134.972C709.459 135.161 708.922 135.256 708.287 135.256ZM708.543 133.75C709.206 133.75 709.765 133.62 710.219 133.359C710.678 133.099 711.024 132.763 711.256 132.351C711.493 131.939 711.611 131.506 711.611 131.051V129.517C711.54 129.602 711.384 129.68 711.142 129.751C710.906 129.818 710.631 129.877 710.319 129.929C710.011 129.976 709.71 130.019 709.417 130.057C709.128 130.09 708.893 130.118 708.713 130.142C708.278 130.199 707.871 130.291 707.492 130.419C707.118 130.542 706.815 130.729 706.583 130.98C706.355 131.226 706.242 131.562 706.242 131.989C706.242 132.571 706.457 133.011 706.888 133.31C707.324 133.603 707.875 133.75 708.543 133.75ZM716.347 135V124.091H720.807C721.981 124.091 722.914 124.356 723.605 124.886C724.296 125.417 724.642 126.117 724.642 126.989C724.642 127.652 724.446 128.165 724.053 128.53C723.66 128.89 723.155 129.134 722.54 129.261C722.942 129.318 723.333 129.46 723.712 129.688C724.095 129.915 724.412 130.227 724.663 130.625C724.914 131.018 725.04 131.501 725.04 132.074C725.04 132.633 724.898 133.132 724.614 133.572C724.33 134.013 723.922 134.361 723.392 134.616C722.862 134.872 722.227 135 721.489 135H716.347ZM717.938 133.466H721.489C722.066 133.466 722.518 133.329 722.845 133.054C723.172 132.779 723.335 132.405 723.335 131.932C723.335 131.368 723.172 130.926 722.845 130.604C722.518 130.277 722.066 130.114 721.489 130.114H717.938V133.466ZM717.938 128.665H720.807C721.257 128.665 721.643 128.603 721.964 128.48C722.286 128.352 722.533 128.172 722.703 127.94C722.878 127.704 722.966 127.424 722.966 127.102C722.966 126.643 722.774 126.283 722.391 126.023C722.007 125.758 721.479 125.625 720.807 125.625H717.938V128.665ZM734.878 128.778V130.341H728.855V128.778H734.878ZM729.253 124.091V135H727.577V124.091H729.253ZM736.157 124.091V135H734.48V124.091H736.157ZM740.667 128.04H743.792C745.07 128.04 746.048 128.364 746.725 129.013C747.402 129.661 747.74 130.483 747.74 131.477C747.74 132.131 747.589 132.725 747.286 133.26C746.983 133.79 746.538 134.214 745.951 134.531C745.364 134.844 744.644 135 743.792 135H739.218V124.091H740.894V133.438H743.792C744.454 133.438 744.999 133.262 745.425 132.912C745.851 132.562 746.064 132.112 746.064 131.562C746.064 130.985 745.851 130.514 745.425 130.149C744.999 129.785 744.454 129.602 743.792 129.602H740.667V128.04ZM749.473 135V124.091H751.15V135H749.473ZM758.792 135.227C757.74 135.227 756.834 134.995 756.071 134.531C755.314 134.062 754.729 133.409 754.317 132.571C753.91 131.728 753.706 130.748 753.706 129.631C753.706 128.513 753.91 127.528 754.317 126.676C754.729 125.819 755.302 125.152 756.036 124.673C756.775 124.19 757.636 123.949 758.621 123.949C759.189 123.949 759.75 124.044 760.304 124.233C760.858 124.422 761.363 124.73 761.817 125.156C762.272 125.578 762.634 126.136 762.904 126.832C763.174 127.528 763.309 128.385 763.309 129.403V130.114H754.9V128.665H761.604C761.604 128.049 761.481 127.5 761.235 127.017C760.993 126.534 760.648 126.153 760.198 125.874C759.753 125.594 759.227 125.455 758.621 125.455C757.953 125.455 757.376 125.62 756.888 125.952C756.405 126.278 756.033 126.705 755.773 127.23C755.513 127.756 755.382 128.319 755.382 128.92V129.886C755.382 130.71 755.525 131.409 755.809 131.982C756.097 132.55 756.498 132.983 757.009 133.281C757.52 133.575 758.114 133.722 758.792 133.722C759.232 133.722 759.63 133.66 759.985 133.537C760.345 133.409 760.655 133.22 760.915 132.969C761.176 132.713 761.377 132.396 761.519 132.017L763.138 132.472C762.968 133.021 762.681 133.504 762.279 133.92C761.876 134.332 761.379 134.654 760.787 134.886C760.195 135.114 759.53 135.227 758.792 135.227ZM777.449 132.727L781.256 124.091H782.847L778.131 135H776.767L772.137 124.091H773.699L777.449 132.727ZM773.159 124.091V135H771.483V124.091H773.159ZM781.739 135V124.091H783.415V135H781.739ZM787.932 128.04H791.057C792.336 128.04 793.313 128.364 793.99 129.013C794.667 129.661 795.006 130.483 795.006 131.477C795.006 132.131 794.855 132.725 794.551 133.26C794.248 133.79 793.803 134.214 793.216 134.531C792.629 134.844 791.909 135 791.057 135H786.483V124.091H788.159V133.438H791.057C791.72 133.438 792.265 133.262 792.691 132.912C793.117 132.562 793.33 132.112 793.33 131.562C793.33 130.985 793.117 130.514 792.691 130.149C792.265 129.785 791.72 129.602 791.057 129.602H787.932V128.04ZM796.739 135V124.091H798.415V135H796.739ZM805.915 135.227C804.892 135.227 804.012 134.986 803.273 134.503C802.534 134.02 801.966 133.355 801.569 132.507C801.171 131.66 800.972 130.691 800.972 129.602C800.972 128.494 801.176 127.517 801.583 126.669C801.995 125.817 802.568 125.152 803.301 124.673C804.04 124.19 804.902 123.949 805.887 123.949C806.654 123.949 807.345 124.091 807.961 124.375C808.576 124.659 809.08 125.057 809.473 125.568C809.866 126.08 810.11 126.676 810.205 127.358H808.529C808.401 126.861 808.117 126.42 807.676 126.037C807.241 125.649 806.654 125.455 805.915 125.455C805.262 125.455 804.689 125.625 804.196 125.966C803.709 126.302 803.328 126.778 803.053 127.393C802.783 128.004 802.648 128.722 802.648 129.545C802.648 130.388 802.781 131.122 803.046 131.747C803.316 132.372 803.694 132.857 804.182 133.203C804.675 133.549 805.252 133.722 805.915 133.722C806.351 133.722 806.746 133.646 807.101 133.494C807.456 133.343 807.757 133.125 808.003 132.841C808.249 132.557 808.425 132.216 808.529 131.818H810.205C810.11 132.462 809.876 133.042 809.502 133.558C809.132 134.07 808.642 134.477 808.032 134.78C807.426 135.078 806.72 135.227 805.915 135.227ZM811.689 135V133.438H812.087C812.414 133.438 812.686 133.374 812.904 133.246C813.122 133.113 813.297 132.884 813.429 132.557C813.567 132.225 813.671 131.766 813.742 131.179C813.818 130.587 813.872 129.834 813.905 128.92L814.104 124.091H821.377V135H819.701V125.653H815.695L815.525 129.545C815.487 130.44 815.406 131.229 815.283 131.911C815.165 132.588 814.982 133.156 814.736 133.615C814.495 134.074 814.173 134.42 813.77 134.652C813.368 134.884 812.864 135 812.257 135H811.689ZM826.128 132.528L831.384 124.091H833.316V135H831.64V126.562L826.412 135H824.452V124.091H826.128V132.528ZM842.011 135V124.091H843.687V128.835H844.795L848.715 124.091H850.874L846.471 129.347L850.931 135H848.772L845.192 130.398H843.687V135H842.011ZM860.054 128.778V130.341H854.031V128.778H860.054ZM854.429 124.091V135H852.753V124.091H854.429ZM861.332 124.091V135H859.656V124.091H861.332ZM866.07 132.528L871.325 124.091H873.257V135H871.581V126.562L866.354 135H864.393V124.091H866.07V132.528ZM883.06 124.091V125.653H878.003V135H876.327V124.091H883.06ZM887.183 132.528L892.439 124.091H894.37V135H892.694V126.562L887.467 135H885.507V124.091H887.183V132.528ZM904.741 132.528L909.997 124.091H911.929V135H910.253V126.562L905.026 135H903.065V124.091H904.741V132.528ZM920.624 135V124.091H925.084C926.258 124.091 927.191 124.356 927.882 124.886C928.574 125.417 928.919 126.117 928.919 126.989C928.919 127.652 928.723 128.165 928.33 128.53C927.937 128.89 927.433 129.134 926.817 129.261C927.22 129.318 927.61 129.46 927.989 129.688C928.373 129.915 928.69 130.227 928.941 130.625C929.192 131.018 929.317 131.501 929.317 132.074C929.317 132.633 929.175 133.132 928.891 133.572C928.607 134.013 928.2 134.361 927.669 134.616C927.139 134.872 926.505 135 925.766 135H920.624ZM922.215 133.466H925.766C926.344 133.466 926.796 133.329 927.123 133.054C927.449 132.779 927.613 132.405 927.613 131.932C927.613 131.368 927.449 130.926 927.123 130.604C926.796 130.277 926.344 130.114 925.766 130.114H922.215V133.466ZM922.215 128.665H925.084C925.534 128.665 925.92 128.603 926.242 128.48C926.564 128.352 926.81 128.172 926.98 127.94C927.156 127.704 927.243 127.424 927.243 127.102C927.243 126.643 927.051 126.283 926.668 126.023C926.284 125.758 925.757 125.625 925.084 125.625H922.215V128.665ZM936.428 135.227C935.377 135.227 934.47 134.995 933.708 134.531C932.951 134.062 932.366 133.409 931.954 132.571C931.547 131.728 931.343 130.748 931.343 129.631C931.343 128.513 931.547 127.528 931.954 126.676C932.366 125.819 932.939 125.152 933.673 124.673C934.411 124.19 935.273 123.949 936.258 123.949C936.826 123.949 937.387 124.044 937.941 124.233C938.495 124.422 938.999 124.73 939.454 125.156C939.908 125.578 940.271 126.136 940.54 126.832C940.81 127.528 940.945 128.385 940.945 129.403V130.114H932.536V128.665H939.241C939.241 128.049 939.118 127.5 938.871 127.017C938.63 126.534 938.284 126.153 937.835 125.874C937.389 125.594 936.864 125.455 936.258 125.455C935.59 125.455 935.013 125.62 934.525 125.952C934.042 126.278 933.67 126.705 933.41 127.23C933.149 127.756 933.019 128.319 933.019 128.92V129.886C933.019 130.71 933.161 131.409 933.445 131.982C933.734 132.55 934.134 132.983 934.646 133.281C935.157 133.575 935.751 133.722 936.428 133.722C936.869 133.722 937.266 133.66 937.621 133.537C937.981 133.409 938.291 133.22 938.552 132.969C938.812 132.713 939.013 132.396 939.156 132.017L940.775 132.472C940.604 133.021 940.318 133.504 939.915 133.92C939.513 134.332 939.016 134.654 938.424 134.886C937.832 135.114 937.167 135.227 936.428 135.227ZM943.495 139.091V124.091H945.114V125.824H945.313C945.436 125.634 945.607 125.393 945.825 125.099C946.047 124.801 946.364 124.536 946.776 124.304C947.193 124.067 947.756 123.949 948.467 123.949C949.385 123.949 950.195 124.179 950.896 124.638C951.596 125.097 952.143 125.748 952.536 126.591C952.929 127.434 953.126 128.428 953.126 129.574C953.126 130.729 952.929 131.731 952.536 132.578C952.143 133.421 951.599 134.074 950.903 134.538C950.207 134.998 949.404 135.227 948.495 135.227C947.794 135.227 947.233 135.111 946.812 134.879C946.39 134.643 946.066 134.375 945.839 134.077C945.612 133.774 945.436 133.523 945.313 133.324H945.171V139.091H943.495ZM945.143 129.545C945.143 130.369 945.263 131.096 945.505 131.726C945.746 132.351 946.099 132.841 946.563 133.196C947.027 133.546 947.595 133.722 948.268 133.722C948.969 133.722 949.553 133.537 950.022 133.168C950.496 132.794 950.851 132.292 951.087 131.662C951.329 131.027 951.45 130.322 951.45 129.545C951.45 128.778 951.331 128.087 951.094 127.472C950.862 126.851 950.51 126.361 950.036 126.001C949.567 125.637 948.978 125.455 948.268 125.455C947.586 125.455 947.013 125.627 946.549 125.973C946.085 126.314 945.735 126.792 945.498 127.408C945.261 128.018 945.143 128.731 945.143 129.545ZM962.984 128.778V130.341H956.961V128.778H962.984ZM957.359 124.091V135H955.683V124.091H957.359ZM964.262 124.091V135H962.586V124.091H964.262ZM968.999 132.528L974.255 124.091H976.187V135H974.511V126.562L969.283 135H967.323V124.091H968.999V132.528ZM983.689 135.227C982.666 135.227 981.785 134.986 981.047 134.503C980.308 134.02 979.74 133.355 979.342 132.507C978.944 131.66 978.745 130.691 978.745 129.602C978.745 128.494 978.949 127.517 979.356 126.669C979.768 125.817 980.341 125.152 981.075 124.673C981.814 124.19 982.675 123.949 983.66 123.949C984.427 123.949 985.118 124.091 985.734 124.375C986.35 124.659 986.854 125.057 987.247 125.568C987.64 126.08 987.884 126.676 987.978 127.358H986.302C986.174 126.861 985.89 126.42 985.45 126.037C985.014 125.649 984.427 125.455 983.689 125.455C983.035 125.455 982.462 125.625 981.97 125.966C981.482 126.302 981.101 126.778 980.826 127.393C980.556 128.004 980.422 128.722 980.422 129.545C980.422 130.388 980.554 131.122 980.819 131.747C981.089 132.372 981.468 132.857 981.956 133.203C982.448 133.549 983.026 133.722 983.689 133.722C984.124 133.722 984.52 133.646 984.875 133.494C985.23 133.343 985.53 133.125 985.777 132.841C986.023 132.557 986.198 132.216 986.302 131.818H987.978C987.884 132.462 987.649 133.042 987.275 133.558C986.906 134.07 986.416 134.477 985.805 134.78C985.199 135.078 984.493 135.227 983.689 135.227ZM991.877 128.04H995.002C996.281 128.04 997.259 128.364 997.936 129.013C998.613 129.661 998.951 130.483 998.951 131.477C998.951 132.131 998.8 132.725 998.497 133.26C998.194 133.79 997.749 134.214 997.162 134.531C996.574 134.844 995.855 135 995.002 135H990.429V124.091H992.105V133.438H995.002C995.665 133.438 996.21 133.262 996.636 132.912C997.062 132.562 997.275 132.112 997.275 131.562C997.275 130.985 997.062 130.514 996.636 130.149C996.21 129.785 995.665 129.602 995.002 129.602H991.877V128.04ZM1007.13 135V124.091H1008.8V128.835H1009.91L1013.83 124.091H1015.99L1011.59 129.347L1016.05 135H1013.89L1010.31 130.398H1008.8V135H1007.13ZM530.835 152.778V154.341H524.812V152.778H530.835ZM525.21 148.091V159H523.534V148.091H525.21ZM532.114 148.091V159H530.438V148.091H532.114ZM536.851 156.528L542.107 148.091H544.038V159H542.362V150.562L537.135 159H535.175V148.091H536.851V156.528ZM553.074 156.727L556.881 148.091H558.472L553.756 159H552.392L547.762 148.091H549.324L553.074 156.727ZM548.784 148.091V159H547.108V148.091H548.784ZM557.364 159V148.091H559.04V159H557.364ZM567.733 159V148.091H569.409V152.835H570.517L574.438 148.091H576.597L572.194 153.347L576.654 159H574.495L570.915 154.398H569.409V159H567.733ZM582.458 159.227C581.473 159.227 580.609 158.993 579.866 158.524C579.127 158.055 578.549 157.4 578.133 156.557C577.721 155.714 577.515 154.729 577.515 153.602C577.515 152.466 577.721 151.474 578.133 150.626C578.549 149.779 579.127 149.121 579.866 148.652C580.609 148.183 581.473 147.949 582.458 147.949C583.443 147.949 584.305 148.183 585.043 148.652C585.787 149.121 586.364 149.779 586.776 150.626C587.193 151.474 587.401 152.466 587.401 153.602C587.401 154.729 587.193 155.714 586.776 156.557C586.364 157.4 585.787 158.055 585.043 158.524C584.305 158.993 583.443 159.227 582.458 159.227ZM582.458 157.722C583.206 157.722 583.822 157.53 584.305 157.146C584.788 156.763 585.145 156.259 585.377 155.634C585.609 155.009 585.725 154.331 585.725 153.602C585.725 152.873 585.609 152.194 585.377 151.564C585.145 150.934 584.788 150.425 584.305 150.037C583.822 149.649 583.206 149.455 582.458 149.455C581.71 149.455 581.094 149.649 580.612 150.037C580.129 150.425 579.771 150.934 579.539 151.564C579.307 152.194 579.191 152.873 579.191 153.602C579.191 154.331 579.307 155.009 579.539 155.634C579.771 156.259 580.129 156.763 580.612 157.146C581.094 157.53 581.71 157.722 582.458 157.722ZM596.693 148.091V149.653H591.636V159H589.96V148.091H596.693ZM597.057 162.125V157.438H597.966C598.188 157.205 598.38 156.955 598.541 156.685C598.702 156.415 598.842 156.095 598.96 155.726C599.083 155.352 599.188 154.897 599.273 154.362C599.358 153.822 599.434 153.171 599.5 152.409L599.869 148.091H606.801V157.438H608.477V162.125H606.801V159H598.733V162.125H597.057ZM599.869 157.438H605.125V149.653H601.432L601.148 152.409C601.029 153.55 600.883 154.547 600.707 155.399C600.532 156.251 600.253 156.931 599.869 157.438ZM613.912 159.256C613.221 159.256 612.594 159.125 612.03 158.865C611.467 158.6 611.019 158.219 610.688 157.722C610.356 157.22 610.191 156.614 610.191 155.903C610.191 155.278 610.314 154.772 610.56 154.384C610.806 153.991 611.135 153.683 611.547 153.46C611.959 153.238 612.414 153.072 612.911 152.963C613.413 152.849 613.917 152.759 614.424 152.693C615.087 152.608 615.624 152.544 616.036 152.501C616.453 152.454 616.756 152.376 616.945 152.267C617.139 152.158 617.236 151.969 617.236 151.699V151.642C617.236 150.941 617.044 150.397 616.661 150.009C616.282 149.62 615.707 149.426 614.935 149.426C614.135 149.426 613.507 149.601 613.053 149.952C612.598 150.302 612.279 150.676 612.094 151.074L610.503 150.506C610.787 149.843 611.166 149.327 611.64 148.957C612.118 148.583 612.639 148.323 613.202 148.176C613.77 148.025 614.329 147.949 614.878 147.949C615.229 147.949 615.631 147.991 616.086 148.077C616.545 148.157 616.988 148.325 617.414 148.581C617.845 148.837 618.202 149.223 618.486 149.739C618.77 150.255 618.912 150.946 618.912 151.812V159H617.236V157.523H617.151C617.037 157.759 616.848 158.013 616.583 158.283C616.318 158.553 615.965 158.782 615.525 158.972C615.084 159.161 614.547 159.256 613.912 159.256ZM614.168 157.75C614.831 157.75 615.39 157.62 615.844 157.359C616.303 157.099 616.649 156.763 616.881 156.351C617.118 155.939 617.236 155.506 617.236 155.051V153.517C617.165 153.602 617.009 153.68 616.767 153.751C616.531 153.818 616.256 153.877 615.944 153.929C615.636 153.976 615.335 154.019 615.042 154.057C614.753 154.09 614.518 154.118 614.338 154.142C613.903 154.199 613.496 154.291 613.117 154.419C612.743 154.542 612.44 154.729 612.208 154.98C611.98 155.226 611.867 155.562 611.867 155.989C611.867 156.571 612.082 157.011 612.513 157.31C612.949 157.603 613.5 157.75 614.168 157.75ZM627.597 159V148.091H636.176V159H634.5V149.653H629.273V159H627.597ZM639.237 163.091V148.091H640.857V149.824H641.055C641.179 149.634 641.349 149.393 641.567 149.099C641.789 148.801 642.107 148.536 642.518 148.304C642.935 148.067 643.499 147.949 644.209 147.949C645.127 147.949 645.937 148.179 646.638 148.638C647.339 149.097 647.885 149.748 648.278 150.591C648.671 151.434 648.868 152.428 648.868 153.574C648.868 154.729 648.671 155.731 648.278 156.578C647.885 157.421 647.341 158.074 646.645 158.538C645.949 158.998 645.146 159.227 644.237 159.227C643.536 159.227 642.975 159.111 642.554 158.879C642.133 158.643 641.808 158.375 641.581 158.077C641.354 157.774 641.179 157.523 641.055 157.324H640.913V163.091H639.237ZM640.885 153.545C640.885 154.369 641.006 155.096 641.247 155.726C641.489 156.351 641.841 156.841 642.305 157.196C642.769 157.546 643.338 157.722 644.01 157.722C644.711 157.722 645.295 157.537 645.764 157.168C646.238 156.794 646.593 156.292 646.83 155.662C647.071 155.027 647.192 154.322 647.192 153.545C647.192 152.778 647.073 152.087 646.837 151.472C646.605 150.851 646.252 150.361 645.778 150.001C645.31 149.637 644.72 149.455 644.01 149.455C643.328 149.455 642.755 149.627 642.291 149.973C641.827 150.314 641.477 150.792 641.24 151.408C641.003 152.018 640.885 152.731 640.885 153.545ZM653.101 156.528L658.357 148.091H660.288V159H658.612V150.562L653.385 159H651.425V148.091H653.101V156.528ZM662.194 162.125V157.438H663.103C663.325 157.205 663.517 156.955 663.678 156.685C663.839 156.415 663.979 156.095 664.097 155.726C664.22 155.352 664.324 154.897 664.409 154.362C664.495 153.822 664.57 153.171 664.637 152.409L665.006 148.091H671.938V157.438H673.614V162.125H671.938V159H663.87V162.125H662.194ZM665.006 157.438H670.262V149.653H666.569L666.284 152.409C666.166 153.55 666.019 154.547 665.844 155.399C665.669 156.251 665.39 156.931 665.006 157.438ZM680.413 159.227C679.362 159.227 678.455 158.995 677.692 158.531C676.935 158.062 676.35 157.409 675.938 156.571C675.531 155.728 675.327 154.748 675.327 153.631C675.327 152.513 675.531 151.528 675.938 150.676C676.35 149.819 676.923 149.152 677.657 148.673C678.396 148.19 679.257 147.949 680.242 147.949C680.81 147.949 681.371 148.044 681.925 148.233C682.479 148.422 682.984 148.73 683.438 149.156C683.893 149.578 684.255 150.136 684.525 150.832C684.795 151.528 684.93 152.385 684.93 153.403V154.114H676.521V152.665H683.225C683.225 152.049 683.102 151.5 682.856 151.017C682.614 150.534 682.269 150.153 681.819 149.874C681.374 149.594 680.848 149.455 680.242 149.455C679.575 149.455 678.997 149.62 678.509 149.952C678.026 150.278 677.655 150.705 677.394 151.23C677.134 151.756 677.004 152.319 677.004 152.92V153.886C677.004 154.71 677.146 155.409 677.43 155.982C677.719 156.55 678.119 156.983 678.63 157.281C679.141 157.575 679.736 157.722 680.413 157.722C680.853 157.722 681.251 157.66 681.606 157.537C681.966 157.409 682.276 157.22 682.536 156.969C682.797 156.713 682.998 156.396 683.14 156.017L684.759 156.472C684.589 157.021 684.302 157.504 683.9 157.92C683.497 158.332 683 158.654 682.408 158.886C681.817 159.114 681.151 159.227 680.413 159.227ZM678.112 146.273C677.813 146.273 677.548 146.159 677.316 145.932C677.089 145.7 676.975 145.435 676.975 145.136C676.975 144.81 677.089 144.54 677.316 144.327C677.548 144.109 677.813 144 678.112 144C678.438 144 678.708 144.109 678.921 144.327C679.139 144.54 679.248 144.81 679.248 145.136C679.248 145.435 679.139 145.7 678.921 145.932C678.708 146.159 678.438 146.273 678.112 146.273ZM682.202 146.273C681.904 146.273 681.639 146.159 681.407 145.932C681.18 145.7 681.066 145.435 681.066 145.136C681.066 144.81 681.18 144.54 681.407 144.327C681.639 144.109 681.904 144 682.202 144C682.529 144 682.799 144.109 683.012 144.327C683.23 144.54 683.339 144.81 683.339 145.136C683.339 145.435 683.23 145.7 683.012 145.932C682.799 146.159 682.529 146.273 682.202 146.273ZM686.464 149.653V148.091H695.327V149.653H691.748V159H690.072V149.653H686.464ZM703.397 159V148.091H707.858C709.032 148.091 709.965 148.356 710.656 148.886C711.347 149.417 711.693 150.117 711.693 150.989C711.693 151.652 711.496 152.165 711.103 152.53C710.71 152.89 710.206 153.134 709.591 153.261C709.993 153.318 710.384 153.46 710.762 153.688C711.146 153.915 711.463 154.227 711.714 154.625C711.965 155.018 712.091 155.501 712.091 156.074C712.091 156.633 711.949 157.132 711.664 157.572C711.38 158.013 710.973 158.361 710.443 158.616C709.913 158.872 709.278 159 708.539 159H703.397ZM704.988 157.466H708.539C709.117 157.466 709.569 157.329 709.896 157.054C710.223 156.779 710.386 156.405 710.386 155.932C710.386 155.368 710.223 154.926 709.896 154.604C709.569 154.277 709.117 154.114 708.539 154.114H704.988V157.466ZM704.988 152.665H707.858C708.307 152.665 708.693 152.603 709.015 152.48C709.337 152.352 709.583 152.172 709.754 151.94C709.929 151.704 710.017 151.424 710.017 151.102C710.017 150.643 709.825 150.283 709.441 150.023C709.058 149.758 708.53 149.625 707.858 149.625H704.988V152.665ZM714.628 163.091V148.091H716.247V149.824H716.446C716.569 149.634 716.74 149.393 716.957 149.099C717.18 148.801 717.497 148.536 717.909 148.304C718.326 148.067 718.889 147.949 719.599 147.949C720.518 147.949 721.328 148.179 722.028 148.638C722.729 149.097 723.276 149.748 723.669 150.591C724.062 151.434 724.259 152.428 724.259 153.574C724.259 154.729 724.062 155.731 723.669 156.578C723.276 157.421 722.732 158.074 722.036 158.538C721.339 158.998 720.537 159.227 719.628 159.227C718.927 159.227 718.366 159.111 717.945 158.879C717.523 158.643 717.199 158.375 716.972 158.077C716.744 157.774 716.569 157.523 716.446 157.324H716.304V163.091H714.628ZM716.276 153.545C716.276 154.369 716.396 155.096 716.638 155.726C716.879 156.351 717.232 156.841 717.696 157.196C718.16 157.546 718.728 157.722 719.401 157.722C720.101 157.722 720.686 157.537 721.155 157.168C721.628 156.794 721.983 156.292 722.22 155.662C722.462 155.027 722.582 154.322 722.582 153.545C722.582 152.778 722.464 152.087 722.227 151.472C721.995 150.851 721.643 150.361 721.169 150.001C720.7 149.637 720.111 149.455 719.401 149.455C718.719 149.455 718.146 149.627 717.682 149.973C717.218 150.314 716.867 150.792 716.631 151.408C716.394 152.018 716.276 152.731 716.276 153.545ZM731.389 159.227C730.338 159.227 729.431 158.995 728.669 158.531C727.911 158.062 727.327 157.409 726.915 156.571C726.508 155.728 726.304 154.748 726.304 153.631C726.304 152.513 726.508 151.528 726.915 150.676C727.327 149.819 727.9 149.152 728.634 148.673C729.372 148.19 730.234 147.949 731.219 147.949C731.787 147.949 732.348 148.044 732.902 148.233C733.456 148.422 733.96 148.73 734.415 149.156C734.869 149.578 735.232 150.136 735.501 150.832C735.771 151.528 735.906 152.385 735.906 153.403V154.114H727.497V152.665H734.202C734.202 152.049 734.079 151.5 733.832 151.017C733.591 150.534 733.245 150.153 732.795 149.874C732.35 149.594 731.825 149.455 731.219 149.455C730.551 149.455 729.973 149.62 729.486 149.952C729.003 150.278 728.631 150.705 728.371 151.23C728.11 151.756 727.98 152.319 727.98 152.92V153.886C727.98 154.71 728.122 155.409 728.406 155.982C728.695 156.55 729.095 156.983 729.607 157.281C730.118 157.575 730.712 157.722 731.389 157.722C731.83 157.722 732.227 157.66 732.582 157.537C732.942 157.409 733.252 157.22 733.513 156.969C733.773 156.713 733.974 156.396 734.116 156.017L735.736 156.472C735.565 157.021 735.279 157.504 734.876 157.92C734.474 158.332 733.977 158.654 733.385 158.886C732.793 159.114 732.128 159.227 731.389 159.227ZM744.422 156.727L748.229 148.091H749.82L745.104 159H743.74L739.109 148.091H740.672L744.422 156.727ZM740.132 148.091V159H738.456V148.091H740.132ZM748.712 159V148.091H750.388V159H748.712ZM760.018 159V149.625H757.121C756.467 149.625 755.954 149.777 755.58 150.08C755.205 150.383 755.018 150.799 755.018 151.33C755.018 151.85 755.187 152.26 755.523 152.558C755.864 152.857 756.33 153.006 756.922 153.006H760.445V154.568H756.922C756.183 154.568 755.546 154.438 755.011 154.178C754.476 153.917 754.064 153.545 753.776 153.062C753.487 152.575 753.342 151.997 753.342 151.33C753.342 150.657 753.494 150.08 753.797 149.597C754.1 149.114 754.533 148.742 755.097 148.482C755.665 148.221 756.339 148.091 757.121 148.091H761.609V159H760.018ZM752.746 159L755.842 153.574H757.661L754.564 159H752.746Z"
          fill="#335B7F"/>
    <rect width="1920" height="24" transform="matrix(1 0 0 -1 0 215)" fill="#3D5F82"/>
    <rect x="502" y="68" width="4" height="96" fill="#335B7F"/>
    <mask id="path-8-inside-1_433_4325" fill="white">
        <path d="M1363.06 38.2246H1403.6V201.878H1363.06V38.2246Z"/>
    </mask>
    <path d="M1363.06 38.2246H1403.6V201.878H1363.06V38.2246Z" fill="#91A4B5"/>
    <path d="M1400.6 38.2246V201.878H1406.6V38.2246H1400.6ZM1363.56 201.878V38.2246H1362.56V201.878H1363.56Z" fill="#426480"
          mask="url(#path-8-inside-1_433_4325)"/>
    <mask id="path-10-inside-2_433_4325" fill="white">
        <path d="M1338.07 60.4648L1363.17 65.252L1334.1 201.916L1309 197.129L1338.07 60.4648Z"/>
    </mask>
    <path d="M1338.07 60.4648L1363.17 65.252L1334.1 201.916L1309 197.129L1338.07 60.4648Z" fill="#8498B0"/>
    <path d="M1362.19 65.0647L1333.12 201.729L1335.08 202.103L1364.16 65.4394L1362.19 65.0647ZM1309.98 197.316L1339.05 60.6522L1337.09 60.2775L1308.02 196.941L1309.98 197.316Z"
          fill="black" mask="url(#path-10-inside-2_433_4325)"/>
    <mask id="path-12-inside-3_433_4325" fill="white">
        <path d="M1403.6 28.123H1444.14V201.878H1403.6V28.123Z"/>
    </mask>
    <path d="M1403.6 28.123H1444.14V201.878H1403.6V28.123Z" fill="#BBC7D3"/>
    <path d="M1442.14 28.123V201.878H1446.14V28.123H1442.14ZM1404.6 201.878V28.123H1402.6V201.878H1404.6Z" fill="black"
          mask="url(#path-12-inside-3_433_4325)"/>
    <mask id="path-14-inside-4_433_4325" fill="white">
        <path d="M1444.14 28.123H1484.68V201.878H1444.14V28.123Z"/>
    </mask>
    <path d="M1444.14 28.123H1484.68V201.878H1444.14V28.123Z" fill="#547692"/>
    <path d="M1483.68 28.123V201.878H1485.68V28.123H1483.68ZM1445.14 201.878V28.123H1443.14V201.878H1445.14Z" fill="#446078"
          mask="url(#path-14-inside-4_433_4325)"/>
    <mask id="path-16-inside-5_433_4325" fill="white">
        <path d="M1484.68 16H1508.16V201.878H1484.68V16Z"/>
    </mask>
    <path d="M1484.68 16H1508.16V201.878H1484.68V16Z" fill="#A6B5C2"/>
    <path d="M1507.16 16V201.878H1509.16V16H1507.16Z" fill="#7A90A5" mask="url(#path-16-inside-5_433_4325)"/>
    <mask id="path-18-inside-6_433_4325" fill="white">
        <path d="M1508.16 44.2852H1531.63V201.877H1508.16V44.2852Z"/>
    </mask>
    <path d="M1508.16 44.2852H1531.63V201.877H1508.16V44.2852Z" fill="#E6EBEF"/>
    <path d="M1530.63 44.2852V201.877H1532.63V44.2852H1530.63ZM1509.16 201.877V44.2852H1507.16V201.877H1509.16Z" fill="#577492"
          mask="url(#path-18-inside-6_433_4325)"/>
    <mask id="path-20-inside-7_433_4325" fill="white">
        <path d="M1531.63 38.2246H1555.1V201.878H1531.63V38.2246Z"/>
    </mask>
    <path d="M1531.63 38.2246H1555.1V201.878H1531.63V38.2246Z" fill="#5A7795"/>
    <path d="M1554.1 38.2246V201.878H1556.1V38.2246H1554.1ZM1532.63 201.878V38.2246H1530.63V201.878H1532.63Z" fill="#3E5B79"
          mask="url(#path-20-inside-7_433_4325)"/>
    <mask id="path-22-inside-8_433_4325" fill="white">
        <path d="M1555.1 34.1836H1578.57V201.878H1555.1V34.1836Z"/>
    </mask>
    <path d="M1555.1 34.1836H1578.57V201.878H1555.1V34.1836Z" fill="#6C85A3"/>
    <path d="M1577.57 34.1836V201.878H1579.57V34.1836H1577.57ZM1556.1 201.878V34.1836H1554.1V201.878H1556.1Z" fill="#385B7B"
          mask="url(#path-22-inside-8_433_4325)"/>
    <mask id="path-24-inside-9_433_4325" fill="white">
        <path d="M1578.57 56.4082H1612.71V201.878H1578.57V56.4082Z"/>
    </mask>
    <path d="M1578.57 56.4082H1612.71V201.878H1578.57V56.4082Z" fill="#3F6282"/>
    <path d="M1611.71 56.4082V201.878H1613.71V56.4082H1611.71ZM1579.57 201.878V56.4082H1577.57V201.878H1579.57Z" fill="#33485B"
          mask="url(#path-24-inside-9_433_4325)"/>
    <mask id="path-26-inside-10_433_4325" fill="white">
        <path d="M1612.71 44.2852H1648.99V201.877H1612.71V44.2852Z"/>
    </mask>
    <path d="M1612.71 44.2852H1648.99V201.877H1612.71V44.2852Z" fill="#B1BECE"/>
    <path d="M1647.99 44.2852V201.877H1649.99V44.2852H1647.99ZM1613.71 201.877V44.2852H1611.71V201.877H1613.71Z" fill="#6E7882"
          mask="url(#path-26-inside-10_433_4325)"/>
    <mask id="path-28-inside-11_433_4325" fill="white">
        <path d="M1648.99 44.2852H1685.26V201.877H1648.99V44.2852Z"/>
    </mask>
    <path d="M1648.99 44.2852H1685.26V201.877H1648.99V44.2852Z" fill="#F7F5FA"/>
    <path d="M1684.26 44.2852V201.877H1686.26V44.2852H1684.26ZM1649.99 201.877V44.2852H1647.99V201.877H1649.99Z" fill="#34546D"
          mask="url(#path-28-inside-11_433_4325)"/>
    <mask id="path-30-inside-12_433_4325" fill="white">
        <path d="M1685.26 34.1836H1713V201.878H1685.26V34.1836Z"/>
    </mask>
    <path d="M1685.26 34.1836H1713V201.878H1685.26V34.1836Z" fill="#4A6C88"/>
    <path d="M1712 34.1836V201.878H1714V34.1836H1712ZM1686.26 201.878V34.1836H1684.26V201.878H1686.26Z" fill="#7C9AB5"
          mask="url(#path-30-inside-12_433_4325)"/>
    <path d="M1354.35 102.948L1363.06 65.5005L1363.06 194.807L1333.19 201.878L1354.35 102.948Z" fill="#587692"/>
    <path d="M1430.76 72.9627L1430.73 75.417L1423.41 75.3269L1423.41 75.4235L1430.66 80.5415L1430.63 82.6947L1418.99 82.5514L1419.03 80.0914L1426.35 80.1816L1426.35 80.0964L1419.1 74.9499L1419.13 72.8194L1430.76 72.9627ZM1418.74 88.4792C1418.75 87.5853 1418.95 86.8188 1419.34 86.1796C1419.73 85.5442 1420.27 85.0583 1420.95 84.722C1421.63 84.3895 1422.42 84.2287 1423.3 84.2395C1424.19 84.2505 1424.97 84.4325 1425.64 84.7855C1426.32 85.1423 1426.84 85.6431 1427.21 86.2878C1427.58 86.9326 1427.76 87.6963 1427.75 88.5788C1427.74 89.3401 1427.59 90.005 1427.31 90.5735C1427.02 91.142 1426.63 91.5898 1426.13 91.917C1425.62 92.2441 1425.03 92.4206 1424.36 92.4464L1424.39 90.1625C1424.82 90.1035 1425.18 89.9373 1425.45 89.6641C1425.72 89.3947 1425.86 89.0385 1425.86 88.5953C1425.87 88.2203 1425.77 87.8915 1425.57 87.6087C1425.37 87.3297 1425.08 87.1102 1424.7 86.9502C1424.31 86.7901 1423.85 86.7067 1423.3 86.6999C1422.74 86.6931 1422.27 86.763 1421.88 86.9097C1421.48 87.0602 1421.18 87.2743 1420.97 87.5521C1420.77 87.8298 1420.66 88.1562 1420.65 88.5311C1420.65 88.8076 1420.7 89.0564 1420.81 89.2775C1420.92 89.5024 1421.09 89.6881 1421.3 89.8347C1421.52 89.9851 1421.78 90.0849 1422.09 90.1341L1422.06 92.418C1421.39 92.3719 1420.8 92.1829 1420.3 91.8509C1419.8 91.5228 1419.41 91.0729 1419.14 90.5013C1418.86 89.9296 1418.73 89.2556 1418.74 88.4792ZM1418.84 93.9282L1427.56 94.0357L1427.53 96.4559L1424.14 96.4142L1424.13 97.0959L1427.49 99.5124L1427.45 102.353L1423.16 99.2148L1418.72 102.28L1418.76 99.4049L1421.89 97.2899L1421.9 96.3865L1418.8 96.3484L1418.84 93.9282ZM1415.41 104.897C1415.42 104.59 1415.44 104.302 1415.5 104.034C1415.55 103.77 1415.61 103.551 1415.68 103.377L1417.48 103.945C1417.39 104.228 1417.34 104.483 1417.33 104.71C1417.32 104.941 1417.37 105.141 1417.48 105.309C1417.59 105.48 1417.78 105.621 1418.05 105.731L1418.42 105.877L1427.44 102.857L1427.41 105.402L1420.97 107.13L1420.97 107.221L1427.35 109.124L1427.32 111.686L1417.7 108.175C1417.23 108.007 1416.82 107.78 1416.48 107.495C1416.13 107.215 1415.86 106.861 1415.68 106.434C1415.49 106.008 1415.4 105.495 1415.41 104.897ZM1418.36 116.477C1418.37 115.583 1418.57 114.816 1418.96 114.177C1419.35 113.542 1419.88 113.056 1420.57 112.719C1421.25 112.387 1422.03 112.226 1422.91 112.237C1423.81 112.248 1424.59 112.43 1425.26 112.783C1425.93 113.14 1426.45 113.64 1426.82 114.285C1427.2 114.93 1427.38 115.694 1427.37 116.576C1427.36 117.337 1427.21 118.002 1426.92 118.571C1426.64 119.139 1426.25 119.587 1425.74 119.914C1425.24 120.241 1424.65 120.418 1423.97 120.444L1424 118.16C1424.44 118.101 1424.79 117.935 1425.06 117.661C1425.33 117.392 1425.47 117.036 1425.48 116.593C1425.48 116.218 1425.39 115.889 1425.19 115.606C1424.99 115.327 1424.7 115.108 1424.31 114.948C1423.93 114.787 1423.46 114.704 1422.91 114.697C1422.36 114.69 1421.88 114.76 1421.49 114.907C1421.1 115.058 1420.8 115.272 1420.59 115.549C1420.38 115.827 1420.27 116.154 1420.27 116.529C1420.27 116.805 1420.32 117.054 1420.43 117.275C1420.54 117.5 1420.7 117.685 1420.92 117.832C1421.13 117.982 1421.4 118.082 1421.7 118.131L1421.67 120.415C1421 120.369 1420.42 120.18 1419.92 119.848C1419.42 119.52 1419.03 119.07 1418.75 118.499C1418.48 117.927 1418.34 117.253 1418.36 116.477ZM1418.23 125.866C1418.24 124.972 1418.44 124.206 1418.83 123.567C1419.22 122.931 1419.75 122.445 1420.44 122.109C1421.12 121.777 1421.9 121.616 1422.79 121.627C1423.68 121.638 1424.46 121.82 1425.13 122.173C1425.8 122.529 1426.32 123.03 1426.69 123.675C1427.07 124.32 1427.25 125.083 1427.24 125.966C1427.23 126.727 1427.08 127.392 1426.79 127.961C1426.51 128.529 1426.12 128.977 1425.61 129.304C1425.11 129.631 1424.52 129.808 1423.84 129.833L1423.87 127.55C1424.31 127.491 1424.66 127.324 1424.93 127.051C1425.2 126.782 1425.34 126.426 1425.35 125.982C1425.36 125.607 1425.26 125.279 1425.06 124.996C1424.86 124.717 1424.57 124.497 1424.19 124.337C1423.8 124.177 1423.33 124.094 1422.79 124.087C1422.23 124.08 1421.75 124.15 1421.36 124.297C1420.97 124.447 1420.67 124.661 1420.46 124.939C1420.25 125.217 1420.15 125.543 1420.14 125.918C1420.14 126.195 1420.19 126.444 1420.3 126.665C1420.41 126.889 1420.57 127.075 1420.79 127.222C1421.01 127.372 1421.27 127.472 1421.57 127.521L1421.54 129.805C1420.88 129.759 1420.29 129.57 1419.79 129.238C1419.29 128.91 1418.9 128.46 1418.62 127.888C1418.35 127.317 1418.22 126.643 1418.23 125.866ZM1425.15 130.804L1427.06 130.828L1426.95 138.736L1425.04 138.713L1425.08 135.9L1418.26 135.816L1418.29 133.51L1425.12 133.594L1425.15 130.804ZM1418.2 140.096L1426.93 140.203L1426.88 143.924C1426.86 145 1426.65 145.848 1426.23 146.468C1425.81 147.088 1425.22 147.393 1424.47 147.384C1424 147.378 1423.61 147.197 1423.3 146.841C1422.99 146.485 1422.78 145.993 1422.68 145.367C1422.64 145.889 1422.51 146.333 1422.3 146.698C1422.1 147.067 1421.84 147.346 1421.53 147.535C1421.21 147.728 1420.86 147.822 1420.48 147.817C1419.98 147.811 1419.56 147.674 1419.2 147.404C1418.85 147.138 1418.58 146.751 1418.4 146.241C1418.22 145.735 1418.13 145.118 1418.14 144.391L1418.2 140.096ZM1419.98 142.373L1419.95 144.413C1419.95 144.75 1420.03 145.014 1420.18 145.206C1420.34 145.401 1420.56 145.5 1420.84 145.504C1421.15 145.507 1421.4 145.414 1421.58 145.223C1421.76 145.036 1421.85 144.774 1421.86 144.437L1421.89 142.397L1419.98 142.373ZM1423.31 142.414L1423.29 143.931C1423.28 144.174 1423.31 144.381 1423.38 144.552C1423.45 144.727 1423.55 144.861 1423.68 144.953C1423.81 145.05 1423.97 145.099 1424.15 145.101C1424.42 145.104 1424.63 144.999 1424.79 144.785C1424.94 144.571 1425.02 144.277 1425.02 143.902L1425.04 142.436L1423.31 142.414ZM1417.85 153.254C1417.86 152.372 1418.06 151.611 1418.44 150.972C1418.83 150.336 1419.36 149.848 1420.04 149.508C1420.73 149.168 1421.51 149.004 1422.41 149.015C1423.31 149.026 1424.1 149.21 1424.77 149.566C1425.44 149.923 1425.96 150.424 1426.32 151.069C1426.69 151.717 1426.87 152.483 1426.86 153.365C1426.85 154.248 1426.65 155.007 1426.26 155.642C1425.88 156.281 1425.34 156.771 1424.66 157.111C1423.98 157.451 1423.19 157.616 1422.29 157.605C1421.4 157.594 1420.61 157.41 1419.94 157.053C1419.27 156.696 1418.75 156.194 1418.38 155.545C1418.02 154.9 1417.84 154.137 1417.85 153.254ZM1419.72 153.289C1419.72 153.69 1419.83 154.027 1420.05 154.299C1420.28 154.57 1420.59 154.777 1420.99 154.918C1421.38 155.063 1421.83 155.139 1422.34 155.145C1422.85 155.151 1423.3 155.087 1423.7 154.951C1424.1 154.82 1424.42 154.621 1424.65 154.355C1424.89 154.089 1425.01 153.755 1425.01 153.354C1425.02 152.949 1424.91 152.606 1424.68 152.327C1424.45 152.051 1424.14 151.841 1423.75 151.696C1423.35 151.555 1422.9 151.481 1422.39 151.475C1421.88 151.469 1421.43 151.531 1421.03 151.663C1420.63 151.798 1420.31 152 1420.08 152.27C1419.85 152.544 1419.73 152.883 1419.72 153.289Z"
          fill="#627387"/>
    <path d="M1671.56 91.0364L1671.53 93.1271L1663.6 93.0294L1663.6 93.1373L1671.45 98.7061L1671.43 100.598L1659.79 100.455L1659.82 98.3469L1667.75 98.4445L1667.75 98.3479L1659.9 92.7622L1659.92 90.8931L1671.56 91.0364ZM1659.54 106.465C1659.55 105.594 1659.75 104.848 1660.14 104.228C1660.54 103.611 1661.07 103.139 1661.75 102.81C1662.43 102.485 1663.21 102.328 1664.1 102.339C1664.98 102.35 1665.76 102.53 1666.44 102.879C1667.11 103.228 1667.64 103.716 1668.01 104.342C1668.38 104.971 1668.56 105.712 1668.55 106.564C1668.54 107.273 1668.4 107.898 1668.13 108.44C1667.87 108.986 1667.5 109.419 1667.02 109.739C1666.54 110.059 1665.99 110.238 1665.36 110.275L1665.39 108.31C1665.81 108.235 1666.16 108.05 1666.45 107.754C1666.74 107.463 1666.88 107.069 1666.89 106.572C1666.9 106.152 1666.79 105.781 1666.57 105.46C1666.35 105.139 1666.03 104.887 1665.61 104.704C1665.19 104.525 1664.69 104.431 1664.1 104.424C1663.51 104.417 1663 104.498 1662.57 104.667C1662.14 104.836 1661.81 105.076 1661.57 105.387C1661.34 105.703 1661.22 106.074 1661.22 106.502C1661.21 106.805 1661.26 107.077 1661.38 107.317C1661.49 107.561 1661.66 107.766 1661.87 107.931C1662.09 108.097 1662.36 108.212 1662.67 108.276L1662.64 110.242C1662.03 110.185 1661.48 109.997 1661.01 109.676C1660.54 109.356 1660.17 108.924 1659.91 108.379C1659.65 107.834 1659.53 107.196 1659.54 106.465ZM1666.68 111.347L1668.37 111.368L1668.27 119.004L1666.58 118.983L1666.62 116.159L1659.58 116.072L1659.61 114.084L1666.65 114.171L1666.68 111.347ZM1659.3 123.979C1659.31 123.127 1659.51 122.39 1659.89 121.77C1660.28 121.15 1660.81 120.671 1661.49 120.335C1662.17 120.002 1662.96 119.842 1663.86 119.853C1664.76 119.864 1665.55 120.044 1666.22 120.393C1666.89 120.746 1667.41 121.238 1667.78 121.867C1668.14 122.497 1668.32 123.238 1668.31 124.09C1668.3 124.942 1668.1 125.678 1667.72 126.298C1667.33 126.919 1666.8 127.395 1666.12 127.728C1665.44 128.064 1664.64 128.227 1663.74 128.216C1662.84 128.204 1662.05 128.022 1661.39 127.669C1660.72 127.32 1660.2 126.831 1659.83 126.201C1659.47 125.572 1659.29 124.831 1659.3 123.979ZM1660.95 124.01C1660.94 124.472 1661.06 124.86 1661.31 125.174C1661.57 125.488 1661.91 125.723 1662.34 125.88C1662.77 126.041 1663.25 126.124 1663.78 126.131C1664.31 126.137 1664.79 126.066 1665.23 125.916C1665.67 125.769 1666.02 125.543 1666.28 125.235C1666.54 124.928 1666.67 124.543 1666.68 124.081C1666.69 123.608 1666.56 123.212 1666.31 122.895C1666.06 122.581 1665.71 122.344 1665.28 122.183C1664.85 122.026 1664.37 121.944 1663.83 121.938C1663.3 121.931 1662.82 122.001 1662.39 122.147C1661.95 122.297 1661.61 122.526 1661.34 122.833C1661.09 123.145 1660.95 123.537 1660.95 124.01ZM1656.12 129.868L1668.12 130.015L1668.09 132.038L1666.64 132.02L1666.64 132.139C1666.85 132.248 1667.08 132.4 1667.31 132.597C1667.55 132.793 1667.76 133.057 1667.92 133.388C1668.09 133.72 1668.17 134.141 1668.17 134.653C1668.16 135.327 1667.98 135.933 1667.62 136.47C1667.27 137.011 1666.76 137.437 1666.09 137.747C1665.42 138.06 1664.6 138.211 1663.63 138.199C1662.67 138.187 1661.86 138.02 1661.19 137.698C1660.52 137.375 1660.02 136.941 1659.67 136.395C1659.33 135.849 1659.16 135.233 1659.17 134.548C1659.18 134.048 1659.27 133.634 1659.44 133.306C1659.61 132.979 1659.81 132.716 1660.05 132.518C1660.29 132.324 1660.52 132.174 1660.73 132.067L1660.74 131.981L1656.09 131.924L1656.12 129.868ZM1663.72 131.978C1663.16 131.971 1662.66 132.045 1662.24 132.199C1661.81 132.356 1661.48 132.585 1661.23 132.885C1661 133.189 1660.87 133.559 1660.87 133.995C1660.86 134.449 1660.98 134.831 1661.21 135.141C1661.46 135.451 1661.79 135.686 1662.21 135.846C1662.64 136.011 1663.12 136.096 1663.67 136.103C1664.21 136.11 1664.69 136.038 1665.11 135.888C1665.54 135.738 1665.87 135.511 1666.11 135.207C1666.35 134.903 1666.48 134.522 1666.49 134.064C1666.49 133.624 1666.38 133.25 1666.15 132.94C1665.93 132.631 1665.61 132.394 1665.19 132.229C1664.78 132.069 1664.29 131.985 1663.72 131.978ZM1662.01 141.924L1667.9 145.491L1667.87 147.605L1659.15 147.497L1659.17 145.509L1665.12 145.582L1659.22 142.026L1659.25 139.907L1667.98 140.014L1667.95 141.997L1662.01 141.924ZM1659.05 154.768L1666.1 154.855L1666.13 152.991C1666.14 152.518 1666.03 152.153 1665.81 151.896C1665.6 151.64 1665.33 151.511 1665 151.511C1664.68 151.503 1664.41 151.619 1664.19 151.859C1663.97 152.099 1663.86 152.444 1663.86 152.895L1663.82 155.474L1662.32 155.456L1662.36 152.877C1662.37 152.18 1662.49 151.579 1662.71 151.074C1662.94 150.569 1663.25 150.183 1663.66 149.915C1664.06 149.647 1664.54 149.517 1665.07 149.523C1665.63 149.53 1666.12 149.675 1666.53 149.956C1666.94 150.241 1667.26 150.643 1667.48 151.161C1667.7 151.683 1667.81 152.3 1667.8 153.012L1667.75 156.801L1659.02 156.694L1659.05 154.768ZM1659.12 149.132L1663.57 151.624L1663.54 153.653L1659.1 151.154L1659.12 149.132Z"
          fill="#4C687D"/>
    <path d="M1467.74 71.8375L1467.7 74.1896C1467.69 75.0986 1467.48 75.9029 1467.08 76.6026C1466.68 77.3023 1466.13 77.8485 1465.41 78.2413C1464.7 78.6341 1463.88 78.8246 1462.93 78.813C1462 78.8016 1461.2 78.5909 1460.51 78.1809C1459.82 77.7709 1459.29 77.2112 1458.91 76.502C1458.54 75.7928 1458.36 74.9837 1458.37 74.0747L1458.41 71.7226C1458.42 70.8099 1458.62 70.0017 1459.01 69.2981C1459.4 68.5983 1459.95 68.0519 1460.64 67.659C1461.34 67.2661 1462.16 67.0753 1463.08 67.0867C1464.03 67.0984 1464.85 67.3112 1465.55 67.7251C1466.26 68.1391 1466.8 68.7008 1467.18 69.41C1467.56 70.1232 1467.75 70.9323 1467.74 71.8375ZM1465.95 71.8156C1465.96 71.2626 1465.85 70.7821 1465.63 70.374C1465.41 69.9698 1465.09 69.6551 1464.65 69.4301C1464.22 69.2051 1463.69 69.0886 1463.06 69.0809C1462.45 69.0734 1461.94 69.1769 1461.51 69.3914C1461.09 69.6097 1460.76 69.9201 1460.54 70.3227C1460.31 70.7252 1460.2 71.1992 1460.19 71.7446L1460.16 74.1024C1460.15 74.6515 1460.25 75.1263 1460.47 75.5267C1460.69 75.931 1461 76.2436 1461.42 76.4647C1461.84 76.6896 1462.35 76.8057 1462.96 76.8132C1463.58 76.8209 1464.11 76.7175 1464.55 76.5032C1464.99 76.2927 1465.33 75.9881 1465.56 75.5894C1465.79 75.1945 1465.91 74.7225 1465.92 74.1733L1465.95 71.8156ZM1469.2 74.049L1456.89 73.8973L1456.92 71.8691L1469.23 72.0208L1469.2 74.049ZM1460.03 82.6753L1465.92 86.2424L1465.89 88.3559L1457.17 88.2484L1457.2 86.26L1463.14 86.3332L1457.24 82.7773L1457.27 80.6582L1466 80.7657L1465.97 82.7485L1460.03 82.6753ZM1457.15 89.7582L1458.84 89.7677L1458.84 90.0688C1458.83 90.2961 1458.88 90.488 1458.98 90.6445C1459.08 90.801 1459.25 90.9319 1459.49 91.0371C1459.73 91.1424 1460.05 91.2259 1460.46 91.2878C1460.87 91.3496 1461.38 91.3957 1461.99 91.4259L1465.85 91.6269L1465.76 97.9899L1457.04 97.8824L1457.06 95.894L1464.1 95.9807L1464.14 93.4752L1461.33 93.3043C1460.6 93.2612 1459.97 93.172 1459.44 93.0367C1458.91 92.9051 1458.47 92.7217 1458.13 92.4865C1457.79 92.255 1457.54 91.9658 1457.37 91.6191C1457.21 91.2723 1457.13 90.8642 1457.14 90.3945L1457.15 89.7582ZM1456.78 103.758C1456.8 102.905 1456.99 102.169 1457.38 101.549C1457.76 100.929 1458.29 100.45 1458.97 100.114C1459.65 99.7813 1460.44 99.6205 1461.34 99.6316C1462.24 99.6427 1463.03 99.8229 1463.7 100.172C1464.38 100.525 1464.9 101.016 1465.26 101.646C1465.63 102.276 1465.81 103.016 1465.79 103.869C1465.78 104.721 1465.59 105.457 1465.2 106.077C1464.82 106.698 1464.29 107.174 1463.6 107.507C1462.92 107.843 1462.13 108.006 1461.23 107.994C1460.33 107.983 1459.54 107.801 1458.87 107.448C1458.2 107.099 1457.68 106.61 1457.32 105.98C1456.95 105.351 1456.77 104.61 1456.78 103.758ZM1458.43 103.789C1458.43 104.251 1458.55 104.639 1458.8 104.953C1459.05 105.267 1459.39 105.502 1459.82 105.659C1460.25 105.819 1460.73 105.903 1461.26 105.91C1461.79 105.916 1462.28 105.844 1462.71 105.694C1463.15 105.548 1463.5 105.322 1463.76 105.014C1464.02 104.707 1464.16 104.322 1464.16 103.86C1464.17 103.386 1464.05 102.991 1463.79 102.673C1463.54 102.36 1463.2 102.122 1462.76 101.962C1462.33 101.805 1461.85 101.723 1461.32 101.717C1460.79 101.71 1460.31 101.78 1459.87 101.926C1459.44 102.076 1459.09 102.305 1458.83 102.612C1458.57 102.924 1458.44 103.316 1458.43 103.789ZM1456.65 113.491C1456.66 112.62 1456.86 111.874 1457.26 111.254C1457.65 110.638 1458.18 110.165 1458.86 109.836C1459.54 109.511 1460.33 109.354 1461.21 109.365C1462.09 109.376 1462.87 109.556 1463.55 109.905C1464.22 110.255 1464.75 110.742 1465.12 111.368C1465.49 111.998 1465.67 112.739 1465.66 113.591C1465.65 114.299 1465.51 114.924 1465.24 115.466C1464.98 116.012 1464.61 116.445 1464.13 116.765C1463.65 117.085 1463.1 117.264 1462.47 117.302L1462.5 115.336C1462.92 115.262 1463.28 115.077 1463.56 114.781C1463.85 114.489 1464 114.095 1464 113.599C1464.01 113.178 1463.9 112.808 1463.68 112.487C1463.46 112.166 1463.14 111.914 1462.72 111.73C1462.3 111.551 1461.8 111.458 1461.21 111.451C1460.62 111.443 1460.11 111.524 1459.68 111.693C1459.25 111.862 1458.92 112.102 1458.68 112.414C1458.45 112.729 1458.33 113.101 1458.33 113.529C1458.32 113.832 1458.38 114.103 1458.49 114.343C1458.6 114.587 1458.77 114.792 1458.98 114.957C1459.2 115.123 1459.47 115.238 1459.78 115.302L1459.75 117.268C1459.14 117.211 1458.59 117.023 1458.12 116.703C1457.65 116.382 1457.28 115.95 1457.02 115.405C1456.76 114.86 1456.64 114.222 1456.65 113.491ZM1456.52 122.725C1456.54 121.872 1456.73 121.136 1457.12 120.516C1457.5 119.895 1458.03 119.417 1458.71 119.081C1459.39 118.748 1460.18 118.587 1461.08 118.599C1461.98 118.61 1462.77 118.79 1463.44 119.139C1464.12 119.492 1464.64 119.983 1465 120.613C1465.37 121.242 1465.55 121.983 1465.53 122.836C1465.52 123.688 1465.33 124.424 1464.94 125.044C1464.56 125.665 1464.02 126.141 1463.34 126.474C1462.66 126.81 1461.87 126.973 1460.97 126.961C1460.06 126.95 1459.28 126.768 1458.61 126.415C1457.94 126.066 1457.42 125.577 1457.06 124.947C1456.69 124.318 1456.51 123.577 1456.52 122.725ZM1458.17 122.756C1458.16 123.218 1458.29 123.606 1458.54 123.92C1458.79 124.234 1459.13 124.469 1459.56 124.626C1459.99 124.786 1460.47 124.87 1461 124.876C1461.53 124.883 1462.02 124.811 1462.45 124.661C1462.89 124.515 1463.24 124.288 1463.5 123.981C1463.76 123.674 1463.9 123.289 1463.9 122.827C1463.91 122.353 1463.79 121.958 1463.53 121.64C1463.28 121.327 1462.94 121.089 1462.5 120.929C1462.07 120.772 1461.59 120.69 1461.06 120.684C1460.53 120.677 1460.05 120.747 1459.61 120.893C1459.18 121.043 1458.83 121.272 1458.57 121.579C1458.31 121.89 1458.18 122.283 1458.17 122.756ZM1453.59 132.577L1468.19 132.757L1468.17 134.819L1453.56 134.639L1453.59 132.577ZM1456.39 132.611C1456.4 131.971 1456.51 131.388 1456.74 130.86C1456.96 130.332 1457.27 129.878 1457.68 129.496C1458.08 129.119 1458.56 128.827 1459.11 128.622C1459.66 128.42 1460.28 128.324 1460.95 128.332C1461.62 128.34 1462.23 128.452 1462.78 128.667C1463.33 128.886 1463.8 129.189 1464.19 129.577C1464.59 129.968 1464.89 130.43 1465.1 130.963C1465.31 131.496 1465.41 132.082 1465.4 132.722L1465.39 133.16L1456.38 133.049L1456.39 132.611ZM1458.05 132.632L1458.04 132.888L1463.74 132.958L1463.74 132.702C1463.74 132.338 1463.67 132.016 1463.53 131.733C1463.38 131.455 1463.18 131.22 1462.92 131.027C1462.66 130.838 1462.36 130.692 1462.01 130.59C1461.67 130.491 1461.31 130.439 1460.92 130.434C1460.4 130.428 1459.92 130.507 1459.49 130.672C1459.06 130.837 1458.71 131.083 1458.45 131.409C1458.19 131.74 1458.05 132.147 1458.05 132.632ZM1456.36 134.674L1456.37 134.236L1465.38 134.347L1465.37 134.785C1465.36 135.425 1465.25 136.009 1465.02 136.536C1464.8 137.064 1464.48 137.516 1464.08 137.894C1463.67 138.275 1463.19 138.567 1462.64 138.768C1462.08 138.974 1461.47 139.072 1460.8 139.064C1460.13 139.056 1459.52 138.942 1458.97 138.723C1458.42 138.508 1457.95 138.205 1457.56 137.814C1457.17 137.426 1456.87 136.966 1456.66 136.433C1456.45 135.9 1456.35 135.314 1456.36 134.674ZM1458.02 134.694C1458.01 135.062 1458.08 135.384 1458.23 135.663C1458.37 135.941 1458.57 136.175 1458.83 136.363C1459.09 136.556 1459.39 136.702 1459.73 136.801C1460.07 136.9 1460.44 136.951 1460.83 136.956C1461.35 136.963 1461.82 136.885 1462.26 136.724C1462.69 136.562 1463.04 136.317 1463.3 135.987C1463.57 135.66 1463.7 135.253 1463.71 134.764L1463.71 134.509L1458.02 134.439L1458.02 134.694ZM1459.2 142.763L1465.1 146.331L1465.07 148.444L1456.34 148.336L1456.37 146.348L1462.32 146.421L1456.42 142.865L1456.45 140.746L1465.17 140.854L1465.15 142.837L1459.2 142.763ZM1456.24 155.607L1463.3 155.694L1463.32 153.831C1463.33 153.357 1463.23 152.992 1463.01 152.736C1462.79 152.479 1462.52 152.351 1462.2 152.351C1461.87 152.343 1461.6 152.459 1461.39 152.699C1461.17 152.938 1461.06 153.284 1461.05 153.734L1461.02 156.314L1459.52 156.295L1459.55 153.716C1459.56 153.019 1459.68 152.418 1459.91 151.913C1460.13 151.409 1460.45 151.022 1460.85 150.754C1461.26 150.487 1461.73 150.356 1462.27 150.363C1462.83 150.37 1463.31 150.514 1463.72 150.795C1464.14 151.081 1464.45 151.483 1464.67 152C1464.9 152.522 1465 153.139 1464.99 153.851L1464.94 157.641L1456.22 157.533L1456.24 155.607ZM1456.32 149.971L1460.76 152.464L1460.74 154.492L1456.29 151.994L1456.32 149.971Z"
          fill="#DCDFF0"/>
    <ellipse cx="1496.69" cy="33.1982" rx="7.95277" ry="4.4589" fill="#C8D1D7"/>
    <rect width="15.0866" height="0.975294" transform="matrix(0.961749 0.273933 -0.303277 0.952902 1338.87 76.4414)" fill="white"/>
    <rect width="14.8908" height="1.01128" transform="matrix(0.961749 0.273933 -0.303277 0.952902 1340.09 72.5703)" fill="white"/>
    <rect width="14.8908" height="1.01128" transform="matrix(0.961749 0.273933 -0.303277 0.952902 1341.33 68.6992)" fill="white"/>
    <path d="M1677.61 31.2881L1685.96 34.228V44.0278L1676.42 34.228L1677.61 31.2881Z" fill="#3B5364"/>
</svg>
