<svg width="1920" height="215" viewBox="0 0 1920 215" fill="none" xmlns="http://www.w3.org/2000/svg">
    <rect width="1920" height="215" fill="white"/>
    <rect x="331" y="84" width="123" height="63" fill="#335B7F"/>
    <path d="M133.813 140V92H139.625V113.375H165.219V92H171.031V140H165.219V118.531H139.625V140H133.813ZM192.512 140.844C190.23 140.844 188.16 140.414 186.301 139.555C184.441 138.68 182.965 137.422 181.871 135.781C180.777 134.125 180.23 132.125 180.23 129.781C180.23 127.719 180.637 126.047 181.449 124.766C182.262 123.469 183.348 122.453 184.707 121.719C186.066 120.984 187.566 120.437 189.207 120.078C190.863 119.703 192.527 119.406 194.199 119.188C196.387 118.906 198.16 118.695 199.52 118.555C200.895 118.398 201.895 118.141 202.52 117.781C203.16 117.422 203.48 116.797 203.48 115.906V115.719C203.48 113.406 202.848 111.609 201.582 110.328C200.332 109.047 198.434 108.406 195.887 108.406C193.246 108.406 191.176 108.984 189.676 110.141C188.176 111.297 187.121 112.531 186.512 113.844L181.262 111.969C182.199 109.781 183.449 108.078 185.012 106.859C186.59 105.625 188.309 104.766 190.168 104.281C192.043 103.781 193.887 103.531 195.699 103.531C196.855 103.531 198.184 103.672 199.684 103.953C201.199 104.219 202.66 104.773 204.066 105.617C205.488 106.461 206.668 107.734 207.605 109.437C208.543 111.141 209.012 113.422 209.012 116.281V140H203.48V135.125H203.199C202.824 135.906 202.199 136.742 201.324 137.633C200.449 138.523 199.285 139.281 197.832 139.906C196.379 140.531 194.605 140.844 192.512 140.844ZM193.355 135.875C195.543 135.875 197.387 135.445 198.887 134.586C200.402 133.727 201.543 132.617 202.309 131.258C203.09 129.898 203.48 128.469 203.48 126.969V121.906C203.246 122.187 202.73 122.445 201.934 122.68C201.152 122.898 200.246 123.094 199.215 123.266C198.199 123.422 197.207 123.562 196.238 123.687C195.285 123.797 194.512 123.891 193.918 123.969C192.48 124.156 191.137 124.461 189.887 124.883C188.652 125.289 187.652 125.906 186.887 126.734C186.137 127.547 185.762 128.656 185.762 130.062C185.762 131.984 186.473 133.437 187.895 134.422C189.332 135.391 191.152 135.875 193.355 135.875ZM214.209 109.156V104H243.459V109.156H231.646V140H226.115V109.156H214.209ZM260.252 140.844C257.971 140.844 255.9 140.414 254.041 139.555C252.182 138.68 250.705 137.422 249.611 135.781C248.518 134.125 247.971 132.125 247.971 129.781C247.971 127.719 248.377 126.047 249.189 124.766C250.002 123.469 251.088 122.453 252.447 121.719C253.807 120.984 255.307 120.437 256.947 120.078C258.604 119.703 260.268 119.406 261.939 119.188C264.127 118.906 265.9 118.695 267.26 118.555C268.635 118.398 269.635 118.141 270.26 117.781C270.9 117.422 271.221 116.797 271.221 115.906V115.719C271.221 113.406 270.588 111.609 269.322 110.328C268.072 109.047 266.174 108.406 263.627 108.406C260.986 108.406 258.916 108.984 257.416 110.141C255.916 111.297 254.861 112.531 254.252 113.844L249.002 111.969C249.939 109.781 251.189 108.078 252.752 106.859C254.33 105.625 256.049 104.766 257.908 104.281C259.783 103.781 261.627 103.531 263.439 103.531C264.596 103.531 265.924 103.672 267.424 103.953C268.939 104.219 270.4 104.773 271.807 105.617C273.229 106.461 274.408 107.734 275.346 109.437C276.283 111.141 276.752 113.422 276.752 116.281V140H271.221V135.125H270.939C270.564 135.906 269.939 136.742 269.064 137.633C268.189 138.523 267.025 139.281 265.572 139.906C264.119 140.531 262.346 140.844 260.252 140.844ZM261.096 135.875C263.283 135.875 265.127 135.445 266.627 134.586C268.143 133.727 269.283 132.617 270.049 131.258C270.83 129.898 271.221 128.469 271.221 126.969V121.906C270.986 122.187 270.471 122.445 269.674 122.68C268.893 122.898 267.986 123.094 266.955 123.266C265.939 123.422 264.947 123.562 263.979 123.687C263.025 123.797 262.252 123.891 261.658 123.969C260.221 124.156 258.877 124.461 257.627 124.883C256.393 125.289 255.393 125.906 254.627 126.734C253.877 127.547 253.502 128.656 253.502 130.062C253.502 131.984 254.213 133.437 255.635 134.422C257.072 135.391 258.893 135.875 261.096 135.875ZM281.949 109.156V104H311.199V109.156H299.387V140H293.855V109.156H281.949Z"
          fill="#345B80"/>
    <path d="M361.924 119.469V124.625H342.049V119.469H361.924ZM343.361 104V140H337.83V104H343.361ZM366.143 104V140H360.611V104H366.143ZM376.244 140V104H381.775V140H376.244ZM379.057 98C377.979 98 377.049 97.6328 376.268 96.8984C375.502 96.1641 375.119 95.2813 375.119 94.25C375.119 93.2188 375.502 92.3359 376.268 91.6016C377.049 90.8672 377.979 90.5 379.057 90.5C380.135 90.5 381.057 90.8672 381.822 91.6016C382.604 92.3359 382.994 93.2188 382.994 94.25C382.994 95.2813 382.604 96.1641 381.822 96.8984C381.057 97.6328 380.135 98 379.057 98ZM391.906 140V104H397.438V119.656H401.094L414.031 104H421.156L406.625 121.344L421.344 140H414.219L402.406 124.812H397.438V140H391.906Z"
          fill="white"/>
    <path d="M523.114 76.7287V73.6364H539.361V76.7287H533.067V94H529.408V76.7287H523.114ZM540.748 94V78.7273H547.161C548.971 78.7273 550.399 79.0885 551.447 79.8111C552.501 80.5336 553.028 81.5412 553.028 82.8338C553.028 83.6889 552.729 84.3883 552.133 84.9318C551.543 85.4687 550.737 85.83 549.717 86.0156C550.519 86.0819 551.221 86.2841 551.825 86.6222C552.434 86.9602 552.912 87.4044 553.256 87.9545C553.601 88.5047 553.773 89.1378 553.773 89.8537C553.773 90.6955 553.551 91.428 553.107 92.0511C552.67 92.6676 552.03 93.1482 551.188 93.4929C550.353 93.831 549.339 94 548.146 94H540.748ZM544.119 91.1662H548.146C548.808 91.1662 549.329 91.0104 549.707 90.6989C550.085 90.3807 550.273 89.9498 550.273 89.4062C550.273 88.7765 550.085 88.2827 549.707 87.9247C549.329 87.5601 548.808 87.3778 548.146 87.3778H544.119V91.1662ZM544.119 85.0511H547.231C547.721 85.0511 548.142 84.9815 548.494 84.8423C548.845 84.6965 549.113 84.4943 549.299 84.2358C549.485 83.9706 549.577 83.6558 549.577 83.2912C549.577 82.7675 549.362 82.3565 548.931 82.0582C548.507 81.7599 547.917 81.6108 547.161 81.6108H544.119V85.0511ZM561.139 94.3082C560.171 94.3082 559.299 94.1359 558.524 93.7912C557.755 93.4399 557.145 92.9228 556.694 92.2401C556.25 91.5573 556.028 90.7154 556.028 89.7145C556.028 88.8527 556.187 88.1402 556.505 87.5767C556.824 87.0133 557.258 86.5625 557.808 86.2244C558.358 85.8864 558.978 85.6312 559.667 85.4588C560.363 85.2798 561.083 85.1506 561.825 85.071C562.72 84.9782 563.446 84.8954 564.002 84.8224C564.559 84.7429 564.964 84.6236 565.216 84.4645C565.474 84.2988 565.603 84.0436 565.603 83.6989V83.6392C565.603 82.8902 565.381 82.3101 564.937 81.8991C564.493 81.4882 563.853 81.2827 563.018 81.2827C562.136 81.2827 561.437 81.4749 560.92 81.8594C560.41 82.2438 560.065 82.6979 559.886 83.2216L556.525 82.7443C556.79 81.8163 557.228 81.0407 557.838 80.4176C558.448 79.7879 559.193 79.3172 560.075 79.0057C560.957 78.6875 561.931 78.5284 562.998 78.5284C563.734 78.5284 564.467 78.6146 565.196 78.7869C565.925 78.9593 566.591 79.2443 567.194 79.642C567.797 80.0331 568.281 80.5668 568.646 81.2429C569.017 81.919 569.203 82.7642 569.203 83.7784V94H565.743V91.902H565.623C565.404 92.3262 565.096 92.724 564.699 93.0952C564.307 93.4598 563.814 93.7547 563.217 93.9801C562.627 94.1989 561.934 94.3082 561.139 94.3082ZM562.074 91.6634C562.796 91.6634 563.422 91.5208 563.953 91.2358C564.483 90.9441 564.891 90.5597 565.176 90.0824C565.467 89.6051 565.613 89.0848 565.613 88.5213V86.7216C565.501 86.8144 565.308 86.9006 565.037 86.9801C564.771 87.0597 564.473 87.1293 564.142 87.1889C563.81 87.2486 563.482 87.3016 563.157 87.348C562.833 87.3944 562.551 87.4342 562.312 87.4673C561.775 87.5402 561.295 87.6596 560.87 87.8253C560.446 87.991 560.111 88.223 559.866 88.5213C559.621 88.813 559.498 89.1908 559.498 89.6548C559.498 90.3177 559.74 90.8182 560.224 91.1562C560.708 91.4943 561.324 91.6634 562.074 91.6634ZM581.85 94V81.6506H578.589C577.761 81.6506 577.124 81.8428 576.68 82.2273C576.236 82.6117 576.017 83.089 576.024 83.6591C576.017 84.2292 576.226 84.6998 576.65 85.071C577.074 85.4422 577.681 85.6278 578.47 85.6278H582.984V88.2528H578.47C577.25 88.2528 576.196 88.0606 575.308 87.6761C574.42 87.2917 573.737 86.7481 573.26 86.0455C572.782 85.3428 572.544 84.5208 572.544 83.5795C572.544 82.5985 572.786 81.7467 573.27 81.0241C573.76 80.295 574.456 79.7315 575.358 79.3338C576.266 78.9295 577.343 78.7273 578.589 78.7273H585.221V94H581.85ZM571.987 94L576.252 86.1648H579.802L575.527 94H571.987ZM608.031 73.0795L609.284 75.4062C608.84 75.7907 608.342 76.0691 607.792 76.2415C607.242 76.4138 606.596 76.5265 605.853 76.5795C605.118 76.6259 604.243 76.6591 603.228 76.679C602.088 76.7055 601.157 76.9209 600.434 77.3253C599.712 77.7296 599.158 78.3428 598.774 79.1648C598.389 79.9801 598.137 81.0208 598.018 82.2869H598.187C598.664 81.3523 599.334 80.6397 600.196 80.1491C601.057 79.6586 602.068 79.4134 603.228 79.4134C604.494 79.4134 605.611 79.6984 606.579 80.2685C607.554 80.8319 608.313 81.6506 608.856 82.7244C609.406 83.7983 609.681 85.0975 609.681 86.6222C609.681 88.1932 609.386 89.5554 608.797 90.7088C608.207 91.8556 607.368 92.7405 606.281 93.3636C605.2 93.9867 603.918 94.2983 602.433 94.2983C600.955 94.2983 599.669 93.9768 598.575 93.3338C597.488 92.6842 596.646 91.7263 596.049 90.4602C595.459 89.1875 595.164 87.6198 595.164 85.7571V84.3849C595.164 80.7921 595.834 78.1108 597.173 76.3409C598.512 74.571 600.497 73.6695 603.129 73.6364C603.911 73.6231 604.61 73.6198 605.227 73.6264C605.85 73.633 606.394 73.6032 606.858 73.5369C607.322 73.4706 607.713 73.3182 608.031 73.0795ZM602.453 91.4148C603.189 91.4148 603.825 91.2259 604.362 90.848C604.899 90.4635 605.31 89.92 605.595 89.2173C605.886 88.5147 606.032 87.6828 606.032 86.7216C606.032 85.7737 605.886 84.9683 605.595 84.3054C605.303 83.6359 604.889 83.1255 604.352 82.7741C603.815 82.4228 603.175 82.2472 602.433 82.2472C601.876 82.2472 601.376 82.3466 600.931 82.5455C600.487 82.7443 600.109 83.036 599.798 83.4205C599.486 83.8049 599.248 84.2723 599.082 84.8224C598.916 85.3726 598.827 86.0057 598.814 86.7216C598.814 88.16 599.138 89.3035 599.788 90.152C600.438 90.9938 601.326 91.4148 602.453 91.4148ZM616.214 89.1278L622.329 78.7273H626.028V94H622.548V83.5895L616.453 94H612.744V78.7273H616.214V89.1278ZM641.964 73.0795L643.217 75.4062C642.773 75.7907 642.276 76.0691 641.726 76.2415C641.176 76.4138 640.529 76.5265 639.787 76.5795C639.051 76.6259 638.176 76.6591 637.162 76.679C636.022 76.7055 635.09 76.9209 634.368 77.3253C633.645 77.7296 633.092 78.3428 632.707 79.1648C632.323 79.9801 632.071 81.0208 631.952 82.2869H632.121C632.598 81.3523 633.268 80.6397 634.129 80.1491C634.991 79.6586 636.002 79.4134 637.162 79.4134C638.428 79.4134 639.545 79.6984 640.513 80.2685C641.487 80.8319 642.246 81.6506 642.79 82.7244C643.34 83.7983 643.615 85.0975 643.615 86.6222C643.615 88.1932 643.32 89.5554 642.73 90.7088C642.14 91.8556 641.302 92.7405 640.214 93.3636C639.134 93.9867 637.851 94.2983 636.366 94.2983C634.888 94.2983 633.602 93.9768 632.509 93.3338C631.421 92.6842 630.58 91.7263 629.983 90.4602C629.393 89.1875 629.098 87.6198 629.098 85.7571V84.3849C629.098 80.7921 629.768 78.1108 631.107 76.3409C632.446 74.571 634.431 73.6695 637.062 73.6364C637.845 73.6231 638.544 73.6198 639.161 73.6264C639.784 73.633 640.327 73.6032 640.791 73.5369C641.255 73.4706 641.646 73.3182 641.964 73.0795ZM636.386 91.4148C637.122 91.4148 637.759 91.2259 638.295 90.848C638.832 90.4635 639.243 89.92 639.528 89.2173C639.82 88.5147 639.966 87.6828 639.966 86.7216C639.966 85.7737 639.82 84.9683 639.528 84.3054C639.237 83.6359 638.822 83.1255 638.286 82.7741C637.749 82.4228 637.109 82.2472 636.366 82.2472C635.81 82.2472 635.309 82.3466 634.865 82.5455C634.421 82.7443 634.043 83.036 633.732 83.4205C633.42 83.8049 633.181 84.2723 633.016 84.8224C632.85 85.3726 632.76 86.0057 632.747 86.7216C632.747 88.16 633.072 89.3035 633.722 90.152C634.371 90.9938 635.259 91.4148 636.386 91.4148ZM645.624 94L645.604 91.0369H646.131C646.528 91.0369 646.863 90.9474 647.135 90.7685C647.407 90.5895 647.632 90.2912 647.811 89.8736C647.99 89.4493 648.129 88.8793 648.229 88.1634C648.328 87.4474 648.398 86.5559 648.438 85.4886L648.706 78.7273H659.842V94H656.362V81.6804H651.977L651.739 86.6023C651.679 87.875 651.536 88.9787 651.311 89.9134C651.092 90.8414 650.781 91.607 650.376 92.2102C649.979 92.8134 649.478 93.2642 648.875 93.5625C648.272 93.8542 647.559 94 646.737 94H645.624ZM663.467 94V78.7273H667.066V94H663.467ZM665.276 76.5597C664.706 76.5597 664.216 76.3707 663.805 75.9929C663.394 75.6084 663.188 75.1477 663.188 74.6108C663.188 74.0672 663.394 73.6065 663.805 73.2287C664.216 72.8442 664.706 72.652 665.276 72.652C665.853 72.652 666.344 72.8442 666.748 73.2287C667.159 73.6065 667.364 74.0672 667.364 74.6108C667.364 75.1477 667.159 75.6084 666.748 75.9929C666.344 76.3707 665.853 76.5597 665.276 76.5597ZM679.796 94V81.6506H676.534C675.706 81.6506 675.069 81.8428 674.625 82.2273C674.181 82.6117 673.962 83.089 673.969 83.6591C673.962 84.2292 674.171 84.6998 674.596 85.071C675.02 85.4422 675.626 85.6278 676.415 85.6278H680.929V88.2528H676.415C675.195 88.2528 674.141 88.0606 673.253 87.6761C672.365 87.2917 671.682 86.7481 671.205 86.0455C670.728 85.3428 670.489 84.5208 670.489 83.5795C670.489 82.5985 670.731 81.7467 671.215 81.0241C671.705 80.295 672.401 79.7315 673.303 79.3338C674.211 78.9295 675.288 78.7273 676.534 78.7273H683.167V94H679.796ZM669.932 94L674.198 86.1648H677.748L673.472 94H669.932ZM685.081 81.6804V78.7273H698.444V81.6804H693.502V94H690.022V81.6804H685.081ZM706.759 81.4915C706.255 81.4981 705.791 81.6075 705.367 81.8196C704.943 82.0317 704.602 82.3201 704.343 82.6847C704.091 83.0426 703.965 83.4602 703.965 83.9375H700.654C700.654 83.1686 700.813 82.4527 701.131 81.7898C701.45 81.1269 701.887 80.5502 702.444 80.0597C703.007 79.5691 703.657 79.188 704.393 78.9162C705.135 78.6378 705.924 78.4986 706.759 78.4986C708.244 78.4986 709.497 78.8433 710.518 79.5327C711.545 80.2221 712.321 81.1501 712.844 82.3168C713.375 83.4768 713.64 84.7628 713.64 86.1747V86.6023C713.64 88.0142 713.378 89.3035 712.854 90.4702C712.331 91.6302 711.555 92.5549 710.528 93.2443C709.507 93.9337 708.251 94.2784 706.759 94.2784C705.566 94.2784 704.509 94.0365 703.587 93.5526C702.673 93.062 701.953 92.3793 701.43 91.5043C700.913 90.6293 700.654 89.6084 700.654 88.4418H703.965C703.965 88.9455 704.085 89.4129 704.323 89.8438C704.562 90.268 704.89 90.6094 705.308 90.8679C705.732 91.1264 706.216 91.259 706.759 91.2656C707.575 91.259 708.231 91.017 708.728 90.5398C709.232 90.0625 709.596 89.4659 709.822 88.75C710.054 88.0341 710.17 87.3182 710.17 86.6023V86.1747C710.17 85.4058 710.054 84.6667 709.822 83.9574C709.596 83.2415 709.232 82.6548 708.728 82.1974C708.231 81.7334 707.575 81.4981 706.759 81.4915ZM711.293 85.1506V87.5369H705.477V85.1506H711.293ZM716.678 94V78.7273H720.277V84.892H721.589L726.183 78.7273H730.518L724.861 86.2244L730.578 94H726.223L722.037 88.2429H720.277V94H716.678ZM737.014 94.3082C736.046 94.3082 735.174 94.1359 734.399 93.7912C733.63 93.4399 733.02 92.9228 732.569 92.2401C732.125 91.5573 731.903 90.7154 731.903 89.7145C731.903 88.8527 732.062 88.1402 732.38 87.5767C732.699 87.0133 733.133 86.5625 733.683 86.2244C734.233 85.8864 734.853 85.6312 735.542 85.4588C736.238 85.2798 736.958 85.1506 737.7 85.071C738.595 84.9782 739.321 84.8954 739.877 84.8224C740.434 84.7429 740.839 84.6236 741.091 84.4645C741.349 84.2988 741.478 84.0436 741.478 83.6989V83.6392C741.478 82.8902 741.256 82.3101 740.812 81.8991C740.368 81.4882 739.728 81.2827 738.893 81.2827C738.011 81.2827 737.312 81.4749 736.795 81.8594C736.285 82.2438 735.94 82.6979 735.761 83.2216L732.4 82.7443C732.665 81.8163 733.103 81.0407 733.713 80.4176C734.323 79.7879 735.068 79.3172 735.95 79.0057C736.832 78.6875 737.806 78.5284 738.873 78.5284C739.609 78.5284 740.342 78.6146 741.071 78.7869C741.8 78.9593 742.466 79.2443 743.069 79.642C743.672 80.0331 744.156 80.5668 744.521 81.2429C744.892 81.919 745.078 82.7642 745.078 83.7784V94H741.618V91.902H741.498C741.279 92.3262 740.971 92.724 740.574 93.0952C740.182 93.4598 739.689 93.7547 739.092 93.9801C738.502 94.1989 737.809 94.3082 737.014 94.3082ZM737.949 91.6634C738.671 91.6634 739.297 91.5208 739.828 91.2358C740.358 90.9441 740.766 90.5597 741.051 90.0824C741.342 89.6051 741.488 89.0848 741.488 88.5213V86.7216C741.376 86.8144 741.183 86.9006 740.912 86.9801C740.646 87.0597 740.348 87.1293 740.017 87.1889C739.685 87.2486 739.357 87.3016 739.032 87.348C738.708 87.3944 738.426 87.4342 738.187 87.4673C737.65 87.5402 737.17 87.6596 736.745 87.8253C736.321 87.991 735.986 88.223 735.741 88.5213C735.496 88.813 735.373 89.1908 735.373 89.6548C735.373 90.3177 735.615 90.8182 736.099 91.1562C736.583 91.4943 737.199 91.6634 737.949 91.6634ZM768.539 78.7273V91.3153H770.875V98.9119H767.355V94H755.642V78.7273H759.113V91.0469H765.098V78.7273H768.539ZM776.262 83.6989H780.766C782.715 83.6989 784.223 84.1728 785.29 85.1207C786.358 86.0687 786.895 87.3116 786.901 88.8494C786.895 89.8504 786.649 90.7386 786.165 91.5142C785.688 92.2898 784.992 92.8996 784.077 93.3438C783.169 93.7812 782.066 94 780.766 94H773.826V78.7273H777.296V91.0469H780.766C781.549 91.0469 782.192 90.848 782.695 90.4503C783.199 90.0459 783.451 89.5289 783.451 88.8991C783.451 88.2363 783.199 87.696 782.695 87.2784C782.192 86.8608 781.549 86.652 780.766 86.652H776.262V83.6989ZM788.8 94V78.7273H792.4V94H788.8ZM795.276 81.6804V78.7273H808.64V81.6804H803.698V94H800.218V81.6804H795.276ZM815.272 94.3082C814.304 94.3082 813.432 94.1359 812.657 93.7912C811.888 93.4399 811.278 92.9228 810.827 92.2401C810.383 91.5573 810.161 90.7154 810.161 89.7145C810.161 88.8527 810.32 88.1402 810.638 87.5767C810.956 87.0133 811.391 86.5625 811.941 86.2244C812.491 85.8864 813.111 85.6312 813.8 85.4588C814.496 85.2798 815.215 85.1506 815.958 85.071C816.853 84.9782 817.578 84.8954 818.135 84.8224C818.692 84.7429 819.096 84.6236 819.348 84.4645C819.607 84.2988 819.736 84.0436 819.736 83.6989V83.6392C819.736 82.8902 819.514 82.3101 819.07 81.8991C818.626 81.4882 817.986 81.2827 817.151 81.2827C816.269 81.2827 815.57 81.4749 815.053 81.8594C814.542 82.2438 814.198 82.6979 814.019 83.2216L810.658 82.7443C810.923 81.8163 811.361 81.0407 811.971 80.4176C812.58 79.7879 813.326 79.3172 814.208 79.0057C815.089 78.6875 816.064 78.5284 817.131 78.5284C817.867 78.5284 818.599 78.6146 819.328 78.7869C820.058 78.9593 820.724 79.2443 821.327 79.642C821.93 80.0331 822.414 80.5668 822.779 81.2429C823.15 81.919 823.336 82.7642 823.336 83.7784V94H819.875V91.902H819.756C819.537 92.3262 819.229 92.724 818.831 93.0952C818.44 93.4598 817.946 93.7547 817.35 93.9801C816.76 94.1989 816.067 94.3082 815.272 94.3082ZM816.206 91.6634C816.929 91.6634 817.555 91.5208 818.086 91.2358C818.616 90.9441 819.024 90.5597 819.309 90.0824C819.6 89.6051 819.746 89.0848 819.746 88.5213V86.7216C819.633 86.8144 819.441 86.9006 819.169 86.9801C818.904 87.0597 818.606 87.1293 818.275 87.1889C817.943 87.2486 817.615 87.3016 817.29 87.348C816.965 87.3944 816.684 87.4342 816.445 87.4673C815.908 87.5402 815.427 87.6596 815.003 87.8253C814.579 87.991 814.244 88.223 813.999 88.5213C813.754 88.813 813.631 89.1908 813.631 89.6548C813.631 90.3177 813.873 90.8182 814.357 91.1562C814.841 91.4943 815.457 91.6634 816.206 91.6634ZM825.245 81.6804V78.7273H838.608V81.6804H833.667V94H830.186V81.6804H825.245Z"
          fill="#335B7F"/>
    <path d="M528.42 135.199C527.483 135.199 526.647 135.038 525.913 134.716C525.184 134.394 524.604 133.946 524.173 133.374C523.747 132.796 523.515 132.126 523.477 131.364H525.267C525.305 131.832 525.466 132.237 525.75 132.578C526.034 132.914 526.406 133.175 526.865 133.359C527.324 133.544 527.833 133.636 528.392 133.636C529.017 133.636 529.571 133.527 530.054 133.31C530.537 133.092 530.916 132.789 531.19 132.401C531.465 132.012 531.602 131.562 531.602 131.051C531.602 130.516 531.47 130.045 531.205 129.638C530.939 129.226 530.551 128.904 530.04 128.672C529.528 128.44 528.903 128.324 528.165 128.324H527V126.761H528.165C528.742 126.761 529.249 126.657 529.685 126.449C530.125 126.241 530.468 125.947 530.714 125.568C530.965 125.189 531.091 124.744 531.091 124.233C531.091 123.741 530.982 123.312 530.764 122.947C530.546 122.583 530.239 122.299 529.841 122.095C529.448 121.892 528.984 121.79 528.449 121.79C527.947 121.79 527.473 121.882 527.028 122.067C526.588 122.247 526.228 122.509 525.949 122.855C525.67 123.196 525.518 123.608 525.494 124.091H523.79C523.818 123.329 524.048 122.661 524.479 122.088C524.91 121.51 525.473 121.061 526.169 120.739C526.87 120.417 527.639 120.256 528.477 120.256C529.377 120.256 530.149 120.438 530.793 120.803C531.437 121.162 531.931 121.638 532.277 122.23C532.623 122.822 532.795 123.461 532.795 124.148C532.795 124.967 532.58 125.665 532.149 126.243C531.723 126.821 531.143 127.221 530.409 127.443V127.557C531.328 127.708 532.045 128.099 532.561 128.729C533.077 129.354 533.335 130.128 533.335 131.051C533.335 131.842 533.12 132.552 532.689 133.182C532.263 133.807 531.68 134.299 530.942 134.659C530.203 135.019 529.363 135.199 528.42 135.199ZM539.479 135.256C538.787 135.256 538.16 135.125 537.597 134.865C537.033 134.6 536.586 134.219 536.254 133.722C535.923 133.22 535.757 132.614 535.757 131.903C535.757 131.278 535.88 130.772 536.126 130.384C536.373 129.991 536.702 129.683 537.114 129.46C537.526 129.238 537.98 129.072 538.477 128.963C538.979 128.849 539.483 128.759 539.99 128.693C540.653 128.608 541.19 128.544 541.602 128.501C542.019 128.454 542.322 128.376 542.511 128.267C542.705 128.158 542.803 127.969 542.803 127.699V127.642C542.803 126.941 542.611 126.397 542.227 126.009C541.848 125.62 541.273 125.426 540.501 125.426C539.701 125.426 539.074 125.601 538.619 125.952C538.165 126.302 537.845 126.676 537.661 127.074L536.07 126.506C536.354 125.843 536.732 125.327 537.206 124.957C537.684 124.583 538.205 124.323 538.768 124.176C539.337 124.025 539.895 123.949 540.445 123.949C540.795 123.949 541.197 123.991 541.652 124.077C542.111 124.157 542.554 124.325 542.98 124.581C543.411 124.837 543.768 125.223 544.053 125.739C544.337 126.255 544.479 126.946 544.479 127.812V135H542.803V133.523H542.717C542.604 133.759 542.414 134.013 542.149 134.283C541.884 134.553 541.531 134.782 541.091 134.972C540.651 135.161 540.113 135.256 539.479 135.256ZM539.734 133.75C540.397 133.75 540.956 133.62 541.411 133.359C541.87 133.099 542.215 132.763 542.447 132.351C542.684 131.939 542.803 131.506 542.803 131.051V129.517C542.732 129.602 542.575 129.68 542.334 129.751C542.097 129.818 541.822 129.877 541.51 129.929C541.202 129.976 540.902 130.019 540.608 130.057C540.319 130.09 540.085 130.118 539.905 130.142C539.469 130.199 539.062 130.291 538.683 130.419C538.309 130.542 538.006 130.729 537.774 130.98C537.547 131.226 537.433 131.562 537.433 131.989C537.433 132.571 537.649 133.011 538.08 133.31C538.515 133.603 539.067 133.75 539.734 133.75ZM547.538 135V124.091H556.118V135H554.441V125.653H549.214V135H547.538ZM563.61 135.227C562.626 135.227 561.761 134.993 561.018 134.524C560.279 134.055 559.702 133.4 559.285 132.557C558.873 131.714 558.667 130.729 558.667 129.602C558.667 128.466 558.873 127.474 559.285 126.626C559.702 125.779 560.279 125.121 561.018 124.652C561.761 124.183 562.626 123.949 563.61 123.949C564.595 123.949 565.457 124.183 566.196 124.652C566.939 125.121 567.517 125.779 567.929 126.626C568.345 127.474 568.554 128.466 568.554 129.602C568.554 130.729 568.345 131.714 567.929 132.557C567.517 133.4 566.939 134.055 566.196 134.524C565.457 134.993 564.595 135.227 563.61 135.227ZM563.61 133.722C564.359 133.722 564.974 133.53 565.457 133.146C565.94 132.763 566.297 132.259 566.529 131.634C566.761 131.009 566.877 130.331 566.877 129.602C566.877 128.873 566.761 128.194 566.529 127.564C566.297 126.934 565.94 126.425 565.457 126.037C564.974 125.649 564.359 125.455 563.61 125.455C562.862 125.455 562.247 125.649 561.764 126.037C561.281 126.425 560.923 126.934 560.691 127.564C560.459 128.194 560.343 128.873 560.343 129.602C560.343 130.331 560.459 131.009 560.691 131.634C560.923 132.259 561.281 132.763 561.764 133.146C562.247 133.53 562.862 133.722 563.61 133.722ZM577.078 132.727L580.885 124.091H582.476L577.76 135H576.396L571.766 124.091H573.328L577.078 132.727ZM572.788 124.091V135H571.112V124.091H572.788ZM581.368 135V124.091H583.044V135H581.368ZM593.413 128.778V130.341H587.391V128.778H593.413ZM587.788 124.091V135H586.112V124.091H587.788ZM594.692 124.091V135H593.016V124.091H594.692ZM597.753 135V124.091H599.429V135H597.753ZM598.605 122.273C598.278 122.273 597.997 122.161 597.76 121.939C597.528 121.716 597.412 121.449 597.412 121.136C597.412 120.824 597.528 120.556 597.76 120.334C597.997 120.111 598.278 120 598.605 120C598.932 120 599.211 120.111 599.443 120.334C599.68 120.556 599.798 120.824 599.798 121.136C599.798 121.449 599.68 121.716 599.443 121.939C599.211 122.161 598.932 122.273 598.605 122.273ZM612.556 135.227C611.533 135.227 610.652 134.986 609.914 134.503C609.175 134.02 608.607 133.355 608.209 132.507C607.811 131.66 607.613 130.691 607.613 129.602C607.613 128.494 607.816 127.517 608.223 126.669C608.635 125.817 609.208 125.152 609.942 124.673C610.681 124.19 611.542 123.949 612.527 123.949C613.294 123.949 613.986 124.091 614.601 124.375C615.217 124.659 615.721 125.057 616.114 125.568C616.507 126.08 616.751 126.676 616.846 127.358H615.169C615.042 126.861 614.757 126.42 614.317 126.037C613.882 125.649 613.294 125.455 612.556 125.455C611.902 125.455 611.329 125.625 610.837 125.966C610.349 126.302 609.968 126.778 609.694 127.393C609.424 128.004 609.289 128.722 609.289 129.545C609.289 130.388 609.421 131.122 609.686 131.747C609.956 132.372 610.335 132.857 610.823 133.203C611.315 133.549 611.893 133.722 612.556 133.722C612.991 133.722 613.387 133.646 613.742 133.494C614.097 133.343 614.398 133.125 614.644 132.841C614.89 132.557 615.065 132.216 615.169 131.818H616.846C616.751 132.462 616.516 133.042 616.142 133.558C615.773 134.07 615.283 134.477 614.672 134.78C614.066 135.078 613.361 135.227 612.556 135.227ZM622.506 135.256C621.815 135.256 621.187 135.125 620.624 134.865C620.06 134.6 619.613 134.219 619.282 133.722C618.95 133.22 618.784 132.614 618.784 131.903C618.784 131.278 618.908 130.772 619.154 130.384C619.4 129.991 619.729 129.683 620.141 129.46C620.553 129.238 621.007 129.072 621.505 128.963C622.007 128.849 622.511 128.759 623.017 128.693C623.68 128.608 624.218 128.544 624.63 128.501C625.046 128.454 625.349 128.376 625.539 128.267C625.733 128.158 625.83 127.969 625.83 127.699V127.642C625.83 126.941 625.638 126.397 625.255 126.009C624.876 125.62 624.301 125.426 623.529 125.426C622.729 125.426 622.101 125.601 621.647 125.952C621.192 126.302 620.873 126.676 620.688 127.074L619.097 126.506C619.381 125.843 619.76 125.327 620.233 124.957C620.712 124.583 621.232 124.323 621.796 124.176C622.364 124.025 622.923 123.949 623.472 123.949C623.822 123.949 624.225 123.991 624.679 124.077C625.139 124.157 625.581 124.325 626.007 124.581C626.438 124.837 626.796 125.223 627.08 125.739C627.364 126.255 627.506 126.946 627.506 127.812V135H625.83V133.523H625.745C625.631 133.759 625.442 134.013 625.176 134.283C624.911 134.553 624.559 134.782 624.118 134.972C623.678 135.161 623.141 135.256 622.506 135.256ZM622.762 133.75C623.425 133.75 623.983 133.62 624.438 133.359C624.897 133.099 625.243 132.763 625.475 132.351C625.712 131.939 625.83 131.506 625.83 131.051V129.517C625.759 129.602 625.603 129.68 625.361 129.751C625.124 129.818 624.85 129.877 624.537 129.929C624.23 129.976 623.929 130.019 623.635 130.057C623.346 130.09 623.112 130.118 622.932 130.142C622.497 130.199 622.089 130.291 621.711 130.419C621.337 130.542 621.033 130.729 620.801 130.98C620.574 131.226 620.461 131.562 620.461 131.989C620.461 132.571 620.676 133.011 621.107 133.31C621.542 133.603 622.094 133.75 622.762 133.75ZM636.531 132.727L640.338 124.091H641.929L637.213 135H635.849L631.219 124.091H632.781L636.531 132.727ZM632.241 124.091V135H630.565V124.091H632.241ZM640.821 135V124.091H642.497V135H640.821ZM647.014 128.04H650.139C651.418 128.04 652.395 128.364 653.072 129.013C653.75 129.661 654.088 130.483 654.088 131.477C654.088 132.131 653.937 132.725 653.634 133.26C653.33 133.79 652.885 134.214 652.298 134.531C651.711 134.844 650.991 135 650.139 135H645.565V124.091H647.241V133.438H650.139C650.802 133.438 651.347 133.262 651.773 132.912C652.199 132.562 652.412 132.112 652.412 131.562C652.412 130.985 652.199 130.514 651.773 130.149C651.347 129.785 650.802 129.602 650.139 129.602H647.014V128.04ZM655.821 135V124.091H657.497V135H655.821ZM667.128 135V125.625H664.23C663.577 125.625 663.063 125.777 662.689 126.08C662.315 126.383 662.128 126.799 662.128 127.33C662.128 127.85 662.296 128.26 662.632 128.558C662.973 128.857 663.439 129.006 664.031 129.006H667.554V130.568H664.031C663.293 130.568 662.656 130.438 662.121 130.178C661.586 129.917 661.174 129.545 660.885 129.062C660.596 128.575 660.452 127.997 660.452 127.33C660.452 126.657 660.603 126.08 660.906 125.597C661.209 125.114 661.643 124.742 662.206 124.482C662.774 124.221 663.449 124.091 664.23 124.091H668.719V135H667.128ZM659.855 135L662.952 129.574H664.77L661.673 135H659.855ZM686 124.091V133.438H687.534V138.523H685.858V135H677.421V124.091H679.097V133.438H684.324V124.091H686ZM690.116 135V124.091H691.792V135H690.116ZM690.968 122.273C690.642 122.273 690.36 122.161 690.123 121.939C689.891 121.716 689.775 121.449 689.775 121.136C689.775 120.824 689.891 120.556 690.123 120.334C690.36 120.111 690.642 120 690.968 120C691.295 120 691.574 120.111 691.806 120.334C692.043 120.556 692.162 120.824 692.162 121.136C692.162 121.449 692.043 121.716 691.806 121.939C691.574 122.161 691.295 122.273 690.968 122.273ZM694.862 135V124.091H696.538V128.835H697.646L701.567 124.091H703.726L699.322 129.347L703.783 135H701.624L698.044 130.398H696.538V135H694.862ZM708.815 135.256C708.123 135.256 707.496 135.125 706.933 134.865C706.369 134.6 705.922 134.219 705.59 133.722C705.259 133.22 705.093 132.614 705.093 131.903C705.093 131.278 705.216 130.772 705.462 130.384C705.709 129.991 706.038 129.683 706.45 129.46C706.862 129.238 707.316 129.072 707.813 128.963C708.315 128.849 708.819 128.759 709.326 128.693C709.989 128.608 710.526 128.544 710.938 128.501C711.355 128.454 711.658 128.376 711.847 128.267C712.041 128.158 712.138 127.969 712.138 127.699V127.642C712.138 126.941 711.947 126.397 711.563 126.009C711.184 125.62 710.609 125.426 709.837 125.426C709.037 125.426 708.41 125.601 707.955 125.952C707.501 126.302 707.181 126.676 706.996 127.074L705.406 126.506C705.69 125.843 706.068 125.327 706.542 124.957C707.02 124.583 707.541 124.323 708.104 124.176C708.673 124.025 709.231 123.949 709.781 123.949C710.131 123.949 710.533 123.991 710.988 124.077C711.447 124.157 711.89 124.325 712.316 124.581C712.747 124.837 713.104 125.223 713.388 125.739C713.673 126.255 713.815 126.946 713.815 127.812V135H712.138V133.523H712.053C711.94 133.759 711.75 134.013 711.485 134.283C711.22 134.553 710.867 134.782 710.427 134.972C709.987 135.161 709.449 135.256 708.815 135.256ZM709.07 133.75C709.733 133.75 710.292 133.62 710.746 133.359C711.206 133.099 711.551 132.763 711.783 132.351C712.02 131.939 712.138 131.506 712.138 131.051V129.517C712.067 129.602 711.911 129.68 711.67 129.751C711.433 129.818 711.158 129.877 710.846 129.929C710.538 129.976 710.237 130.019 709.944 130.057C709.655 130.09 709.421 130.118 709.241 130.142C708.805 130.199 708.398 130.291 708.019 130.419C707.645 130.542 707.342 130.729 707.11 130.98C706.883 131.226 706.769 131.562 706.769 131.989C706.769 132.571 706.985 133.011 707.415 133.31C707.851 133.603 708.403 133.75 709.07 133.75ZM716.874 135V124.091H721.334C722.508 124.091 723.441 124.356 724.132 124.886C724.824 125.417 725.169 126.117 725.169 126.989C725.169 127.652 724.973 128.165 724.58 128.53C724.187 128.89 723.683 129.134 723.067 129.261C723.47 129.318 723.86 129.46 724.239 129.688C724.623 129.915 724.94 130.227 725.191 130.625C725.442 131.018 725.567 131.501 725.567 132.074C725.567 132.633 725.425 133.132 725.141 133.572C724.857 134.013 724.45 134.361 723.919 134.616C723.389 134.872 722.755 135 722.016 135H716.874ZM718.465 133.466H722.016C722.594 133.466 723.046 133.329 723.373 133.054C723.699 132.779 723.863 132.405 723.863 131.932C723.863 131.368 723.699 130.926 723.373 130.604C723.046 130.277 722.594 130.114 722.016 130.114H718.465V133.466ZM718.465 128.665H721.334C721.784 128.665 722.17 128.603 722.492 128.48C722.814 128.352 723.06 128.172 723.23 127.94C723.406 127.704 723.493 127.424 723.493 127.102C723.493 126.643 723.301 126.283 722.918 126.023C722.534 125.758 722.007 125.625 721.334 125.625H718.465V128.665ZM729.553 128.04H732.678C733.957 128.04 734.934 128.364 735.612 129.013C736.289 129.661 736.627 130.483 736.627 131.477C736.627 132.131 736.476 132.725 736.173 133.26C735.87 133.79 735.424 134.214 734.837 134.531C734.25 134.844 733.531 135 732.678 135H728.104V124.091H729.781V133.438H732.678C733.341 133.438 733.886 133.262 734.312 132.912C734.738 132.562 734.951 132.112 734.951 131.562C734.951 130.985 734.738 130.514 734.312 130.149C733.886 129.785 733.341 129.602 732.678 129.602H729.553V128.04ZM738.36 135V124.091H740.036V135H738.36ZM749.667 135V125.625H746.769C746.116 125.625 745.602 125.777 745.228 126.08C744.854 126.383 744.667 126.799 744.667 127.33C744.667 127.85 744.835 128.26 745.171 128.558C745.512 128.857 745.978 129.006 746.57 129.006H750.093V130.568H746.57C745.832 130.568 745.195 130.438 744.66 130.178C744.125 129.917 743.713 129.545 743.424 129.062C743.135 128.575 742.991 127.997 742.991 127.33C742.991 126.657 743.142 126.08 743.445 125.597C743.748 125.114 744.182 124.742 744.745 124.482C745.313 124.221 745.988 124.091 746.769 124.091H751.258V135H749.667ZM742.394 135L745.491 129.574H747.309L744.212 135H742.394ZM758.795 138.125V133.438H759.704C759.927 133.205 760.118 132.955 760.279 132.685C760.44 132.415 760.58 132.095 760.699 131.726C760.822 131.352 760.926 130.897 761.011 130.362C761.096 129.822 761.172 129.171 761.238 128.409L761.608 124.091H768.539V133.438H770.216V138.125H768.539V135H760.471V138.125H758.795ZM761.608 133.438H766.863V125.653H763.17L762.886 128.409C762.768 129.55 762.621 130.547 762.446 131.399C762.27 132.251 761.991 132.931 761.608 133.438ZM773.52 139.091C773.236 139.091 772.982 139.067 772.76 139.02C772.537 138.977 772.384 138.935 772.298 138.892L772.724 137.415C773.132 137.519 773.491 137.557 773.804 137.528C774.116 137.5 774.393 137.36 774.635 137.109C774.881 136.863 775.106 136.463 775.31 135.909L775.622 135.057L771.588 124.091H773.406L776.418 132.784H776.531L779.543 124.091H781.361L776.73 136.591C776.522 137.154 776.264 137.621 775.956 137.99C775.648 138.364 775.291 138.641 774.884 138.821C774.481 139.001 774.027 139.091 773.52 139.091ZM789.539 132.727L793.346 124.091H794.937L790.221 135H788.857L784.227 124.091H785.789L789.539 132.727ZM785.249 124.091V135H783.573V124.091H785.249ZM793.829 135V124.091H795.505V135H793.829ZM798.573 135V124.091H800.249V128.835H801.357L805.278 124.091H807.437L803.033 129.347L807.494 135H805.335L801.755 130.398H800.249V135H798.573ZM809.315 135V124.091H810.991V135H809.315ZM810.168 122.273C809.841 122.273 809.559 122.161 809.322 121.939C809.09 121.716 808.974 121.449 808.974 121.136C808.974 120.824 809.09 120.556 809.322 120.334C809.559 120.111 809.841 120 810.168 120C810.494 120 810.774 120.111 811.006 120.334C811.242 120.556 811.361 120.824 811.361 121.136C811.361 121.449 811.242 121.716 811.006 121.939C810.774 122.161 810.494 122.273 810.168 122.273ZM820.766 139.091C820.482 139.091 820.229 139.067 820.006 139.02C819.783 138.977 819.63 138.935 819.544 138.892L819.971 137.415C820.378 137.519 820.738 137.557 821.05 137.528C821.363 137.5 821.64 137.36 821.881 137.109C822.127 136.863 822.352 136.463 822.556 135.909L822.868 135.057L818.834 124.091H820.652L823.664 132.784H823.777L826.789 124.091H828.607L823.976 136.591C823.768 137.154 823.51 137.621 823.202 137.99C822.894 138.364 822.537 138.641 822.13 138.821C821.727 139.001 821.273 139.091 820.766 139.091ZM825.113 120.455H826.675C826.675 121.222 826.41 121.849 825.88 122.337C825.349 122.824 824.63 123.068 823.721 123.068C822.826 123.068 822.113 122.824 821.583 122.337C821.057 121.849 820.794 121.222 820.794 120.455H822.357C822.357 120.824 822.459 121.148 822.662 121.428C822.871 121.707 823.223 121.847 823.721 121.847C824.218 121.847 824.573 121.707 824.786 121.428C825.004 121.148 825.113 120.824 825.113 120.455ZM836.444 135V124.091H838.12V128.835H839.228L843.149 124.091H845.308L840.904 129.347L845.365 135H843.206L839.626 130.398H838.12V135H836.444ZM854.488 128.778V130.341H848.465V128.778H854.488ZM848.863 124.091V135H847.186V124.091H848.863ZM855.766 124.091V135H854.09V124.091H855.766ZM858.827 135V124.091H860.503V135H858.827ZM859.679 122.273C859.353 122.273 859.071 122.161 858.834 121.939C858.602 121.716 858.486 121.449 858.486 121.136C858.486 120.824 858.602 120.556 858.834 120.334C859.071 120.111 859.353 120 859.679 120C860.006 120 860.285 120.111 860.517 120.334C860.754 120.556 860.873 120.824 860.873 121.136C860.873 121.449 860.754 121.716 860.517 121.939C860.285 122.161 860.006 122.273 859.679 122.273ZM862.891 132.216H864.681C864.719 132.708 864.942 133.082 865.349 133.338C865.761 133.594 866.296 133.722 866.954 133.722C867.626 133.722 868.201 133.584 868.68 133.31C869.158 133.03 869.397 132.58 869.397 131.96C869.397 131.596 869.307 131.278 869.127 131.009C868.947 130.734 868.694 130.521 868.367 130.369C868.04 130.218 867.655 130.142 867.21 130.142H865.335V128.636H867.21C867.877 128.636 868.37 128.485 868.687 128.182C869.009 127.879 869.17 127.5 869.17 127.045C869.17 126.558 868.997 126.167 868.651 125.874C868.306 125.575 867.816 125.426 867.181 125.426C866.542 125.426 866.009 125.571 865.583 125.859C865.157 126.143 864.932 126.51 864.908 126.96H863.147C863.166 126.373 863.346 125.855 863.687 125.405C864.028 124.95 864.492 124.595 865.079 124.339C865.666 124.079 866.338 123.949 867.096 123.949C867.863 123.949 868.528 124.084 869.092 124.354C869.66 124.619 870.098 124.981 870.406 125.44C870.718 125.895 870.874 126.411 870.874 126.989C870.874 127.604 870.701 128.101 870.356 128.48C870.01 128.859 869.577 129.129 869.056 129.29V129.403C869.468 129.432 869.826 129.564 870.129 129.801C870.436 130.033 870.675 130.339 870.846 130.717C871.016 131.091 871.102 131.506 871.102 131.96C871.102 132.623 870.924 133.201 870.569 133.693C870.214 134.181 869.726 134.56 869.106 134.83C868.486 135.095 867.778 135.227 866.982 135.227C866.21 135.227 865.519 135.102 864.908 134.851C864.298 134.595 863.812 134.242 863.452 133.793C863.097 133.338 862.91 132.812 862.891 132.216ZM878.03 135.227C876.979 135.227 876.072 134.995 875.31 134.531C874.552 134.062 873.967 133.409 873.555 132.571C873.148 131.728 872.945 130.748 872.945 129.631C872.945 128.513 873.148 127.528 873.555 126.676C873.967 125.819 874.54 125.152 875.274 124.673C876.013 124.19 876.875 123.949 877.859 123.949C878.428 123.949 878.989 124.044 879.543 124.233C880.097 124.422 880.601 124.73 881.055 125.156C881.51 125.578 881.872 126.136 882.142 126.832C882.412 127.528 882.547 128.385 882.547 129.403V130.114H874.138V128.665H880.842C880.842 128.049 880.719 127.5 880.473 127.017C880.232 126.534 879.886 126.153 879.436 125.874C878.991 125.594 878.465 125.455 877.859 125.455C877.192 125.455 876.614 125.62 876.126 125.952C875.643 126.278 875.272 126.705 875.011 127.23C874.751 127.756 874.621 128.319 874.621 128.92V129.886C874.621 130.71 874.763 131.409 875.047 131.982C875.336 132.55 875.736 132.983 876.247 133.281C876.759 133.575 877.353 133.722 878.03 133.722C878.47 133.722 878.868 133.66 879.223 133.537C879.583 133.409 879.893 133.22 880.153 132.969C880.414 132.713 880.615 132.396 880.757 132.017L882.376 132.472C882.206 133.021 881.92 133.504 881.517 133.92C881.115 134.332 880.617 134.654 880.026 134.886C879.434 135.114 878.768 135.227 878.03 135.227ZM890.722 135V124.091H892.398V135H890.722ZM891.574 122.273C891.247 122.273 890.965 122.161 890.729 121.939C890.497 121.716 890.381 121.449 890.381 121.136C890.381 120.824 890.497 120.556 890.729 120.334C890.965 120.111 891.247 120 891.574 120C891.901 120 892.18 120.111 892.412 120.334C892.649 120.556 892.767 120.824 892.767 121.136C892.767 121.449 892.649 121.716 892.412 121.939C892.18 122.161 891.901 122.273 891.574 122.273ZM901.093 135V124.091H905.553C906.727 124.091 907.66 124.356 908.351 124.886C909.042 125.417 909.388 126.117 909.388 126.989C909.388 127.652 909.192 128.165 908.799 128.53C908.406 128.89 907.901 129.134 907.286 129.261C907.688 129.318 908.079 129.46 908.458 129.688C908.841 129.915 909.158 130.227 909.409 130.625C909.66 131.018 909.786 131.501 909.786 132.074C909.786 132.633 909.644 133.132 909.36 133.572C909.076 134.013 908.668 134.361 908.138 134.616C907.608 134.872 906.973 135 906.235 135H901.093ZM902.684 133.466H906.235C906.812 133.466 907.265 133.329 907.591 133.054C907.918 132.779 908.081 132.405 908.081 131.932C908.081 131.368 907.918 130.926 907.591 130.604C907.265 130.277 906.812 130.114 906.235 130.114H902.684V133.466ZM902.684 128.665H905.553C906.003 128.665 906.389 128.603 906.711 128.48C907.033 128.352 907.279 128.172 907.449 127.94C907.624 127.704 907.712 127.424 907.712 127.102C907.712 126.643 907.52 126.283 907.137 126.023C906.753 125.758 906.225 125.625 905.553 125.625H902.684V128.665ZM918.886 135V125.625H915.988C915.335 125.625 914.821 125.777 914.447 126.08C914.073 126.383 913.886 126.799 913.886 127.33C913.886 127.85 914.054 128.26 914.39 128.558C914.731 128.857 915.197 129.006 915.789 129.006H919.312V130.568H915.789C915.05 130.568 914.414 130.438 913.879 130.178C913.344 129.917 912.932 129.545 912.643 129.062C912.354 128.575 912.21 127.997 912.21 127.33C912.21 126.657 912.361 126.08 912.664 125.597C912.967 125.114 913.4 124.742 913.964 124.482C914.532 124.221 915.207 124.091 915.988 124.091H920.477V135H918.886ZM911.613 135L914.71 129.574H916.528L913.431 135H911.613ZM923.554 139.091V124.091H925.173V125.824H925.372C925.495 125.634 925.665 125.393 925.883 125.099C926.106 124.801 926.423 124.536 926.835 124.304C927.252 124.067 927.815 123.949 928.525 123.949C929.444 123.949 930.253 124.179 930.954 124.638C931.655 125.097 932.202 125.748 932.595 126.591C932.988 127.434 933.184 128.428 933.184 129.574C933.184 130.729 932.988 131.731 932.595 132.578C932.202 133.421 931.657 134.074 930.961 134.538C930.265 134.998 929.463 135.227 928.554 135.227C927.853 135.227 927.292 135.111 926.87 134.879C926.449 134.643 926.125 134.375 925.897 134.077C925.67 133.774 925.495 133.523 925.372 133.324H925.23V139.091H923.554ZM925.201 129.545C925.201 130.369 925.322 131.096 925.564 131.726C925.805 132.351 926.158 132.841 926.622 133.196C927.086 133.546 927.654 133.722 928.326 133.722C929.027 133.722 929.612 133.537 930.081 133.168C930.554 132.794 930.909 132.292 931.146 131.662C931.387 131.027 931.508 130.322 931.508 129.545C931.508 128.778 931.39 128.087 931.153 127.472C930.921 126.851 930.568 126.361 930.095 126.001C929.626 125.637 929.037 125.455 928.326 125.455C927.645 125.455 927.072 125.627 926.608 125.973C926.144 126.314 925.793 126.792 925.556 127.408C925.32 128.018 925.201 128.731 925.201 129.545ZM943.042 128.778V130.341H937.02V128.778H943.042ZM937.417 124.091V135H935.741V124.091H937.417ZM944.321 124.091V135H942.645V124.091H944.321ZM947.382 135V124.091H949.058V135H947.382ZM948.234 122.273C947.907 122.273 947.626 122.161 947.389 121.939C947.157 121.716 947.041 121.449 947.041 121.136C947.041 120.824 947.157 120.556 947.389 120.334C947.626 120.111 947.907 120 948.234 120C948.561 120 948.84 120.111 949.072 120.334C949.309 120.556 949.427 120.824 949.427 121.136C949.427 121.449 949.309 121.716 949.072 121.939C948.84 122.161 948.561 122.273 948.234 122.273ZM956.56 135.227C955.537 135.227 954.656 134.986 953.918 134.503C953.179 134.02 952.611 133.355 952.213 132.507C951.815 131.66 951.616 130.691 951.616 129.602C951.616 128.494 951.82 127.517 952.227 126.669C952.639 125.817 953.212 125.152 953.946 124.673C954.685 124.19 955.546 123.949 956.531 123.949C957.298 123.949 957.99 124.091 958.605 124.375C959.221 124.659 959.725 125.057 960.118 125.568C960.511 126.08 960.755 126.676 960.849 127.358H959.173C959.045 126.861 958.761 126.42 958.321 126.037C957.885 125.649 957.298 125.455 956.56 125.455C955.906 125.455 955.333 125.625 954.841 125.966C954.353 126.302 953.972 126.778 953.697 127.393C953.428 128.004 953.293 128.722 953.293 129.545C953.293 130.388 953.425 131.122 953.69 131.747C953.96 132.372 954.339 132.857 954.827 133.203C955.319 133.549 955.897 133.722 956.56 133.722C956.995 133.722 957.391 133.646 957.746 133.494C958.101 133.343 958.402 133.125 958.648 132.841C958.894 132.557 959.069 132.216 959.173 131.818H960.849C960.755 132.462 960.52 133.042 960.146 133.558C959.777 134.07 959.287 134.477 958.676 134.78C958.07 135.078 957.365 135.227 956.56 135.227ZM969.862 135V125.625H966.964C966.311 125.625 965.797 125.777 965.423 126.08C965.049 126.383 964.862 126.799 964.862 127.33C964.862 127.85 965.03 128.26 965.366 128.558C965.707 128.857 966.174 129.006 966.766 129.006H970.288V130.568H966.766C966.027 130.568 965.39 130.438 964.855 130.178C964.32 129.917 963.908 129.545 963.619 129.062C963.33 128.575 963.186 127.997 963.186 127.33C963.186 126.657 963.338 126.08 963.641 125.597C963.944 125.114 964.377 124.742 964.94 124.482C965.509 124.221 966.183 124.091 966.964 124.091H971.453V135H969.862ZM962.589 135L965.686 129.574H967.504L964.408 135H962.589ZM978.99 138.125V133.438H979.9C980.122 133.205 980.314 132.955 980.475 132.685C980.636 132.415 980.775 132.095 980.894 131.726C981.017 131.352 981.121 130.897 981.206 130.362C981.292 129.822 981.367 129.171 981.434 128.409L981.803 124.091H988.735V133.438H990.411V138.125H988.735V135H980.667V138.125H978.99ZM981.803 133.438H987.059V125.653H983.365L983.081 128.409C982.963 129.55 982.816 130.547 982.641 131.399C982.466 132.251 982.186 132.931 981.803 133.438ZM995.846 135.256C995.155 135.256 994.527 135.125 993.964 134.865C993.4 134.6 992.953 134.219 992.621 133.722C992.29 133.22 992.124 132.614 992.124 131.903C992.124 131.278 992.247 130.772 992.494 130.384C992.74 129.991 993.069 129.683 993.481 129.46C993.893 129.238 994.347 129.072 994.844 128.963C995.346 128.849 995.851 128.759 996.357 128.693C997.02 128.608 997.558 128.544 997.969 128.501C998.386 128.454 998.689 128.376 998.879 128.267C999.073 128.158 999.17 127.969 999.17 127.699V127.642C999.17 126.941 998.978 126.397 998.594 126.009C998.216 125.62 997.64 125.426 996.869 125.426C996.068 125.426 995.441 125.601 994.987 125.952C994.532 126.302 994.212 126.676 994.028 127.074L992.437 126.506C992.721 125.843 993.1 125.327 993.573 124.957C994.051 124.583 994.572 124.323 995.136 124.176C995.704 124.025 996.263 123.949 996.812 123.949C997.162 123.949 997.565 123.991 998.019 124.077C998.478 124.157 998.921 124.325 999.347 124.581C999.778 124.837 1000.14 125.223 1000.42 125.739C1000.7 126.255 1000.85 126.946 1000.85 127.812V135H999.17V133.523H999.085C998.971 133.759 998.781 134.013 998.516 134.283C998.251 134.553 997.898 134.782 997.458 134.972C997.018 135.161 996.48 135.256 995.846 135.256ZM996.102 133.75C996.764 133.75 997.323 133.62 997.778 133.359C998.237 133.099 998.583 132.763 998.815 132.351C999.051 131.939 999.17 131.506 999.17 131.051V129.517C999.099 129.602 998.942 129.68 998.701 129.751C998.464 129.818 998.19 129.877 997.877 129.929C997.569 129.976 997.269 130.019 996.975 130.057C996.686 130.09 996.452 130.118 996.272 130.142C995.836 130.199 995.429 130.291 995.05 130.419C994.676 130.542 994.373 130.729 994.141 130.98C993.914 131.226 993.8 131.562 993.8 131.989C993.8 132.571 994.016 133.011 994.447 133.31C994.882 133.603 995.434 133.75 996.102 133.75ZM523.534 159V148.091H525.21V159H523.534ZM524.386 146.273C524.06 146.273 523.778 146.161 523.541 145.939C523.309 145.716 523.193 145.449 523.193 145.136C523.193 144.824 523.309 144.556 523.541 144.334C523.778 144.111 524.06 144 524.386 144C524.713 144 524.992 144.111 525.224 144.334C525.461 144.556 525.58 144.824 525.58 145.136C525.58 145.449 525.461 145.716 525.224 145.939C524.992 146.161 524.713 146.273 524.386 146.273ZM529.53 148.091L532.144 152.551L534.757 148.091H536.689L533.167 153.545L536.689 159H534.757L532.144 154.767L529.53 159H527.598L531.064 153.545L527.598 148.091H529.53ZM544.706 159V148.091H546.382V152.835H547.49L551.411 148.091H553.57L549.166 153.347L553.626 159H551.467L547.888 154.398H546.382V159H544.706ZM558.658 159.256C557.967 159.256 557.34 159.125 556.776 158.865C556.213 158.6 555.765 158.219 555.434 157.722C555.103 157.22 554.937 156.614 554.937 155.903C554.937 155.278 555.06 154.772 555.306 154.384C555.552 153.991 555.881 153.683 556.293 153.46C556.705 153.238 557.16 153.072 557.657 152.963C558.159 152.849 558.663 152.759 559.17 152.693C559.833 152.608 560.37 152.544 560.782 152.501C561.199 152.454 561.502 152.376 561.691 152.267C561.885 152.158 561.982 151.969 561.982 151.699V151.642C561.982 150.941 561.79 150.397 561.407 150.009C561.028 149.62 560.453 149.426 559.681 149.426C558.881 149.426 558.254 149.601 557.799 149.952C557.344 150.302 557.025 150.676 556.84 151.074L555.249 150.506C555.533 149.843 555.912 149.327 556.386 148.957C556.864 148.583 557.385 148.323 557.948 148.176C558.516 148.025 559.075 147.949 559.624 147.949C559.975 147.949 560.377 147.991 560.832 148.077C561.291 148.157 561.734 148.325 562.16 148.581C562.591 148.837 562.948 149.223 563.232 149.739C563.516 150.255 563.658 150.946 563.658 151.812V159H561.982V157.523H561.897C561.783 157.759 561.594 158.013 561.329 158.283C561.064 158.553 560.711 158.782 560.271 158.972C559.83 159.161 559.293 159.256 558.658 159.256ZM558.914 157.75C559.577 157.75 560.136 157.62 560.59 157.359C561.049 157.099 561.395 156.763 561.627 156.351C561.864 155.939 561.982 155.506 561.982 155.051V153.517C561.911 153.602 561.755 153.68 561.513 153.751C561.277 153.818 561.002 153.877 560.69 153.929C560.382 153.976 560.081 154.019 559.788 154.057C559.499 154.09 559.264 154.118 559.085 154.142C558.649 154.199 558.242 154.291 557.863 154.419C557.489 154.542 557.186 154.729 556.954 154.98C556.727 155.226 556.613 155.562 556.613 155.989C556.613 156.571 556.828 157.011 557.259 157.31C557.695 157.603 558.246 157.75 558.914 157.75ZM565.752 159V157.438H566.15C566.476 157.438 566.748 157.374 566.966 157.246C567.184 157.113 567.359 156.884 567.492 156.557C567.629 156.225 567.733 155.766 567.804 155.179C567.88 154.587 567.935 153.834 567.968 152.92L568.167 148.091H575.439V159H573.763V149.653H569.757L569.587 153.545C569.549 154.44 569.469 155.229 569.346 155.911C569.227 156.588 569.045 157.156 568.799 157.615C568.557 158.074 568.235 158.42 567.833 158.652C567.43 158.884 566.926 159 566.32 159H565.752ZM578.515 159V148.091H580.191V159H578.515ZM579.367 146.273C579.04 146.273 578.758 146.161 578.522 145.939C578.29 145.716 578.174 145.449 578.174 145.136C578.174 144.824 578.29 144.556 578.522 144.334C578.758 144.111 579.04 144 579.367 144C579.694 144 579.973 144.111 580.205 144.334C580.442 144.556 580.56 144.824 580.56 145.136C580.56 145.449 580.442 145.716 580.205 145.939C579.973 146.161 579.694 146.273 579.367 146.273ZM588.886 159V148.091H597.465V159H595.789V149.653H590.562V159H588.886ZM600.526 163.091V148.091H602.146V149.824H602.344C602.468 149.634 602.638 149.393 602.856 149.099C603.078 148.801 603.396 148.536 603.808 148.304C604.224 148.067 604.788 147.949 605.498 147.949C606.416 147.949 607.226 148.179 607.927 148.638C608.628 149.097 609.174 149.748 609.567 150.591C609.96 151.434 610.157 152.428 610.157 153.574C610.157 154.729 609.96 155.731 609.567 156.578C609.174 157.421 608.63 158.074 607.934 158.538C607.238 158.998 606.435 159.227 605.526 159.227C604.826 159.227 604.264 159.111 603.843 158.879C603.422 158.643 603.097 158.375 602.87 158.077C602.643 157.774 602.468 157.523 602.344 157.324H602.202V163.091H600.526ZM602.174 153.545C602.174 154.369 602.295 155.096 602.536 155.726C602.778 156.351 603.13 156.841 603.594 157.196C604.058 157.546 604.627 157.722 605.299 157.722C606 157.722 606.585 157.537 607.053 157.168C607.527 156.794 607.882 156.292 608.119 155.662C608.36 155.027 608.481 154.322 608.481 153.545C608.481 152.778 608.362 152.087 608.126 151.472C607.894 150.851 607.541 150.361 607.067 150.001C606.599 149.637 606.009 149.455 605.299 149.455C604.617 149.455 604.044 149.627 603.58 149.973C603.116 150.314 602.766 150.792 602.529 151.408C602.292 152.018 602.174 152.731 602.174 153.545ZM614.163 152.04H617.288C618.566 152.04 619.544 152.364 620.221 153.013C620.898 153.661 621.237 154.483 621.237 155.477C621.237 156.131 621.085 156.725 620.782 157.26C620.479 157.79 620.034 158.214 619.447 158.531C618.86 158.844 618.14 159 617.288 159H612.714V148.091H614.39V157.438H617.288C617.951 157.438 618.495 157.262 618.921 156.912C619.347 156.562 619.56 156.112 619.56 155.562C619.56 154.985 619.347 154.514 618.921 154.149C618.495 153.785 617.951 153.602 617.288 153.602H614.163V152.04ZM622.969 159V148.091H624.646V159H622.969ZM626.549 162.125V157.438H627.458C627.681 157.205 627.872 156.955 628.033 156.685C628.194 156.415 628.334 156.095 628.452 155.726C628.576 155.352 628.68 154.897 628.765 154.362C628.85 153.822 628.926 153.171 628.992 152.409L629.362 148.091H636.293V157.438H637.969V162.125H636.293V159H628.225V162.125H626.549ZM629.362 157.438H634.617V149.653H630.924L630.64 152.409C630.522 153.55 630.375 154.547 630.2 155.399C630.024 156.251 629.745 156.931 629.362 157.438ZM639.512 156.216H641.302C641.34 156.708 641.563 157.082 641.97 157.338C642.382 157.594 642.917 157.722 643.575 157.722C644.247 157.722 644.823 157.584 645.301 157.31C645.779 157.03 646.018 156.58 646.018 155.96C646.018 155.596 645.928 155.278 645.748 155.009C645.568 154.734 645.315 154.521 644.988 154.369C644.662 154.218 644.276 154.142 643.831 154.142H641.956V152.636H643.831C644.498 152.636 644.991 152.485 645.308 152.182C645.63 151.879 645.791 151.5 645.791 151.045C645.791 150.558 645.618 150.167 645.272 149.874C644.927 149.575 644.437 149.426 643.802 149.426C643.163 149.426 642.63 149.571 642.204 149.859C641.778 150.143 641.553 150.51 641.529 150.96H639.768C639.787 150.373 639.967 149.855 640.308 149.405C640.649 148.95 641.113 148.595 641.7 148.339C642.287 148.079 642.959 147.949 643.717 147.949C644.484 147.949 645.149 148.084 645.713 148.354C646.281 148.619 646.719 148.981 647.027 149.44C647.339 149.895 647.495 150.411 647.495 150.989C647.495 151.604 647.323 152.101 646.977 152.48C646.631 152.859 646.198 153.129 645.677 153.29V153.403C646.089 153.432 646.447 153.564 646.75 153.801C647.057 154.033 647.297 154.339 647.467 154.717C647.637 155.091 647.723 155.506 647.723 155.96C647.723 156.623 647.545 157.201 647.19 157.693C646.835 158.181 646.347 158.56 645.727 158.83C645.107 159.095 644.399 159.227 643.603 159.227C642.832 159.227 642.14 159.102 641.529 158.851C640.919 158.595 640.433 158.242 640.074 157.793C639.718 157.338 639.531 156.812 639.512 156.216ZM654.651 159.227C653.6 159.227 652.693 158.995 651.931 158.531C651.173 158.062 650.588 157.409 650.176 156.571C649.769 155.728 649.566 154.748 649.566 153.631C649.566 152.513 649.769 151.528 650.176 150.676C650.588 149.819 651.161 149.152 651.895 148.673C652.634 148.19 653.496 147.949 654.48 147.949C655.049 147.949 655.61 148.044 656.164 148.233C656.718 148.422 657.222 148.73 657.676 149.156C658.131 149.578 658.493 150.136 658.763 150.832C659.033 151.528 659.168 152.385 659.168 153.403V154.114H650.759V152.665H657.463C657.463 152.049 657.34 151.5 657.094 151.017C656.853 150.534 656.507 150.153 656.057 149.874C655.612 149.594 655.087 149.455 654.48 149.455C653.813 149.455 653.235 149.62 652.748 149.952C652.265 150.278 651.893 150.705 651.632 151.23C651.372 151.756 651.242 152.319 651.242 152.92V153.886C651.242 154.71 651.384 155.409 651.668 155.982C651.957 156.55 652.357 156.983 652.868 157.281C653.38 157.575 653.974 157.722 654.651 157.722C655.091 157.722 655.489 157.66 655.844 157.537C656.204 157.409 656.514 157.22 656.775 156.969C657.035 156.713 657.236 156.396 657.378 156.017L658.998 156.472C658.827 157.021 658.541 157.504 658.138 157.92C657.736 158.332 657.239 158.654 656.647 158.886C656.055 159.114 655.39 159.227 654.651 159.227ZM675.752 148.091V159H674.076V148.091H675.752ZM675.098 153.29V154.852C674.72 154.994 674.343 155.12 673.969 155.229C673.595 155.333 673.202 155.416 672.79 155.477C672.378 155.534 671.926 155.562 671.434 155.562C670.198 155.562 669.206 155.229 668.458 154.561C667.714 153.893 667.343 152.892 667.343 151.557V148.062H669.019V151.557C669.019 152.116 669.125 152.575 669.338 152.935C669.551 153.295 669.84 153.562 670.205 153.737C670.569 153.912 670.979 154 671.434 154C672.144 154 672.785 153.936 673.358 153.808C673.936 153.676 674.516 153.503 675.098 153.29ZM682.037 159.256C681.346 159.256 680.719 159.125 680.155 158.865C679.592 158.6 679.144 158.219 678.813 157.722C678.481 157.22 678.316 156.614 678.316 155.903C678.316 155.278 678.439 154.772 678.685 154.384C678.931 153.991 679.26 153.683 679.672 153.46C680.084 153.238 680.539 153.072 681.036 152.963C681.538 152.849 682.042 152.759 682.549 152.693C683.212 152.608 683.749 152.544 684.161 152.501C684.578 152.454 684.881 152.376 685.07 152.267C685.264 152.158 685.361 151.969 685.361 151.699V151.642C685.361 150.941 685.169 150.397 684.786 150.009C684.407 149.62 683.832 149.426 683.06 149.426C682.26 149.426 681.632 149.601 681.178 149.952C680.723 150.302 680.404 150.676 680.219 151.074L678.628 150.506C678.912 149.843 679.291 149.327 679.765 148.957C680.243 148.583 680.764 148.323 681.327 148.176C681.895 148.025 682.454 147.949 683.003 147.949C683.354 147.949 683.756 147.991 684.211 148.077C684.67 148.157 685.113 148.325 685.539 148.581C685.97 148.837 686.327 149.223 686.611 149.739C686.895 150.255 687.037 150.946 687.037 151.812V159H685.361V157.523H685.276C685.162 157.759 684.973 158.013 684.708 158.283C684.443 158.553 684.09 158.782 683.65 158.972C683.209 159.161 682.672 159.256 682.037 159.256ZM682.293 157.75C682.956 157.75 683.515 157.62 683.969 157.359C684.428 157.099 684.774 156.763 685.006 156.351C685.243 155.939 685.361 155.506 685.361 155.051V153.517C685.29 153.602 685.134 153.68 684.892 153.751C684.656 153.818 684.381 153.877 684.069 153.929C683.761 153.976 683.46 154.019 683.167 154.057C682.878 154.09 682.643 154.118 682.463 154.142C682.028 154.199 681.621 154.291 681.242 154.419C680.868 154.542 680.565 154.729 680.333 154.98C680.105 155.226 679.992 155.562 679.992 155.989C679.992 156.571 680.207 157.011 680.638 157.31C681.074 157.603 681.625 157.75 682.293 157.75ZM694.528 159.227C693.506 159.227 692.625 158.986 691.886 158.503C691.148 158.02 690.58 157.355 690.182 156.507C689.784 155.66 689.585 154.691 689.585 153.602C689.585 152.494 689.789 151.517 690.196 150.669C690.608 149.817 691.181 149.152 691.915 148.673C692.653 148.19 693.515 147.949 694.5 147.949C695.267 147.949 695.958 148.091 696.574 148.375C697.189 148.659 697.694 149.057 698.087 149.568C698.48 150.08 698.723 150.676 698.818 151.358H697.142C697.014 150.861 696.73 150.42 696.29 150.037C695.854 149.649 695.267 149.455 694.528 149.455C693.875 149.455 693.302 149.625 692.81 149.966C692.322 150.302 691.941 150.778 691.666 151.393C691.396 152.004 691.261 152.722 691.261 153.545C691.261 154.388 691.394 155.122 691.659 155.747C691.929 156.372 692.308 156.857 692.795 157.203C693.288 157.549 693.866 157.722 694.528 157.722C694.964 157.722 695.359 157.646 695.714 157.494C696.07 157.343 696.37 157.125 696.616 156.841C696.863 156.557 697.038 156.216 697.142 155.818H698.818C698.723 156.462 698.489 157.042 698.115 157.558C697.746 158.07 697.256 158.477 696.645 158.78C696.039 159.078 695.333 159.227 694.528 159.227Z"
          fill="#335B7F"/>
    <rect width="1920" height="24" transform="matrix(1 0 0 -1 0 215)" fill="#3D5F82"/>
    <rect x="502" y="68" width="4" height="96" fill="#335B7F"/>
    <mask id="path-8-inside-1_433_4431" fill="white">
        <path d="M1363.06 38.2246H1403.6V201.878H1363.06V38.2246Z"/>
    </mask>
    <path d="M1363.06 38.2246H1403.6V201.878H1363.06V38.2246Z" fill="#91A4B5"/>
    <path d="M1400.6 38.2246V201.878H1406.6V38.2246H1400.6ZM1363.56 201.878V38.2246H1362.56V201.878H1363.56Z" fill="#426480"
          mask="url(#path-8-inside-1_433_4431)"/>
    <mask id="path-10-inside-2_433_4431" fill="white">
        <path d="M1338.07 60.4648L1363.17 65.252L1334.1 201.916L1309 197.129L1338.07 60.4648Z"/>
    </mask>
    <path d="M1338.07 60.4648L1363.17 65.252L1334.1 201.916L1309 197.129L1338.07 60.4648Z" fill="#8498B0"/>
    <path d="M1362.19 65.0647L1333.12 201.729L1335.08 202.103L1364.16 65.4394L1362.19 65.0647ZM1309.98 197.316L1339.05 60.6522L1337.09 60.2775L1308.02 196.941L1309.98 197.316Z"
          fill="black" mask="url(#path-10-inside-2_433_4431)"/>
    <mask id="path-12-inside-3_433_4431" fill="white">
        <path d="M1403.6 28.123H1444.14V201.878H1403.6V28.123Z"/>
    </mask>
    <path d="M1403.6 28.123H1444.14V201.878H1403.6V28.123Z" fill="#BBC7D3"/>
    <path d="M1442.14 28.123V201.878H1446.14V28.123H1442.14ZM1404.6 201.878V28.123H1402.6V201.878H1404.6Z" fill="black"
          mask="url(#path-12-inside-3_433_4431)"/>
    <mask id="path-14-inside-4_433_4431" fill="white">
        <path d="M1444.14 28.123H1484.68V201.878H1444.14V28.123Z"/>
    </mask>
    <path d="M1444.14 28.123H1484.68V201.878H1444.14V28.123Z" fill="#547692"/>
    <path d="M1483.68 28.123V201.878H1485.68V28.123H1483.68ZM1445.14 201.878V28.123H1443.14V201.878H1445.14Z" fill="#446078"
          mask="url(#path-14-inside-4_433_4431)"/>
    <mask id="path-16-inside-5_433_4431" fill="white">
        <path d="M1484.68 16H1508.16V201.878H1484.68V16Z"/>
    </mask>
    <path d="M1484.68 16H1508.16V201.878H1484.68V16Z" fill="#A6B5C2"/>
    <path d="M1507.16 16V201.878H1509.16V16H1507.16Z" fill="#7A90A5" mask="url(#path-16-inside-5_433_4431)"/>
    <mask id="path-18-inside-6_433_4431" fill="white">
        <path d="M1508.16 44.2852H1531.63V201.877H1508.16V44.2852Z"/>
    </mask>
    <path d="M1508.16 44.2852H1531.63V201.877H1508.16V44.2852Z" fill="#E6EBEF"/>
    <path d="M1530.63 44.2852V201.877H1532.63V44.2852H1530.63ZM1509.16 201.877V44.2852H1507.16V201.877H1509.16Z" fill="#577492"
          mask="url(#path-18-inside-6_433_4431)"/>
    <mask id="path-20-inside-7_433_4431" fill="white">
        <path d="M1531.63 38.2246H1555.1V201.878H1531.63V38.2246Z"/>
    </mask>
    <path d="M1531.63 38.2246H1555.1V201.878H1531.63V38.2246Z" fill="#5A7795"/>
    <path d="M1554.1 38.2246V201.878H1556.1V38.2246H1554.1ZM1532.63 201.878V38.2246H1530.63V201.878H1532.63Z" fill="#3E5B79"
          mask="url(#path-20-inside-7_433_4431)"/>
    <mask id="path-22-inside-8_433_4431" fill="white">
        <path d="M1555.1 34.1836H1578.57V201.878H1555.1V34.1836Z"/>
    </mask>
    <path d="M1555.1 34.1836H1578.57V201.878H1555.1V34.1836Z" fill="#6C85A3"/>
    <path d="M1577.57 34.1836V201.878H1579.57V34.1836H1577.57ZM1556.1 201.878V34.1836H1554.1V201.878H1556.1Z" fill="#385B7B"
          mask="url(#path-22-inside-8_433_4431)"/>
    <mask id="path-24-inside-9_433_4431" fill="white">
        <path d="M1578.57 56.4082H1612.71V201.878H1578.57V56.4082Z"/>
    </mask>
    <path d="M1578.57 56.4082H1612.71V201.878H1578.57V56.4082Z" fill="#3F6282"/>
    <path d="M1611.71 56.4082V201.878H1613.71V56.4082H1611.71ZM1579.57 201.878V56.4082H1577.57V201.878H1579.57Z" fill="#33485B"
          mask="url(#path-24-inside-9_433_4431)"/>
    <mask id="path-26-inside-10_433_4431" fill="white">
        <path d="M1612.71 44.2852H1648.99V201.877H1612.71V44.2852Z"/>
    </mask>
    <path d="M1612.71 44.2852H1648.99V201.877H1612.71V44.2852Z" fill="#B1BECE"/>
    <path d="M1647.99 44.2852V201.877H1649.99V44.2852H1647.99ZM1613.71 201.877V44.2852H1611.71V201.877H1613.71Z" fill="#6E7882"
          mask="url(#path-26-inside-10_433_4431)"/>
    <mask id="path-28-inside-11_433_4431" fill="white">
        <path d="M1648.99 44.2852H1685.26V201.877H1648.99V44.2852Z"/>
    </mask>
    <path d="M1648.99 44.2852H1685.26V201.877H1648.99V44.2852Z" fill="#F7F5FA"/>
    <path d="M1684.26 44.2852V201.877H1686.26V44.2852H1684.26ZM1649.99 201.877V44.2852H1647.99V201.877H1649.99Z" fill="#34546D"
          mask="url(#path-28-inside-11_433_4431)"/>
    <mask id="path-30-inside-12_433_4431" fill="white">
        <path d="M1685.26 34.1836H1713V201.878H1685.26V34.1836Z"/>
    </mask>
    <path d="M1685.26 34.1836H1713V201.878H1685.26V34.1836Z" fill="#4A6C88"/>
    <path d="M1712 34.1836V201.878H1714V34.1836H1712ZM1686.26 201.878V34.1836H1684.26V201.878H1686.26Z" fill="#7C9AB5"
          mask="url(#path-30-inside-12_433_4431)"/>
    <path d="M1354.35 102.948L1363.06 65.5005L1363.06 194.807L1333.19 201.878L1354.35 102.948Z" fill="#587692"/>
    <path d="M1430.78 71.6425L1430.74 74.6763L1422.88 77.7843L1422.87 77.9206L1430.65 81.2211L1430.61 84.2549L1418.97 84.1116L1419 81.7255L1426.58 81.8188L1426.58 81.7222L1419.1 78.6185L1419.13 76.9937L1426.71 74.0755L1426.71 73.979L1419.11 73.8853L1419.14 71.4992L1430.78 71.6425ZM1418.74 88.5794C1418.75 88.0226 1418.86 87.5276 1419.05 87.0944C1419.26 86.6613 1419.55 86.3202 1419.94 86.0711C1420.33 85.8259 1420.81 85.7069 1421.39 85.714C1421.87 85.7199 1422.28 85.8139 1422.6 85.996C1422.93 86.1781 1423.19 86.4238 1423.39 86.733C1423.59 87.0423 1423.73 87.3926 1423.83 87.784C1423.93 88.1791 1423.99 88.5929 1424.03 89.0252C1424.07 89.5333 1424.12 89.943 1424.16 90.2541C1424.2 90.5653 1424.27 90.7916 1424.37 90.9329C1424.46 91.0742 1424.6 91.146 1424.78 91.1482L1424.82 91.1487C1425.18 91.1531 1425.46 91.0429 1425.66 90.8181C1425.86 90.597 1425.96 90.2801 1425.97 89.8673C1425.97 89.4317 1425.88 89.0839 1425.69 88.824C1425.5 88.5641 1425.27 88.3908 1424.98 88.3039L1425.19 86.0677C1425.72 86.1879 1426.18 86.417 1426.56 86.755C1426.95 87.0931 1427.24 87.5267 1427.44 88.0557C1427.64 88.5886 1427.74 89.2035 1427.73 89.9004C1427.73 90.3852 1427.66 90.8485 1427.54 91.2902C1427.42 91.7357 1427.24 92.1294 1427 92.4711C1426.75 92.8166 1426.44 93.0874 1426.07 93.2835C1425.69 93.4797 1425.25 93.5746 1424.73 93.5682L1418.84 93.4957L1418.87 91.2005L1420.08 91.2154L1420.08 91.1472C1419.81 91.0037 1419.58 90.8132 1419.37 90.5759C1419.17 90.3385 1419.01 90.0544 1418.9 89.7234C1418.79 89.3925 1418.74 89.0111 1418.74 88.5794ZM1420.41 89.2931C1420.4 89.6491 1420.47 89.9643 1420.6 90.2387C1420.74 90.5132 1420.93 90.7296 1421.17 90.8879C1421.41 91.0461 1421.69 91.1272 1421.99 91.1309L1422.92 91.1423C1422.87 91.066 1422.83 90.9613 1422.79 90.8282C1422.75 90.6989 1422.72 90.5527 1422.69 90.3894C1422.66 90.2262 1422.63 90.063 1422.61 89.8998C1422.59 89.7366 1422.57 89.5886 1422.55 89.4559C1422.51 89.1713 1422.45 88.9224 1422.36 88.7092C1422.27 88.4959 1422.15 88.3297 1422 88.2103C1421.85 88.0911 1421.66 88.03 1421.43 88.0272C1421.1 88.0232 1420.85 88.1394 1420.67 88.3758C1420.5 88.6161 1420.41 88.9219 1420.41 89.2931ZM1418.59 99.3141C1418.6 98.4202 1418.8 97.6537 1419.19 97.0145C1419.58 96.3791 1420.12 95.8932 1420.8 95.5569C1421.48 95.2244 1422.27 95.0636 1423.15 95.0744C1424.04 95.0855 1424.83 95.2674 1425.49 95.6204C1426.17 95.9772 1426.69 96.478 1427.06 97.1227C1427.43 97.7676 1427.61 98.5312 1427.6 99.4137C1427.59 100.175 1427.44 100.84 1427.16 101.408C1426.88 101.977 1426.48 102.425 1425.98 102.752C1425.47 103.079 1424.88 103.255 1424.21 103.281L1424.24 100.997C1424.68 100.938 1425.03 100.772 1425.3 100.499C1425.57 100.23 1425.71 99.8734 1425.72 99.4302C1425.72 99.0553 1425.62 98.7264 1425.42 98.4436C1425.22 98.1646 1424.93 97.9451 1424.55 97.7851C1424.17 97.625 1423.7 97.5416 1423.15 97.5349C1422.59 97.528 1422.12 97.5979 1421.73 97.7446C1421.33 97.8951 1421.03 98.1092 1420.83 98.387C1420.62 98.6647 1420.51 98.9911 1420.51 99.3661C1420.5 99.6426 1420.55 99.8913 1420.67 100.112C1420.78 100.337 1420.94 100.523 1421.15 100.67C1421.37 100.82 1421.63 100.92 1421.94 100.969L1421.91 103.253C1421.24 103.207 1420.66 103.018 1420.15 102.686C1419.65 102.358 1419.27 101.908 1418.99 101.336C1418.71 100.765 1418.58 100.091 1418.59 99.3141ZM1425.52 104.252L1427.42 104.275L1427.31 112.184L1425.41 112.16L1425.45 109.348L1418.62 109.264L1418.66 106.957L1425.48 107.042L1425.52 104.252ZM1418.37 115.717C1418.38 115.161 1418.48 114.666 1418.68 114.232C1418.88 113.799 1419.18 113.458 1419.57 113.209C1419.95 112.964 1420.44 112.845 1421.01 112.852C1421.5 112.858 1421.9 112.952 1422.23 113.134C1422.56 113.316 1422.82 113.562 1423.02 113.871C1423.21 114.18 1423.36 114.531 1423.46 114.922C1423.55 115.317 1423.62 115.731 1423.66 116.163C1423.7 116.671 1423.75 117.081 1423.79 117.392C1423.83 117.703 1423.9 117.93 1423.99 118.071C1424.09 118.212 1424.23 118.284 1424.41 118.286L1424.44 118.287C1424.8 118.291 1425.08 118.181 1425.28 117.956C1425.48 117.735 1425.59 117.418 1425.59 117.005C1425.6 116.57 1425.51 116.222 1425.32 115.962C1425.13 115.702 1424.9 115.529 1424.61 115.442L1424.82 113.206C1425.35 113.326 1425.81 113.555 1426.19 113.893C1426.57 114.231 1426.87 114.665 1427.07 115.194C1427.27 115.727 1427.37 116.342 1427.36 117.038C1427.35 117.523 1427.29 117.987 1427.17 118.428C1427.05 118.874 1426.87 119.267 1426.63 119.609C1426.38 119.955 1426.07 120.225 1425.69 120.422C1425.32 120.618 1424.87 120.713 1424.35 120.706L1418.47 120.634L1418.5 118.339L1419.71 118.353L1419.71 118.285C1419.44 118.142 1419.2 117.951 1419 117.714C1418.8 117.477 1418.64 117.192 1418.53 116.861C1418.42 116.531 1418.37 116.149 1418.37 115.717ZM1420.03 116.431C1420.03 116.787 1420.09 117.102 1420.23 117.377C1420.37 117.651 1420.56 117.868 1420.8 118.026C1421.04 118.184 1421.31 118.265 1421.62 118.269L1422.55 118.28C1422.5 118.204 1422.45 118.099 1422.41 117.966C1422.38 117.837 1422.34 117.691 1422.31 117.527C1422.28 117.364 1422.26 117.201 1422.23 117.038C1422.21 116.875 1422.2 116.727 1422.18 116.594C1422.14 116.309 1422.08 116.06 1421.99 115.847C1421.9 115.634 1421.78 115.468 1421.63 115.348C1421.48 115.229 1421.29 115.168 1421.06 115.165C1420.73 115.161 1420.48 115.277 1420.3 115.514C1420.13 115.754 1420.04 116.06 1420.03 116.431ZM1427.06 130.249L1420.01 130.162L1419.99 131.554L1415.51 131.499L1415.54 129.147L1418.35 129.181L1418.44 122.511L1427.17 122.619L1427.14 124.931L1420.31 124.847L1420.27 127.881L1427.1 127.965L1427.06 130.249ZM1425.13 132.656L1427.03 132.679L1426.92 140.587L1425.02 140.564L1425.06 137.752L1418.23 137.668L1418.27 135.361L1425.09 135.445L1425.13 132.656ZM1418.18 141.947L1426.9 142.055L1426.85 145.776C1426.84 146.851 1426.62 147.699 1426.2 148.319C1425.79 148.939 1425.2 149.244 1424.45 149.235C1423.97 149.229 1423.58 149.048 1423.27 148.692C1422.96 148.336 1422.76 147.845 1422.66 147.219C1422.61 147.741 1422.48 148.184 1422.28 148.549C1422.08 148.918 1421.82 149.197 1421.5 149.386C1421.18 149.579 1420.83 149.674 1420.45 149.669C1419.95 149.663 1419.53 149.525 1419.18 149.255C1418.83 148.99 1418.56 148.602 1418.38 148.092C1418.19 147.586 1418.11 146.969 1418.12 146.242L1418.18 141.947ZM1419.96 144.225L1419.93 146.264C1419.92 146.602 1420 146.866 1420.16 147.057C1420.32 147.252 1420.54 147.352 1420.82 147.355C1421.13 147.359 1421.37 147.265 1421.55 147.074C1421.74 146.887 1421.83 146.625 1421.83 146.288L1421.86 144.248L1419.96 144.225ZM1423.28 144.266L1423.26 145.783C1423.26 146.025 1423.29 146.232 1423.35 146.403C1423.42 146.578 1423.52 146.712 1423.66 146.805C1423.79 146.901 1423.94 146.95 1424.12 146.953C1424.39 146.956 1424.61 146.851 1424.76 146.636C1424.91 146.422 1424.99 146.128 1425 145.753L1425.02 144.287L1423.28 144.266ZM1417.85 153.651C1417.86 153.095 1417.96 152.6 1418.16 152.166C1418.36 151.733 1418.66 151.392 1419.04 151.143C1419.43 150.898 1419.92 150.779 1420.49 150.786C1420.98 150.792 1421.38 150.886 1421.71 151.068C1422.04 151.25 1422.3 151.496 1422.5 151.805C1422.69 152.114 1422.84 152.465 1422.94 152.856C1423.03 153.251 1423.1 153.665 1423.13 154.097C1423.18 154.605 1423.22 155.015 1423.27 155.326C1423.31 155.637 1423.38 155.864 1423.47 156.005C1423.56 156.146 1423.7 156.218 1423.89 156.22L1423.92 156.221C1424.28 156.225 1424.56 156.115 1424.76 155.89C1424.96 155.669 1425.07 155.352 1425.07 154.939C1425.08 154.504 1424.99 154.156 1424.8 153.896C1424.61 153.636 1424.37 153.463 1424.09 153.376L1424.3 151.14C1424.83 151.26 1425.28 151.489 1425.67 151.827C1426.05 152.165 1426.34 152.599 1426.55 153.128C1426.75 153.661 1426.85 154.275 1426.84 154.972C1426.83 155.457 1426.77 155.92 1426.65 156.362C1426.53 156.808 1426.35 157.201 1426.1 157.543C1425.86 157.889 1425.55 158.159 1425.17 158.356C1424.8 158.552 1424.35 158.647 1423.83 158.64L1417.95 158.568L1417.98 156.272L1419.19 156.287L1419.19 156.219C1418.92 156.076 1418.68 155.885 1418.48 155.648C1418.28 155.41 1418.12 155.126 1418.01 154.795C1417.9 154.464 1417.84 154.083 1417.85 153.651ZM1419.51 154.365C1419.51 154.721 1419.57 155.036 1419.71 155.311C1419.85 155.585 1420.04 155.802 1420.28 155.96C1420.52 156.118 1420.79 156.199 1421.1 156.203L1422.03 156.214C1421.98 156.138 1421.93 156.033 1421.89 155.9C1421.86 155.771 1421.82 155.625 1421.79 155.461C1421.76 155.298 1421.74 155.135 1421.71 154.972C1421.69 154.809 1421.67 154.661 1421.66 154.528C1421.62 154.243 1421.56 153.994 1421.47 153.781C1421.38 153.568 1421.26 153.402 1421.11 153.282C1420.96 153.163 1420.77 153.102 1420.54 153.099C1420.21 153.095 1419.96 153.211 1419.78 153.448C1419.61 153.688 1419.52 153.994 1419.51 154.365Z"
          fill="#627387"/>
    <path d="M1671.49 96.2141L1669.72 96.1924L1669.8 90.8179L1659.93 90.6963L1659.96 88.5886L1671.59 88.7319L1671.49 96.2141ZM1659.83 97.7624L1668.56 97.8699L1668.53 99.9265L1659.8 99.8191L1659.83 97.7624ZM1669.78 98.9192C1669.79 98.5934 1669.9 98.3145 1670.12 98.0823C1670.34 97.8502 1670.6 97.736 1670.91 97.7398C1671.22 97.7436 1671.48 97.8643 1671.7 98.1018C1671.91 98.3393 1672.02 98.6209 1672.01 98.9467C1672.01 99.2762 1671.9 99.5551 1671.67 99.7834C1671.45 100.016 1671.19 100.13 1670.88 100.126C1670.57 100.122 1670.31 100.002 1670.09 99.764C1669.88 99.5303 1669.78 99.2487 1669.78 98.9192ZM1659.55 105.738C1659.56 104.867 1659.76 104.121 1660.15 103.501C1660.55 102.885 1661.08 102.412 1661.76 102.083C1662.44 101.758 1663.22 101.601 1664.11 101.612C1664.99 101.623 1665.77 101.803 1666.45 102.152C1667.12 102.502 1667.65 102.989 1668.02 103.615C1668.39 104.245 1668.57 104.986 1668.56 105.838C1668.55 106.546 1668.41 107.171 1668.14 107.714C1667.88 108.26 1667.51 108.693 1667.03 109.012C1666.55 109.332 1666 109.511 1665.37 109.549L1665.4 107.583C1665.82 107.509 1666.17 107.324 1666.46 107.028C1666.75 106.736 1666.89 106.342 1666.9 105.846C1666.91 105.425 1666.8 105.055 1666.58 104.734C1666.36 104.413 1666.04 104.161 1665.62 103.978C1665.2 103.798 1664.7 103.705 1664.11 103.698C1663.52 103.69 1663.01 103.771 1662.58 103.94C1662.15 104.109 1661.82 104.349 1661.58 104.661C1661.35 104.976 1661.23 105.348 1661.23 105.776C1661.22 106.079 1661.27 106.35 1661.39 106.59C1661.5 106.834 1661.67 107.039 1661.88 107.205C1662.1 107.37 1662.37 107.485 1662.68 107.55L1662.65 109.515C1662.04 109.459 1661.49 109.27 1661.02 108.95C1660.55 108.63 1660.18 108.197 1659.92 107.652C1659.66 107.107 1659.54 106.469 1659.55 105.738ZM1666.69 110.621L1668.38 110.641L1668.28 118.277L1666.59 118.256L1666.63 115.433L1659.59 115.346L1659.62 113.358L1666.66 113.444L1666.69 110.621ZM1659.31 123.252C1659.32 122.4 1659.52 121.664 1659.9 121.043C1660.29 120.423 1660.82 119.945 1661.5 119.608C1662.18 119.276 1662.97 119.115 1663.87 119.126C1664.77 119.137 1665.56 119.318 1666.23 119.667C1666.9 120.02 1667.42 120.511 1667.79 121.141C1668.15 121.77 1668.33 122.511 1668.32 123.363C1668.31 124.215 1668.11 124.952 1667.73 125.572C1667.34 126.192 1666.81 126.669 1666.13 127.001C1665.45 127.338 1664.65 127.5 1663.75 127.489C1662.85 127.478 1662.06 127.296 1661.4 126.943C1660.73 126.594 1660.21 126.104 1659.84 125.475C1659.48 124.845 1659.3 124.104 1659.31 123.252ZM1660.96 123.284C1660.95 123.746 1661.07 124.134 1661.32 124.448C1661.58 124.761 1661.92 124.997 1662.35 125.153C1662.78 125.314 1663.26 125.398 1663.79 125.404C1664.32 125.411 1664.8 125.339 1665.24 125.189C1665.68 125.043 1666.03 124.816 1666.29 124.509C1666.55 124.201 1666.68 123.817 1666.69 123.355C1666.7 122.881 1666.57 122.486 1666.32 122.168C1666.07 121.854 1665.72 121.617 1665.29 121.456C1664.86 121.3 1664.38 121.218 1663.84 121.211C1663.31 121.205 1662.83 121.275 1662.4 121.421C1661.96 121.571 1661.62 121.799 1661.35 122.107C1661.1 122.418 1660.96 122.81 1660.96 123.284ZM1656.13 129.141L1668.13 129.289L1668.1 131.311L1666.65 131.294L1666.65 131.413C1666.86 131.522 1667.09 131.674 1667.32 131.87C1667.56 132.066 1667.77 132.33 1667.93 132.662C1668.1 132.993 1668.18 133.415 1668.18 133.926C1668.17 134.6 1667.99 135.206 1667.63 135.743C1667.28 136.285 1666.77 136.71 1666.1 137.02C1665.43 137.334 1664.61 137.485 1663.64 137.473C1662.68 137.461 1661.87 137.294 1661.2 136.971C1660.53 136.649 1660.03 136.214 1659.68 135.668C1659.34 135.122 1659.17 134.507 1659.18 133.821C1659.19 133.321 1659.28 132.907 1659.45 132.58C1659.62 132.252 1659.82 131.99 1660.06 131.792C1660.3 131.598 1660.53 131.447 1660.74 131.34L1660.75 131.255L1656.1 131.198L1656.13 129.141ZM1663.73 131.252C1663.17 131.245 1662.67 131.318 1662.25 131.472C1661.82 131.63 1661.49 131.859 1661.24 132.159C1661.01 132.463 1660.88 132.832 1660.88 133.268C1660.87 133.723 1660.99 134.105 1661.22 134.414C1661.47 134.724 1661.8 134.959 1662.22 135.12C1662.65 135.284 1663.13 135.37 1663.68 135.377C1664.22 135.383 1664.7 135.311 1665.12 135.161C1665.55 135.011 1665.88 134.784 1666.12 134.48C1666.36 134.177 1666.49 133.796 1666.5 133.337C1666.5 132.898 1666.39 132.523 1666.16 132.214C1665.94 131.904 1665.62 131.667 1665.2 131.503C1664.79 131.343 1664.3 131.259 1663.73 131.252ZM1665.13 140.645L1665.09 143.218C1665.08 144.332 1664.79 145.19 1664.24 145.793C1663.69 146.397 1662.98 146.695 1662.1 146.688C1661.53 146.677 1661.02 146.53 1660.58 146.248C1660.15 145.97 1659.8 145.568 1659.56 145.042C1659.31 144.52 1659.2 143.888 1659.21 143.146L1659.26 139.18L1667.99 139.288L1667.96 141.271L1660.92 141.184L1660.89 143.167C1660.89 143.614 1661 143.982 1661.22 144.273C1661.45 144.564 1661.74 144.711 1662.1 144.716C1662.48 144.72 1662.79 144.58 1663.03 144.295C1663.27 144.01 1663.4 143.645 1663.41 143.198L1663.44 140.624L1665.13 140.645ZM1659.14 147.736L1667.87 147.844L1667.84 149.901L1659.12 149.793L1659.14 147.736ZM1659.02 157.072L1666.07 157.159L1666.1 155.296C1666.1 154.822 1666 154.457 1665.78 154.201C1665.57 153.944 1665.3 153.816 1664.97 153.816C1664.64 153.808 1664.37 153.924 1664.16 154.164C1663.94 154.403 1663.83 154.749 1663.83 155.199L1663.79 157.779L1662.29 157.76L1662.33 155.181C1662.34 154.484 1662.45 153.883 1662.68 153.378C1662.91 152.874 1663.22 152.487 1663.63 152.22C1664.03 151.952 1664.5 151.821 1665.04 151.828C1665.6 151.835 1666.09 151.979 1666.5 152.261C1666.91 152.546 1667.23 152.948 1667.45 153.466C1667.67 153.987 1667.78 154.604 1667.77 155.316L1667.72 159.106L1658.99 158.998L1659.02 157.072ZM1659.09 151.436L1663.54 153.929L1663.51 155.957L1659.07 153.459L1659.09 151.436Z"
          fill="#4C687D"/>
    <path d="M1467.66 77.6417L1467.62 79.9937C1467.61 80.9027 1467.4 81.7071 1467 82.4068C1466.6 83.1064 1466.05 83.6526 1465.33 84.0454C1464.62 84.4382 1463.8 84.6288 1462.85 84.6171C1461.92 84.6057 1461.12 84.395 1460.43 83.985C1459.74 83.575 1459.21 83.0154 1458.83 82.3061C1458.46 81.5969 1458.28 80.7878 1458.29 79.8788L1458.33 77.5268C1458.34 76.614 1458.54 75.8058 1458.93 75.1022C1459.32 74.4024 1459.87 73.8561 1460.56 73.4631C1461.26 73.0702 1462.08 72.8794 1463 72.8909C1463.95 72.9025 1464.77 73.1153 1465.47 73.5293C1466.18 73.9433 1466.72 74.5049 1467.1 75.2142C1467.48 75.9273 1467.67 76.7365 1467.66 77.6417ZM1465.87 77.6197C1465.88 77.0667 1465.77 76.5862 1465.55 76.1782C1465.33 75.7739 1465.01 75.4593 1464.57 75.2342C1464.14 75.0092 1463.61 74.8928 1462.98 74.885C1462.37 74.8775 1461.86 74.9811 1461.43 75.1955C1461.01 75.4138 1460.68 75.7243 1460.46 76.1268C1460.23 76.5294 1460.12 77.0034 1460.11 77.5488L1460.08 79.9065C1460.07 80.4557 1460.17 80.9305 1460.39 81.3309C1460.61 81.7351 1460.92 82.0477 1461.34 82.2688C1461.76 82.4937 1462.27 82.6099 1462.88 82.6173C1463.5 82.625 1464.03 82.5217 1464.47 82.3074C1464.91 82.0968 1465.25 81.7922 1465.48 81.3936C1465.71 80.9987 1465.83 80.5266 1465.84 79.9774L1465.87 77.6197ZM1469.13 79.8531L1456.81 79.7014L1456.84 77.6732L1469.15 77.8249L1469.13 79.8531ZM1457.19 86.4624L1465.92 86.5698L1465.89 88.6265L1457.16 88.519L1457.19 86.4624ZM1467.14 87.6191C1467.15 87.2934 1467.26 87.0144 1467.48 86.7822C1467.7 86.5501 1467.97 86.4359 1468.27 86.4397C1468.58 86.4436 1468.85 86.5642 1469.06 86.8017C1469.27 87.0392 1469.38 87.3209 1469.38 87.6466C1469.37 87.9761 1469.26 88.255 1469.03 88.4834C1468.82 88.7155 1468.55 88.8297 1468.24 88.8259C1467.93 88.8221 1467.67 88.7014 1467.46 88.4639C1467.24 88.2302 1467.14 87.9486 1467.14 87.6191ZM1457.14 90.0316L1458.84 90.0411L1458.83 90.3422C1458.83 90.5695 1458.88 90.7614 1458.98 90.9179C1459.08 91.0745 1459.25 91.2053 1459.48 91.3105C1459.72 91.4158 1460.05 91.4993 1460.46 91.5612C1460.87 91.623 1461.37 91.6691 1461.98 91.6993L1465.85 91.9003L1465.76 98.2633L1457.03 98.1559L1457.06 96.1674L1464.1 96.2541L1464.13 93.7487L1461.32 93.5777C1460.6 93.5346 1459.97 93.4454 1459.43 93.3101C1458.91 93.1786 1458.47 92.9951 1458.13 92.7599C1457.79 92.5284 1457.53 92.2392 1457.37 91.8925C1457.21 91.5458 1457.13 91.1376 1457.13 90.6679L1457.14 90.0316ZM1456.79 102.736C1456.8 102.183 1456.91 101.686 1457.11 101.245C1457.32 100.808 1457.62 100.463 1458.01 100.211C1458.4 99.9617 1458.89 99.8407 1459.46 99.8478C1459.95 99.8538 1460.36 99.9498 1460.68 100.136C1460.99 100.321 1461.25 100.573 1461.44 100.889C1461.63 101.206 1461.77 101.562 1461.86 101.957C1461.96 102.356 1462.03 102.768 1462.07 103.193C1462.11 103.705 1462.15 104.12 1462.19 104.439C1462.23 104.757 1462.3 104.989 1462.39 105.134C1462.48 105.283 1462.62 105.359 1462.82 105.361L1462.85 105.362C1463.28 105.367 1463.61 105.244 1463.85 104.993C1464.09 104.742 1464.21 104.378 1464.22 103.901C1464.23 103.397 1464.12 102.996 1463.91 102.698C1463.69 102.404 1463.43 102.204 1463.14 102.098L1463.44 100.181C1463.96 100.339 1464.4 100.594 1464.76 100.947C1465.11 101.3 1465.37 101.729 1465.54 102.235C1465.72 102.741 1465.8 103.299 1465.79 103.909C1465.79 104.329 1465.73 104.747 1465.63 105.163C1465.53 105.578 1465.36 105.957 1465.13 106.299C1464.9 106.641 1464.59 106.913 1464.2 107.117C1463.81 107.324 1463.33 107.424 1462.75 107.417L1456.91 107.345L1456.93 105.368L1458.13 105.383L1458.13 105.315C1457.89 105.187 1457.67 105.008 1457.46 104.778C1457.25 104.552 1457.09 104.268 1456.96 103.925C1456.84 103.587 1456.79 103.19 1456.79 102.736ZM1458.3 103.288C1458.29 103.701 1458.37 104.06 1458.53 104.365C1458.69 104.67 1458.91 104.906 1459.18 105.072C1459.45 105.242 1459.74 105.329 1460.06 105.333L1461.09 105.346C1461.04 105.281 1460.99 105.17 1460.95 105.014C1460.91 104.862 1460.87 104.691 1460.84 104.501C1460.81 104.312 1460.78 104.124 1460.75 103.938C1460.73 103.752 1460.71 103.591 1460.69 103.454C1460.65 103.147 1460.59 102.871 1460.5 102.628C1460.41 102.384 1460.28 102.191 1460.11 102.049C1459.94 101.907 1459.73 101.834 1459.46 101.831C1459.09 101.826 1458.8 101.961 1458.6 102.235C1458.4 102.509 1458.3 102.86 1458.3 103.288ZM1456.65 113.218C1456.67 112.347 1456.87 111.601 1457.26 110.981C1457.65 110.364 1458.18 109.892 1458.86 109.563C1459.55 109.238 1460.33 109.081 1461.21 109.092C1462.1 109.103 1462.88 109.283 1463.55 109.632C1464.23 109.981 1464.75 110.469 1465.12 111.095C1465.5 111.724 1465.68 112.465 1465.67 113.317C1465.66 114.026 1465.52 114.651 1465.25 115.193C1464.98 115.739 1464.61 116.172 1464.13 116.492C1463.66 116.812 1463.11 116.991 1462.48 117.028L1462.5 115.063C1462.93 114.988 1463.28 114.803 1463.56 114.507C1463.85 114.215 1464 113.821 1464.01 113.325C1464.01 112.905 1463.9 112.534 1463.68 112.213C1463.46 111.892 1463.14 111.64 1462.72 111.457C1462.31 111.278 1461.8 111.184 1461.22 111.177C1460.62 111.17 1460.11 111.251 1459.68 111.42C1459.25 111.589 1458.92 111.829 1458.69 112.14C1458.45 112.456 1458.34 112.827 1458.33 113.255C1458.33 113.558 1458.38 113.83 1458.49 114.07C1458.6 114.314 1458.77 114.518 1458.99 114.684C1459.2 114.85 1459.47 114.965 1459.78 115.029L1459.76 116.995C1459.14 116.938 1458.59 116.749 1458.12 116.429C1457.65 116.109 1457.29 115.676 1457.03 115.131C1456.77 114.587 1456.64 113.949 1456.65 113.218ZM1456.53 122.451C1456.54 121.599 1456.74 120.863 1457.12 120.242C1457.5 119.622 1458.04 119.144 1458.71 118.807C1459.39 118.475 1460.18 118.314 1461.08 118.325C1461.99 118.336 1462.77 118.516 1463.45 118.866C1464.12 119.219 1464.64 119.71 1465.01 120.34C1465.37 120.969 1465.55 121.71 1465.54 122.562C1465.53 123.414 1465.33 124.151 1464.95 124.771C1464.56 125.391 1464.03 125.868 1463.35 126.2C1462.66 126.537 1461.87 126.699 1460.97 126.688C1460.07 126.677 1459.28 126.495 1458.61 126.142C1457.94 125.793 1457.43 125.303 1457.06 124.674C1456.69 124.044 1456.52 123.303 1456.53 122.451ZM1458.17 122.483C1458.17 122.945 1458.29 123.333 1458.54 123.646C1458.79 123.96 1459.13 124.196 1459.56 124.352C1459.99 124.513 1460.47 124.597 1461 124.603C1461.54 124.61 1462.02 124.538 1462.46 124.388C1462.89 124.242 1463.24 124.015 1463.51 123.708C1463.77 123.4 1463.9 123.016 1463.91 122.553C1463.91 122.08 1463.79 121.685 1463.54 121.367C1463.28 121.053 1462.94 120.816 1462.51 120.655C1462.08 120.499 1461.6 120.417 1461.06 120.41C1460.53 120.404 1460.05 120.474 1459.62 120.62C1459.18 120.77 1458.83 120.998 1458.57 121.306C1458.31 121.617 1458.18 122.009 1458.17 122.483ZM1453.6 132.304L1468.2 132.483L1468.17 134.546L1453.57 134.366L1453.6 132.304ZM1456.39 132.338C1456.4 131.698 1456.52 131.114 1456.74 130.586C1456.96 130.059 1457.28 129.604 1457.68 129.223C1458.08 128.845 1458.56 128.554 1459.11 128.348C1459.67 128.147 1460.28 128.05 1460.95 128.059C1461.62 128.067 1462.23 128.179 1462.78 128.394C1463.33 128.613 1463.8 128.916 1464.2 129.303C1464.59 129.694 1464.89 130.157 1465.1 130.69C1465.31 131.222 1465.41 131.809 1465.4 132.449L1465.4 132.886L1456.39 132.775L1456.39 132.338ZM1458.05 132.358L1458.05 132.614L1463.74 132.684L1463.74 132.429C1463.75 132.065 1463.68 131.742 1463.53 131.46C1463.39 131.182 1463.18 130.946 1462.92 130.754C1462.66 130.565 1462.36 130.419 1462.02 130.316C1461.68 130.217 1461.31 130.166 1460.92 130.161C1460.4 130.154 1459.93 130.234 1459.49 130.399C1459.06 130.564 1458.72 130.81 1458.45 131.136C1458.19 131.466 1458.06 131.874 1458.05 132.358ZM1456.36 134.4L1456.37 133.963L1465.38 134.074L1465.37 134.511C1465.37 135.151 1465.25 135.735 1465.03 136.263C1464.8 136.79 1464.49 137.243 1464.08 137.621C1463.68 138.002 1463.2 138.294 1462.64 138.495C1462.09 138.7 1461.47 138.799 1460.8 138.791C1460.13 138.782 1459.52 138.669 1458.97 138.45C1458.43 138.235 1457.96 137.932 1457.56 137.54C1457.17 137.153 1456.87 136.693 1456.66 136.16C1456.45 135.627 1456.35 135.04 1456.36 134.4ZM1458.02 134.421C1458.02 134.788 1458.09 135.111 1458.23 135.389C1458.37 135.668 1458.58 135.901 1458.83 136.09C1459.09 136.283 1459.39 136.428 1459.73 136.527C1460.08 136.626 1460.44 136.678 1460.83 136.683C1461.35 136.689 1461.83 136.612 1462.26 136.45C1462.7 136.289 1463.04 136.043 1463.31 135.713C1463.57 135.387 1463.71 134.979 1463.72 134.491L1463.72 134.235L1458.03 134.165L1458.02 134.421ZM1456.45 140.473L1465.18 140.58L1465.15 142.637L1456.42 142.53L1456.45 140.473ZM1466.4 141.63C1466.41 141.304 1466.52 141.025 1466.74 140.793C1466.96 140.561 1467.22 140.446 1467.53 140.45C1467.84 140.454 1468.1 140.575 1468.32 140.812C1468.53 141.05 1468.64 141.331 1468.63 141.657C1468.63 141.987 1468.52 142.266 1468.29 142.494C1468.07 142.726 1467.81 142.84 1467.5 142.836C1467.19 142.833 1466.93 142.712 1466.71 142.474C1466.5 142.241 1466.4 141.959 1466.4 141.63ZM1456.32 149.803L1463.38 149.89L1463.4 148.026C1463.41 147.553 1463.31 147.188 1463.09 146.932C1462.87 146.675 1462.6 146.547 1462.28 146.547C1461.95 146.539 1461.68 146.655 1461.46 146.894C1461.25 147.134 1461.14 147.48 1461.13 147.93L1461.1 150.51L1459.6 150.491L1459.63 147.912C1459.64 147.215 1459.76 146.614 1459.99 146.109C1460.21 145.604 1460.53 145.218 1460.93 144.95C1461.34 144.683 1461.81 144.552 1462.35 144.559C1462.91 144.566 1463.39 144.71 1463.8 144.991C1464.22 145.277 1464.53 145.678 1464.75 146.196C1464.98 146.718 1465.08 147.335 1465.07 148.047L1465.02 151.836L1456.3 151.729L1456.32 149.803ZM1456.4 144.167L1460.84 146.66L1460.82 148.688L1456.37 146.19L1456.4 144.167Z"
          fill="#DCDFF0"/>
    <ellipse cx="1496.69" cy="33.1982" rx="7.95277" ry="4.4589" fill="#C8D1D7"/>
    <rect width="15.0866" height="0.975294" transform="matrix(0.961749 0.273933 -0.303277 0.952902 1338.87 76.4414)" fill="white"/>
    <rect width="14.8908" height="1.01128" transform="matrix(0.961749 0.273933 -0.303277 0.952902 1340.09 72.5703)" fill="white"/>
    <rect width="14.8908" height="1.01128" transform="matrix(0.961749 0.273933 -0.303277 0.952902 1341.33 68.6992)" fill="white"/>
    <path d="M1677.61 31.2881L1685.96 34.228V44.0278L1676.42 34.228L1677.61 31.2881Z" fill="#3B5364"/>
</svg>
