<svg width="1920" height="215" viewBox="0 0 1920 215" fill="none" xmlns="http://www.w3.org/2000/svg">
    <rect width="1920" height="215" fill="white"/>
    <rect x="331" y="84" width="123" height="63" fill="#335B7F"/>
    <path d="M151.25 125H157.625L162.969 132.031L164.375 133.906L172.344 144.5H165.969L160.719 137.469L159.406 135.687L151.25 125ZM174.313 116C174.313 121.062 173.398 125.437 171.57 129.125C169.742 132.812 167.234 135.656 164.047 137.656C160.859 139.656 157.219 140.656 153.125 140.656C149.031 140.656 145.391 139.656 142.203 137.656C139.016 135.656 136.508 132.812 134.68 129.125C132.852 125.437 131.938 121.062 131.938 116C131.938 110.937 132.852 106.562 134.68 102.875C136.508 99.1875 139.016 96.3438 142.203 94.3437C145.391 92.3437 149.031 91.3437 153.125 91.3437C157.219 91.3437 160.859 92.3437 164.047 94.3437C167.234 96.3438 169.742 99.1875 171.57 102.875C173.398 106.562 174.313 110.937 174.313 116ZM168.688 116C168.688 111.844 167.992 108.336 166.602 105.477C165.227 102.617 163.359 100.453 161 98.9844C158.656 97.5156 156.031 96.7812 153.125 96.7812C150.219 96.7812 147.586 97.5156 145.227 98.9844C142.883 100.453 141.016 102.617 139.625 105.477C138.25 108.336 137.563 111.844 137.563 116C137.563 120.156 138.25 123.664 139.625 126.523C141.016 129.383 142.883 131.547 145.227 133.016C147.586 134.484 150.219 135.219 153.125 135.219C156.031 135.219 158.656 134.484 161 133.016C163.359 131.547 165.227 129.383 166.602 126.523C167.992 123.664 168.688 120.156 168.688 116ZM206.023 125.281V104H211.555V140H206.023V133.906H205.648C204.805 135.734 203.492 137.289 201.711 138.57C199.93 139.836 197.68 140.469 194.961 140.469C192.711 140.469 190.711 139.977 188.961 138.992C187.211 137.992 185.836 136.492 184.836 134.492C183.836 132.477 183.336 129.937 183.336 126.875V104H188.867V126.5C188.867 129.125 189.602 131.219 191.07 132.781C192.555 134.344 194.445 135.125 196.742 135.125C198.117 135.125 199.516 134.773 200.938 134.07C202.375 133.367 203.578 132.289 204.547 130.836C205.531 129.383 206.023 127.531 206.023 125.281ZM236.311 140.75C233.061 140.75 230.209 139.977 227.756 138.43C225.318 136.883 223.412 134.719 222.037 131.937C220.678 129.156 219.998 125.906 219.998 122.187C219.998 118.437 220.678 115.164 222.037 112.367C223.412 109.57 225.318 107.398 227.756 105.852C230.209 104.305 233.061 103.531 236.311 103.531C239.561 103.531 242.404 104.305 244.842 105.852C247.295 107.398 249.201 109.57 250.561 112.367C251.936 115.164 252.623 118.437 252.623 122.187C252.623 125.906 251.936 129.156 250.561 131.937C249.201 134.719 247.295 136.883 244.842 138.43C242.404 139.977 239.561 140.75 236.311 140.75ZM236.311 135.781C238.779 135.781 240.811 135.148 242.404 133.883C243.998 132.617 245.178 130.953 245.943 128.891C246.709 126.828 247.092 124.594 247.092 122.187C247.092 119.781 246.709 117.539 245.943 115.461C245.178 113.383 243.998 111.703 242.404 110.422C240.811 109.141 238.779 108.5 236.311 108.5C233.842 108.5 231.811 109.141 230.217 110.422C228.623 111.703 227.443 113.383 226.678 115.461C225.912 117.539 225.529 119.781 225.529 122.187C225.529 124.594 225.912 126.828 226.678 128.891C227.443 130.953 228.623 132.617 230.217 133.883C231.811 135.148 233.842 135.781 236.311 135.781ZM276.723 104V108.687H258.066V104H276.723ZM263.504 95.375H269.035V129.688C269.035 131.25 269.262 132.422 269.715 133.203C270.184 133.969 270.777 134.484 271.496 134.75C272.23 135 273.004 135.125 273.816 135.125C274.426 135.125 274.926 135.094 275.316 135.031C275.707 134.953 276.02 134.891 276.254 134.844L277.379 139.812C277.004 139.953 276.48 140.094 275.809 140.234C275.137 140.391 274.285 140.469 273.254 140.469C271.691 140.469 270.16 140.133 268.66 139.461C267.176 138.789 265.941 137.766 264.957 136.391C263.988 135.016 263.504 133.281 263.504 131.187V95.375ZM299.75 140.75C296.281 140.75 293.289 139.984 290.773 138.453C288.273 136.906 286.344 134.75 284.984 131.984C283.641 129.203 282.969 125.969 282.969 122.281C282.969 118.594 283.641 115.344 284.984 112.531C286.344 109.703 288.234 107.5 290.656 105.922C293.094 104.328 295.938 103.531 299.188 103.531C301.063 103.531 302.914 103.844 304.742 104.469C306.57 105.094 308.234 106.109 309.734 107.516C311.234 108.906 312.43 110.75 313.32 113.047C314.211 115.344 314.656 118.172 314.656 121.531V123.875H286.906V119.094H309.031C309.031 117.062 308.625 115.25 307.813 113.656C307.016 112.062 305.875 110.805 304.391 109.883C302.922 108.961 301.188 108.5 299.188 108.5C296.984 108.5 295.078 109.047 293.469 110.141C291.875 111.219 290.648 112.625 289.789 114.359C288.93 116.094 288.5 117.953 288.5 119.937V123.125C288.5 125.844 288.969 128.148 289.906 130.039C290.859 131.914 292.18 133.344 293.867 134.328C295.555 135.297 297.516 135.781 299.75 135.781C301.203 135.781 302.516 135.578 303.688 135.172C304.875 134.75 305.898 134.125 306.758 133.297C307.617 132.453 308.281 131.406 308.75 130.156L314.094 131.656C313.531 133.469 312.586 135.062 311.258 136.437C309.93 137.797 308.289 138.859 306.336 139.625C304.383 140.375 302.188 140.75 299.75 140.75Z"
          fill="#345B80"/>
    <path d="M347.164 92V140H341.633V92H347.164ZM357.295 140V104H362.826V140H357.295ZM360.107 98C359.029 98 358.1 97.6328 357.318 96.8984C356.553 96.1641 356.17 95.2813 356.17 94.25C356.17 93.2188 356.553 92.3359 357.318 91.6016C358.1 90.8672 359.029 90.5 360.107 90.5C361.186 90.5 362.107 90.8672 362.873 91.6016C363.654 92.3359 364.045 93.2188 364.045 94.25C364.045 95.2813 363.654 96.1641 362.873 96.8984C362.107 97.6328 361.186 98 360.107 98ZM398.457 112.062L393.488 113.469C393.176 112.641 392.715 111.836 392.105 111.055C391.512 110.258 390.699 109.602 389.668 109.086C388.637 108.57 387.316 108.312 385.707 108.312C383.504 108.312 381.668 108.82 380.199 109.836C378.746 110.836 378.02 112.109 378.02 113.656C378.02 115.031 378.52 116.117 379.52 116.914C380.52 117.711 382.082 118.375 384.207 118.906L389.551 120.219C392.77 121 395.168 122.195 396.746 123.805C398.324 125.398 399.113 127.453 399.113 129.969C399.113 132.031 398.52 133.875 397.332 135.5C396.16 137.125 394.52 138.406 392.41 139.344C390.301 140.281 387.848 140.75 385.051 140.75C381.379 140.75 378.34 139.953 375.934 138.359C373.527 136.766 372.004 134.437 371.363 131.375L376.613 130.062C377.113 132 378.059 133.453 379.449 134.422C380.855 135.391 382.691 135.875 384.957 135.875C387.535 135.875 389.582 135.328 391.098 134.234C392.629 133.125 393.395 131.797 393.395 130.25C393.395 129 392.957 127.953 392.082 127.109C391.207 126.25 389.863 125.609 388.051 125.187L382.051 123.781C378.754 123 376.332 121.789 374.785 120.148C373.254 118.492 372.488 116.422 372.488 113.937C372.488 111.906 373.059 110.109 374.199 108.547C375.355 106.984 376.926 105.758 378.91 104.867C380.91 103.977 383.176 103.531 385.707 103.531C389.27 103.531 392.066 104.312 394.098 105.875C396.145 107.437 397.598 109.5 398.457 112.062ZM423.096 104V108.687H404.439V104H423.096ZM409.877 95.375H415.408V129.688C415.408 131.25 415.635 132.422 416.088 133.203C416.557 133.969 417.15 134.484 417.869 134.75C418.604 135 419.377 135.125 420.189 135.125C420.799 135.125 421.299 135.094 421.689 135.031C422.08 134.953 422.393 134.891 422.627 134.844L423.752 139.812C423.377 139.953 422.854 140.094 422.182 140.234C421.51 140.391 420.658 140.469 419.627 140.469C418.064 140.469 416.533 140.133 415.033 139.461C413.549 138.789 412.314 137.766 411.33 136.391C410.361 135.016 409.877 133.281 409.877 131.187V95.375Z"
          fill="white"/>
    <path d="M522.616 73.6364H526.783L531.764 82.6449H531.963L536.945 73.6364H541.111L533.703 86.4034V94H530.024V86.4034L522.616 73.6364ZM547.382 94.2983C545.891 94.2983 544.598 93.9702 543.505 93.3139C542.411 92.6577 541.562 91.7396 540.959 90.5597C540.363 89.3797 540.064 88.0009 540.064 86.4233C540.064 84.8456 540.363 83.4635 540.959 82.277C541.562 81.0904 542.411 80.169 543.505 79.5128C544.598 78.8565 545.891 78.5284 547.382 78.5284C548.874 78.5284 550.167 78.8565 551.26 79.5128C552.354 80.169 553.199 81.0904 553.796 82.277C554.399 83.4635 554.701 84.8456 554.701 86.4233C554.701 88.0009 554.399 89.3797 553.796 90.5597C553.199 91.7396 552.354 92.6577 551.26 93.3139C550.167 93.9702 548.874 94.2983 547.382 94.2983ZM547.402 91.4148C548.211 91.4148 548.887 91.1927 549.431 90.7486C549.974 90.2978 550.379 89.6946 550.644 88.9389C550.916 88.1832 551.051 87.3414 551.051 86.4134C551.051 85.4787 550.916 84.6335 550.644 83.8778C550.379 83.1155 549.974 82.509 549.431 82.0582C548.887 81.6075 548.211 81.3821 547.402 81.3821C546.574 81.3821 545.884 81.6075 545.334 82.0582C544.791 82.509 544.383 83.1155 544.111 83.8778C543.846 84.6335 543.713 85.4787 543.713 86.4134C543.713 87.3414 543.846 88.1832 544.111 88.9389C544.383 89.6946 544.791 90.2978 545.334 90.7486C545.884 91.1927 546.574 91.4148 547.402 91.4148ZM567.49 87.5767V78.7273H571.089V94H567.599V91.2855H567.44C567.096 92.1406 566.529 92.84 565.74 93.3835C564.958 93.9271 563.993 94.1989 562.847 94.1989C561.846 94.1989 560.961 93.9768 560.192 93.5327C559.429 93.0819 558.833 92.429 558.402 91.5739C557.971 90.7121 557.756 89.6714 557.756 88.4517V78.7273H561.355V87.8949C561.355 88.8627 561.62 89.6316 562.151 90.2017C562.681 90.7718 563.377 91.0568 564.239 91.0568C564.769 91.0568 565.283 90.9276 565.78 90.669C566.277 90.4105 566.685 90.026 567.003 89.5156C567.328 88.9986 567.49 88.3523 567.49 87.5767ZM574.791 94V78.7273H578.281V81.2727H578.44C578.718 80.3911 579.196 79.7116 579.872 79.2344C580.555 78.7505 581.333 78.5085 582.208 78.5085C582.407 78.5085 582.629 78.5185 582.875 78.5384C583.127 78.5516 583.335 78.5748 583.501 78.608V81.919C583.349 81.866 583.107 81.8196 582.775 81.7798C582.45 81.7334 582.136 81.7102 581.831 81.7102C581.174 81.7102 580.584 81.8527 580.061 82.1378C579.544 82.4162 579.136 82.804 578.838 83.3011C578.539 83.7983 578.39 84.3717 578.39 85.0213V94H574.791ZM596.437 73.6364V94H592.838V73.6364H596.437ZM600.138 94V78.7273H603.738V94H600.138ZM601.948 76.5597C601.378 76.5597 600.888 76.3707 600.477 75.9929C600.066 75.6084 599.86 75.1477 599.86 74.6108C599.86 74.0672 600.066 73.6065 600.477 73.2287C600.888 72.8442 601.378 72.652 601.948 72.652C602.525 72.652 603.015 72.8442 603.42 73.2287C603.831 73.6065 604.036 74.0672 604.036 74.6108C604.036 75.1477 603.831 75.6084 603.42 75.9929C603.015 76.3707 602.525 76.5597 601.948 76.5597ZM607.598 94V73.6364H611.198V81.2528H611.347C611.533 80.8816 611.794 80.4872 612.132 80.0696C612.471 79.6454 612.928 79.2841 613.505 78.9858C614.081 78.6809 614.817 78.5284 615.712 78.5284C616.892 78.5284 617.956 78.83 618.904 79.4332C619.858 80.0298 620.614 80.9148 621.171 82.0881C621.734 83.2547 622.016 84.6866 622.016 86.3835C622.016 88.0606 621.741 89.4858 621.191 90.6591C620.641 91.8324 619.891 92.7273 618.944 93.3438C617.996 93.9602 616.922 94.2685 615.722 94.2685C614.847 94.2685 614.121 94.1226 613.544 93.831C612.968 93.5393 612.504 93.188 612.152 92.777C611.808 92.3594 611.539 91.965 611.347 91.5938H611.138V94H607.598ZM611.128 86.3636C611.128 87.3513 611.267 88.2164 611.546 88.9588C611.831 89.7012 612.239 90.2812 612.769 90.6989C613.306 91.1098 613.955 91.3153 614.718 91.3153C615.513 91.3153 616.179 91.1032 616.716 90.679C617.253 90.2481 617.658 89.6615 617.929 88.919C618.208 88.17 618.347 87.3182 618.347 86.3636C618.347 85.4157 618.211 84.5739 617.939 83.8381C617.667 83.1023 617.263 82.5256 616.726 82.108C616.189 81.6903 615.52 81.4815 614.718 81.4815C613.949 81.4815 613.296 81.6837 612.759 82.0881C612.222 82.4924 611.814 83.0592 611.536 83.7884C611.264 84.5175 611.128 85.3759 611.128 86.3636ZM625.076 94V78.7273H628.566V81.2727H628.725C629.004 80.3911 629.481 79.7116 630.157 79.2344C630.84 78.7505 631.619 78.5085 632.494 78.5085C632.692 78.5085 632.915 78.5185 633.16 78.5384C633.412 78.5516 633.621 78.5748 633.786 78.608V81.919C633.634 81.866 633.392 81.8196 633.06 81.7798C632.736 81.7334 632.421 81.7102 632.116 81.7102C631.46 81.7102 630.87 81.8527 630.346 82.1378C629.829 82.4162 629.421 82.804 629.123 83.3011C628.825 83.7983 628.675 84.3717 628.675 85.0213V94H625.076ZM640.299 94.3082C639.331 94.3082 638.46 94.1359 637.684 93.7912C636.915 93.4399 636.305 92.9228 635.854 92.2401C635.41 91.5573 635.188 90.7154 635.188 89.7145C635.188 88.8527 635.347 88.1402 635.665 87.5767C635.984 87.0133 636.418 86.5625 636.968 86.2244C637.518 85.8864 638.138 85.6312 638.827 85.4588C639.523 85.2798 640.243 85.1506 640.985 85.071C641.88 84.9782 642.606 84.8954 643.163 84.8224C643.719 84.7429 644.124 84.6236 644.376 84.4645C644.634 84.2988 644.763 84.0436 644.763 83.6989V83.6392C644.763 82.8902 644.541 82.3101 644.097 81.8991C643.653 81.4882 643.013 81.2827 642.178 81.2827C641.297 81.2827 640.597 81.4749 640.08 81.8594C639.57 82.2438 639.225 82.6979 639.046 83.2216L635.685 82.7443C635.951 81.8163 636.388 81.0407 636.998 80.4176C637.608 79.7879 638.353 79.3172 639.235 79.0057C640.117 78.6875 641.091 78.5284 642.158 78.5284C642.894 78.5284 643.627 78.6146 644.356 78.7869C645.085 78.9593 645.751 79.2443 646.354 79.642C646.958 80.0331 647.442 80.5668 647.806 81.2429C648.177 81.919 648.363 82.7642 648.363 83.7784V94H644.903V91.902H644.783C644.565 92.3262 644.256 92.724 643.859 93.0952C643.468 93.4598 642.974 93.7547 642.377 93.9801C641.787 94.1989 641.094 94.3082 640.299 94.3082ZM641.234 91.6634C641.956 91.6634 642.583 91.5208 643.113 91.2358C643.643 90.9441 644.051 90.5597 644.336 90.0824C644.628 89.6051 644.773 89.0848 644.773 88.5213V86.7216C644.661 86.8144 644.469 86.9006 644.197 86.9801C643.932 87.0597 643.633 87.1293 643.302 87.1889C642.97 87.2486 642.642 87.3016 642.317 87.348C641.993 87.3944 641.711 87.4342 641.472 87.4673C640.935 87.5402 640.455 87.6596 640.031 87.8253C639.606 87.991 639.272 88.223 639.026 88.5213C638.781 88.813 638.658 89.1908 638.658 89.6548C638.658 90.3177 638.9 90.8182 639.384 91.1562C639.868 91.4943 640.485 91.6634 641.234 91.6634ZM651.982 94V78.7273H655.472V81.2727H655.631C655.91 80.3911 656.387 79.7116 657.063 79.2344C657.746 78.7505 658.525 78.5085 659.4 78.5085C659.599 78.5085 659.821 78.5185 660.066 78.5384C660.318 78.5516 660.527 78.5748 660.692 78.608V81.919C660.54 81.866 660.298 81.8196 659.967 81.7798C659.642 81.7334 659.327 81.7102 659.022 81.7102C658.366 81.7102 657.776 81.8527 657.252 82.1378C656.735 82.4162 656.327 82.804 656.029 83.3011C655.731 83.7983 655.582 84.3717 655.582 85.0213V94H651.982ZM665.786 99.7273C665.295 99.7273 664.841 99.6875 664.424 99.608C664.013 99.535 663.685 99.4489 663.439 99.3494L664.275 96.5455C664.798 96.6979 665.266 96.7708 665.676 96.7642C666.087 96.7576 666.449 96.6283 666.76 96.3764C667.078 96.1312 667.347 95.7202 667.566 95.1435L667.874 94.3182L662.336 78.7273H666.154L669.674 90.2614H669.833L673.363 78.7273H677.191L671.076 95.8494C670.791 96.6581 670.413 97.3509 669.942 97.9276C669.471 98.5109 668.895 98.955 668.212 99.2599C667.536 99.5715 666.727 99.7273 665.786 99.7273ZM693.289 94.2983C691.797 94.2983 690.505 93.9702 689.411 93.3139C688.317 92.6577 687.469 91.7396 686.865 90.5597C686.269 89.3797 685.971 88.0009 685.971 86.4233C685.971 84.8456 686.269 83.4635 686.865 82.277C687.469 81.0904 688.317 80.169 689.411 79.5128C690.505 78.8565 691.797 78.5284 693.289 78.5284C694.78 78.5284 696.073 78.8565 697.167 79.5128C698.26 80.169 699.105 81.0904 699.702 82.277C700.305 83.4635 700.607 84.8456 700.607 86.4233C700.607 88.0009 700.305 89.3797 699.702 90.5597C699.105 91.7396 698.26 92.6577 697.167 93.3139C696.073 93.9702 694.78 94.2983 693.289 94.2983ZM693.309 91.4148C694.117 91.4148 694.793 91.1927 695.337 90.7486C695.881 90.2978 696.285 89.6946 696.55 88.9389C696.822 88.1832 696.958 87.3414 696.958 86.4134C696.958 85.4787 696.822 84.6335 696.55 83.8778C696.285 83.1155 695.881 82.509 695.337 82.0582C694.793 81.6075 694.117 81.3821 693.309 81.3821C692.48 81.3821 691.791 81.6075 691.24 82.0582C690.697 82.509 690.289 83.1155 690.017 83.8778C689.752 84.6335 689.62 85.4787 689.62 86.4134C689.62 87.3414 689.752 88.1832 690.017 88.9389C690.289 89.6946 690.697 90.2978 691.24 90.7486C691.791 91.1927 692.48 91.4148 693.309 91.4148ZM711.398 78.7273V81.5114H702.369V78.7273H711.398ZM704.626 94V77.2855C704.626 76.258 704.839 75.4029 705.263 74.7202C705.694 74.0374 706.27 73.527 706.993 73.1889C707.715 72.8509 708.518 72.6818 709.399 72.6818C710.022 72.6818 710.576 72.7315 711.06 72.831C711.544 72.9304 711.902 73.0199 712.134 73.0994L711.418 75.8835C711.265 75.8371 711.073 75.7907 710.841 75.7443C710.609 75.6913 710.35 75.6648 710.065 75.6648C709.396 75.6648 708.922 75.8272 708.643 76.152C708.372 76.4702 708.236 76.9276 708.236 77.5241V94H704.626ZM731.354 99.7273V91.5938H731.205C731.019 91.965 730.75 92.3594 730.399 92.777C730.048 93.188 729.584 93.5393 729.007 93.831C728.43 94.1226 727.705 94.2685 726.83 94.2685C725.63 94.2685 724.556 93.9602 723.608 93.3438C722.66 92.7273 721.911 91.8324 721.361 90.6591C720.811 89.4858 720.536 88.0606 720.536 86.3835C720.536 84.6866 720.814 83.2547 721.371 82.0881C721.934 80.9148 722.693 80.0298 723.648 79.4332C724.602 78.83 725.666 78.5284 726.839 78.5284C727.734 78.5284 728.47 78.6809 729.047 78.9858C729.624 79.2841 730.081 79.6454 730.419 80.0696C730.757 80.4872 731.019 80.8816 731.205 81.2528H731.423V78.7273H734.963V99.7273H731.354ZM727.834 91.3153C728.596 91.3153 729.246 91.1098 729.783 90.6989C730.32 90.2812 730.727 89.7012 731.006 88.9588C731.284 88.2164 731.423 87.3513 731.423 86.3636C731.423 85.3759 731.284 84.5175 731.006 83.7884C730.734 83.0592 730.33 82.4924 729.793 82.0881C729.262 81.6837 728.609 81.4815 727.834 81.4815C727.032 81.4815 726.362 81.6903 725.825 82.108C725.288 82.5256 724.884 83.1023 724.612 83.8381C724.34 84.5739 724.205 85.4157 724.205 86.3636C724.205 87.3182 724.34 88.17 724.612 88.919C724.891 89.6615 725.298 90.2481 725.835 90.679C726.379 91.1032 727.045 91.3153 727.834 91.3153ZM748.396 87.5767V78.7273H751.996V94H748.506V91.2855H748.347C748.002 92.1406 747.435 92.84 746.646 93.3835C745.864 93.9271 744.9 94.1989 743.753 94.1989C742.752 94.1989 741.867 93.9768 741.098 93.5327C740.336 93.0819 739.739 92.429 739.308 91.5739C738.877 90.7121 738.662 89.6714 738.662 88.4517V78.7273H742.261V87.8949C742.261 88.8627 742.527 89.6316 743.057 90.2017C743.587 90.7718 744.283 91.0568 745.145 91.0568C745.675 91.0568 746.189 90.9276 746.686 90.669C747.183 90.4105 747.591 90.026 747.909 89.5156C748.234 88.9986 748.396 88.3523 748.396 87.5767ZM762.359 94.2983C760.868 94.2983 759.575 93.9702 758.481 93.3139C757.387 92.6577 756.539 91.7396 755.936 90.5597C755.339 89.3797 755.041 88.0009 755.041 86.4233C755.041 84.8456 755.339 83.4635 755.936 82.277C756.539 81.0904 757.387 80.169 758.481 79.5128C759.575 78.8565 760.868 78.5284 762.359 78.5284C763.85 78.5284 765.143 78.8565 766.237 79.5128C767.331 80.169 768.176 81.0904 768.772 82.277C769.376 83.4635 769.677 84.8456 769.677 86.4233C769.677 88.0009 769.376 89.3797 768.772 90.5597C768.176 91.7396 767.331 92.6577 766.237 93.3139C765.143 93.9702 763.85 94.2983 762.359 94.2983ZM762.379 91.4148C763.188 91.4148 763.864 91.1927 764.407 90.7486C764.951 90.2978 765.355 89.6946 765.62 88.9389C765.892 88.1832 766.028 87.3414 766.028 86.4134C766.028 85.4787 765.892 84.6335 765.62 83.8778C765.355 83.1155 764.951 82.509 764.407 82.0582C763.864 81.6075 763.188 81.3821 762.379 81.3821C761.55 81.3821 760.861 81.6075 760.311 82.0582C759.767 82.509 759.359 83.1155 759.088 83.8778C758.823 84.6335 758.69 85.4787 758.69 86.4134C758.69 87.3414 758.823 88.1832 759.088 88.9389C759.359 89.6946 759.767 90.2978 760.311 90.7486C760.861 91.1927 761.55 91.4148 762.379 91.4148ZM780.359 78.7273V81.5114H771.579V78.7273H780.359ZM773.746 75.0682H777.346V89.4062C777.346 89.8902 777.419 90.2614 777.565 90.5199C777.717 90.7718 777.916 90.9441 778.161 91.0369C778.406 91.1297 778.678 91.1761 778.977 91.1761C779.202 91.1761 779.407 91.1596 779.593 91.1264C779.785 91.0933 779.931 91.0634 780.031 91.0369L780.637 93.8509C780.445 93.9171 780.17 93.9901 779.812 94.0696C779.46 94.1491 779.03 94.1955 778.519 94.2088C777.618 94.2353 776.806 94.0994 776.083 93.8011C775.361 93.4962 774.787 93.0256 774.363 92.3892C773.945 91.7528 773.74 90.9574 773.746 90.0028V75.0682ZM789.966 94.2983C788.435 94.2983 787.113 93.9801 785.999 93.3438C784.892 92.7008 784.04 91.7926 783.444 90.6193C782.847 89.4394 782.549 88.0507 782.549 86.4531C782.549 84.8821 782.847 83.5033 783.444 82.3168C784.047 81.1236 784.889 80.1955 785.969 79.5327C787.05 78.8632 788.319 78.5284 789.777 78.5284C790.719 78.5284 791.607 78.6809 792.442 78.9858C793.284 79.2841 794.026 79.7481 794.669 80.3778C795.319 81.0076 795.829 81.8097 796.201 82.7841C796.572 83.7519 796.757 84.9053 796.757 86.2443V87.348H784.239V84.9219H793.307C793.301 84.2325 793.151 83.6193 792.86 83.0824C792.568 82.5388 792.16 82.1113 791.637 81.7997C791.12 81.4882 790.516 81.3324 789.827 81.3324C789.091 81.3324 788.445 81.5114 787.888 81.8693C787.331 82.2206 786.897 82.6847 786.586 83.2614C786.281 83.8314 786.125 84.4579 786.118 85.1406V87.2585C786.118 88.1468 786.281 88.9091 786.605 89.5455C786.93 90.1752 787.384 90.6591 787.968 90.9972C788.551 91.3286 789.234 91.4943 790.016 91.4943C790.54 91.4943 791.014 91.4214 791.438 91.2756C791.862 91.1231 792.23 90.901 792.542 90.6094C792.853 90.3177 793.088 89.9564 793.248 89.5256L796.608 89.9034C796.396 90.7917 795.992 91.5672 795.395 92.2301C794.805 92.8864 794.05 93.3968 793.128 93.7614C792.207 94.1193 791.153 94.2983 789.966 94.2983ZM811.874 82.7642L808.592 83.1222C808.5 82.7907 808.337 82.4792 808.105 82.1875C807.88 81.8958 807.575 81.6605 807.19 81.4815C806.806 81.3026 806.335 81.2131 805.778 81.2131C805.029 81.2131 804.4 81.3755 803.889 81.7003C803.385 82.0251 803.137 82.446 803.143 82.9631C803.137 83.4072 803.299 83.7685 803.631 84.0469C803.969 84.3253 804.526 84.554 805.301 84.733L807.906 85.2898C809.351 85.6013 810.425 86.0952 811.128 86.7713C811.837 87.4474 812.195 88.3324 812.202 89.4261C812.195 90.3873 811.913 91.2358 811.357 91.9716C810.806 92.7008 810.041 93.2708 809.06 93.6818C808.079 94.0928 806.952 94.2983 805.679 94.2983C803.81 94.2983 802.305 93.9072 801.165 93.125C800.025 92.3362 799.345 91.2391 799.126 89.8338L802.636 89.4957C802.795 90.1851 803.134 90.7055 803.651 91.0568C804.168 91.4081 804.84 91.5838 805.669 91.5838C806.524 91.5838 807.21 91.4081 807.727 91.0568C808.251 90.7055 808.513 90.2713 808.513 89.7543C808.513 89.3168 808.344 88.9555 808.006 88.6705C807.674 88.3854 807.157 88.1667 806.455 88.0142L803.849 87.4673C802.384 87.1624 801.301 86.6487 800.598 85.9261C799.895 85.197 799.547 84.2756 799.554 83.1619C799.547 82.2206 799.803 81.4053 800.32 80.7159C800.843 80.0199 801.569 79.483 802.497 79.1051C803.432 78.7206 804.509 78.5284 805.729 78.5284C807.518 78.5284 808.927 78.9096 809.955 79.6719C810.989 80.4342 811.628 81.465 811.874 82.7642Z"
          fill="#335B7F"/>
    <path d="M523.761 135V120.455H528.676C529.813 120.455 530.745 120.649 531.474 121.037C532.204 121.42 532.743 121.948 533.094 122.621C533.444 123.293 533.619 124.058 533.619 124.915C533.619 125.772 533.444 126.532 533.094 127.195C532.743 127.857 532.206 128.378 531.482 128.757C530.757 129.131 529.831 129.318 528.705 129.318H524.727V127.727H528.648C529.424 127.727 530.049 127.614 530.523 127.386C531.001 127.159 531.347 126.837 531.56 126.42C531.777 125.999 531.886 125.497 531.886 124.915C531.886 124.332 531.777 123.823 531.56 123.388C531.342 122.952 530.994 122.616 530.516 122.379C530.037 122.138 529.405 122.017 528.619 122.017H525.523V135H523.761ZM530.608 128.466L534.188 135H532.142L528.619 128.466H530.608ZM540.784 135.227C539.733 135.227 538.826 134.995 538.064 134.531C537.306 134.062 536.721 133.409 536.309 132.571C535.902 131.728 535.699 130.748 535.699 129.631C535.699 128.513 535.902 127.528 536.309 126.676C536.721 125.819 537.294 125.152 538.028 124.673C538.767 124.19 539.628 123.949 540.613 123.949C541.181 123.949 541.743 124.044 542.297 124.233C542.85 124.422 543.355 124.73 543.809 125.156C544.264 125.578 544.626 126.136 544.896 126.832C545.166 127.528 545.301 128.385 545.301 129.403V130.114H536.892V128.665H543.596C543.596 128.049 543.473 127.5 543.227 127.017C542.985 126.534 542.64 126.153 542.19 125.874C541.745 125.594 541.219 125.455 540.613 125.455C539.946 125.455 539.368 125.62 538.88 125.952C538.397 126.278 538.026 126.705 537.765 127.23C537.505 127.756 537.375 128.319 537.375 128.92V129.886C537.375 130.71 537.517 131.409 537.801 131.982C538.09 132.55 538.49 132.983 539.001 133.281C539.512 133.575 540.107 133.722 540.784 133.722C541.224 133.722 541.622 133.66 541.977 133.537C542.337 133.409 542.647 133.22 542.907 132.969C543.168 132.713 543.369 132.396 543.511 132.017L545.13 132.472C544.96 133.021 544.673 133.504 544.271 133.92C543.868 134.332 543.371 134.654 542.779 134.886C542.188 135.114 541.522 135.227 540.784 135.227ZM547.85 135V124.091H549.47V125.795H549.612C549.839 125.213 550.206 124.761 550.713 124.439C551.219 124.112 551.828 123.949 552.538 123.949C553.258 123.949 553.857 124.112 554.335 124.439C554.818 124.761 555.194 125.213 555.464 125.795H555.578C555.857 125.232 556.276 124.785 556.835 124.453C557.394 124.117 558.064 123.949 558.845 123.949C559.82 123.949 560.618 124.254 561.238 124.865C561.859 125.471 562.169 126.416 562.169 127.699V135H560.493V127.699C560.493 126.894 560.272 126.319 559.832 125.973C559.392 125.627 558.873 125.455 558.277 125.455C557.51 125.455 556.915 125.687 556.494 126.151C556.073 126.61 555.862 127.192 555.862 127.898V135H554.157V127.528C554.157 126.908 553.956 126.409 553.554 126.03C553.151 125.646 552.633 125.455 551.998 125.455C551.563 125.455 551.155 125.571 550.777 125.803C550.403 126.035 550.1 126.357 549.868 126.768C549.64 127.176 549.527 127.647 549.527 128.182V135H547.85ZM569.807 135.227C568.756 135.227 567.849 134.995 567.087 134.531C566.329 134.062 565.745 133.409 565.333 132.571C564.926 131.728 564.722 130.748 564.722 129.631C564.722 128.513 564.926 127.528 565.333 126.676C565.745 125.819 566.318 125.152 567.051 124.673C567.79 124.19 568.652 123.949 569.637 123.949C570.205 123.949 570.766 124.044 571.32 124.233C571.874 124.422 572.378 124.73 572.833 125.156C573.287 125.578 573.65 126.136 573.919 126.832C574.189 127.528 574.324 128.385 574.324 129.403V130.114H565.915V128.665H572.62C572.62 128.049 572.497 127.5 572.25 127.017C572.009 126.534 571.663 126.153 571.213 125.874C570.768 125.594 570.243 125.455 569.637 125.455C568.969 125.455 568.391 125.62 567.904 125.952C567.421 126.278 567.049 126.705 566.789 127.23C566.528 127.756 566.398 128.319 566.398 128.92V129.886C566.398 130.71 566.54 131.409 566.824 131.982C567.113 132.55 567.513 132.983 568.025 133.281C568.536 133.575 569.13 133.722 569.807 133.722C570.248 133.722 570.645 133.66 571 133.537C571.36 133.409 571.67 133.22 571.931 132.969C572.191 132.713 572.392 132.396 572.534 132.017L574.154 132.472C573.983 133.021 573.697 133.504 573.294 133.92C572.892 134.332 572.395 134.654 571.803 134.886C571.211 135.114 570.546 135.227 569.807 135.227ZM576.874 135V124.091H578.493V125.795H578.635C578.863 125.213 579.23 124.761 579.736 124.439C580.243 124.112 580.851 123.949 581.561 123.949C582.281 123.949 582.88 124.112 583.358 124.439C583.841 124.761 584.218 125.213 584.488 125.795H584.601C584.881 125.232 585.3 124.785 585.858 124.453C586.417 124.117 587.087 123.949 587.868 123.949C588.844 123.949 589.641 124.254 590.262 124.865C590.882 125.471 591.192 126.416 591.192 127.699V135H589.516V127.699C589.516 126.894 589.296 126.319 588.855 125.973C588.415 125.627 587.897 125.455 587.3 125.455C586.533 125.455 585.939 125.687 585.517 126.151C585.096 126.61 584.885 127.192 584.885 127.898V135H583.181V127.528C583.181 126.908 582.98 126.409 582.577 126.03C582.175 125.646 581.656 125.455 581.022 125.455C580.586 125.455 580.179 125.571 579.8 125.803C579.426 126.035 579.123 126.357 578.891 126.768C578.664 127.176 578.55 127.647 578.55 128.182V135H576.874ZM594.484 135V120.455H596.16V125.824H596.302C596.425 125.634 596.596 125.393 596.814 125.099C597.036 124.801 597.353 124.536 597.765 124.304C598.182 124.067 598.745 123.949 599.456 123.949C600.374 123.949 601.184 124.179 601.885 124.638C602.585 125.097 603.132 125.748 603.525 126.591C603.918 127.434 604.115 128.428 604.115 129.574C604.115 130.729 603.918 131.731 603.525 132.578C603.132 133.421 602.588 134.074 601.892 134.538C601.196 134.998 600.393 135.227 599.484 135.227C598.783 135.227 598.222 135.111 597.801 134.879C597.379 134.643 597.055 134.375 596.828 134.077C596.6 133.774 596.425 133.523 596.302 133.324H596.103V135H594.484ZM596.132 129.545C596.132 130.369 596.252 131.096 596.494 131.726C596.735 132.351 597.088 132.841 597.552 133.196C598.016 133.546 598.584 133.722 599.257 133.722C599.958 133.722 600.542 133.537 601.011 133.168C601.484 132.794 601.84 132.292 602.076 131.662C602.318 131.027 602.439 130.322 602.439 129.545C602.439 128.778 602.32 128.087 602.083 127.472C601.851 126.851 601.499 126.361 601.025 126.001C600.556 125.637 599.967 125.455 599.257 125.455C598.575 125.455 598.002 125.627 597.538 125.973C597.074 126.314 596.724 126.792 596.487 127.408C596.25 128.018 596.132 128.731 596.132 129.545ZM611.252 135.227C610.201 135.227 609.295 134.995 608.532 134.531C607.775 134.062 607.19 133.409 606.778 132.571C606.371 131.728 606.167 130.748 606.167 129.631C606.167 128.513 606.371 127.528 606.778 126.676C607.19 125.819 607.763 125.152 608.497 124.673C609.235 124.19 610.097 123.949 611.082 123.949C611.65 123.949 612.211 124.044 612.765 124.233C613.319 124.422 613.824 124.73 614.278 125.156C614.733 125.578 615.095 126.136 615.365 126.832C615.635 127.528 615.77 128.385 615.77 129.403V130.114H607.36V128.665H614.065C614.065 128.049 613.942 127.5 613.696 127.017C613.454 126.534 613.109 126.153 612.659 125.874C612.214 125.594 611.688 125.455 611.082 125.455C610.414 125.455 609.837 125.62 609.349 125.952C608.866 126.278 608.494 126.705 608.234 127.23C607.974 127.756 607.843 128.319 607.843 128.92V129.886C607.843 130.71 607.985 131.409 608.27 131.982C608.558 132.55 608.958 132.983 609.47 133.281C609.981 133.575 610.575 133.722 611.252 133.722C611.693 133.722 612.091 133.66 612.446 133.537C612.806 133.409 613.116 133.22 613.376 132.969C613.636 132.713 613.838 132.396 613.98 132.017L615.599 132.472C615.429 133.021 615.142 133.504 614.74 133.92C614.337 134.332 613.84 134.654 613.248 134.886C612.656 135.114 611.991 135.227 611.252 135.227ZM618.319 135V124.091H619.939V125.739H620.052C620.251 125.199 620.611 124.761 621.132 124.425C621.653 124.089 622.24 123.92 622.893 123.92C623.016 123.92 623.17 123.923 623.355 123.928C623.539 123.932 623.679 123.939 623.774 123.949V125.653C623.717 125.639 623.587 125.618 623.383 125.589C623.184 125.556 622.974 125.54 622.751 125.54C622.221 125.54 621.747 125.651 621.331 125.874C620.919 126.091 620.592 126.394 620.35 126.783C620.114 127.166 619.995 127.604 619.995 128.097V135H618.319ZM636.13 124.091V125.511H630.477V124.091H636.13ZM632.124 121.477H633.8V131.875C633.8 132.348 633.869 132.704 634.006 132.94C634.148 133.172 634.328 133.329 634.546 133.409C634.769 133.485 635.003 133.523 635.249 133.523C635.434 133.523 635.585 133.513 635.704 133.494C635.822 133.471 635.917 133.452 635.988 133.438L636.329 134.943C636.215 134.986 636.057 135.028 635.853 135.071C635.649 135.118 635.391 135.142 635.079 135.142C634.605 135.142 634.141 135.04 633.687 134.837C633.237 134.633 632.863 134.323 632.565 133.906C632.271 133.49 632.124 132.964 632.124 132.33V121.477ZM640.562 128.438V135H638.886V120.455H640.562V125.795H640.704C640.96 125.232 641.343 124.785 641.854 124.453C642.371 124.117 643.057 123.949 643.914 123.949C644.657 123.949 645.308 124.098 645.867 124.396C646.426 124.69 646.859 125.142 647.167 125.753C647.479 126.359 647.636 127.131 647.636 128.068V135H645.96V128.182C645.96 127.315 645.735 126.645 645.285 126.172C644.84 125.694 644.222 125.455 643.431 125.455C642.882 125.455 642.389 125.571 641.954 125.803C641.523 126.035 641.182 126.373 640.931 126.818C640.685 127.263 640.562 127.803 640.562 128.438ZM655.276 135.227C654.225 135.227 653.318 134.995 652.556 134.531C651.798 134.062 651.213 133.409 650.801 132.571C650.394 131.728 650.191 130.748 650.191 129.631C650.191 128.513 650.394 127.528 650.801 126.676C651.213 125.819 651.786 125.152 652.52 124.673C653.259 124.19 654.121 123.949 655.105 123.949C655.674 123.949 656.235 124.044 656.789 124.233C657.343 124.422 657.847 124.73 658.301 125.156C658.756 125.578 659.118 126.136 659.388 126.832C659.658 127.528 659.793 128.385 659.793 129.403V130.114H651.384V128.665H658.088C658.088 128.049 657.965 127.5 657.719 127.017C657.478 126.534 657.132 126.153 656.682 125.874C656.237 125.594 655.712 125.455 655.105 125.455C654.438 125.455 653.86 125.62 653.373 125.952C652.89 126.278 652.518 126.705 652.257 127.23C651.997 127.756 651.867 128.319 651.867 128.92V129.886C651.867 130.71 652.009 131.409 652.293 131.982C652.582 132.55 652.982 132.983 653.493 133.281C654.005 133.575 654.599 133.722 655.276 133.722C655.716 133.722 656.114 133.66 656.469 133.537C656.829 133.409 657.139 133.22 657.4 132.969C657.66 132.713 657.861 132.396 658.003 132.017L659.623 132.472C659.452 133.021 659.166 133.504 658.763 133.92C658.361 134.332 657.864 134.654 657.272 134.886C656.68 135.114 656.015 135.227 655.276 135.227ZM667.968 135V124.091H669.587V125.795H669.729C669.956 125.213 670.323 124.761 670.83 124.439C671.337 124.112 671.945 123.949 672.655 123.949C673.375 123.949 673.974 124.112 674.452 124.439C674.935 124.761 675.311 125.213 675.581 125.795H675.695C675.974 125.232 676.393 124.785 676.952 124.453C677.511 124.117 678.181 123.949 678.962 123.949C679.937 123.949 680.735 124.254 681.355 124.865C681.976 125.471 682.286 126.416 682.286 127.699V135H680.61V127.699C680.61 126.894 680.39 126.319 679.949 125.973C679.509 125.627 678.99 125.455 678.394 125.455C677.627 125.455 677.033 125.687 676.611 126.151C676.19 126.61 675.979 127.192 675.979 127.898V135H674.275V127.528C674.275 126.908 674.073 126.409 673.671 126.03C673.268 125.646 672.75 125.455 672.115 125.455C671.68 125.455 671.273 125.571 670.894 125.803C670.52 126.035 670.217 126.357 669.985 126.768C669.757 127.176 669.644 127.647 669.644 128.182V135H667.968ZM688.561 135.256C687.869 135.256 687.242 135.125 686.679 134.865C686.115 134.6 685.668 134.219 685.336 133.722C685.005 133.22 684.839 132.614 684.839 131.903C684.839 131.278 684.962 130.772 685.208 130.384C685.455 129.991 685.784 129.683 686.196 129.46C686.608 129.238 687.062 129.072 687.559 128.963C688.061 128.849 688.565 128.759 689.072 128.693C689.735 128.608 690.272 128.544 690.684 128.501C691.101 128.454 691.404 128.376 691.593 128.267C691.788 128.158 691.885 127.969 691.885 127.699V127.642C691.885 126.941 691.693 126.397 691.309 126.009C690.931 125.62 690.355 125.426 689.583 125.426C688.783 125.426 688.156 125.601 687.701 125.952C687.247 126.302 686.927 126.676 686.743 127.074L685.152 126.506C685.436 125.843 685.815 125.327 686.288 124.957C686.766 124.583 687.287 124.323 687.85 124.176C688.419 124.025 688.977 123.949 689.527 123.949C689.877 123.949 690.279 123.991 690.734 124.077C691.193 124.157 691.636 124.325 692.062 124.581C692.493 124.837 692.85 125.223 693.135 125.739C693.419 126.255 693.561 126.946 693.561 127.812V135H691.885V133.523H691.799C691.686 133.759 691.496 134.013 691.231 134.283C690.966 134.553 690.613 134.782 690.173 134.972C689.733 135.161 689.195 135.256 688.561 135.256ZM688.816 133.75C689.479 133.75 690.038 133.62 690.493 133.359C690.952 133.099 691.297 132.763 691.529 132.351C691.766 131.939 691.885 131.506 691.885 131.051V129.517C691.814 129.602 691.657 129.68 691.416 129.751C691.179 129.818 690.904 129.877 690.592 129.929C690.284 129.976 689.984 130.019 689.69 130.057C689.401 130.09 689.167 130.118 688.987 130.142C688.551 130.199 688.144 130.291 687.765 130.419C687.391 130.542 687.088 130.729 686.856 130.98C686.629 131.226 686.515 131.562 686.515 131.989C686.515 132.571 686.731 133.011 687.162 133.31C687.597 133.603 688.149 133.75 688.816 133.75ZM696.62 135V124.091H698.296V135H696.62ZM697.472 122.273C697.146 122.273 696.864 122.161 696.627 121.939C696.395 121.716 696.279 121.449 696.279 121.136C696.279 120.824 696.395 120.556 696.627 120.334C696.864 120.111 697.146 120 697.472 120C697.799 120 698.078 120.111 698.31 120.334C698.547 120.556 698.665 120.824 698.665 121.136C698.665 121.449 698.547 121.716 698.31 121.939C698.078 122.161 697.799 122.273 697.472 122.273ZM703.042 128.438V135H701.366V124.091H702.985V125.795H703.127C703.383 125.241 703.771 124.796 704.292 124.46C704.813 124.119 705.485 123.949 706.309 123.949C707.048 123.949 707.694 124.1 708.248 124.403C708.802 124.702 709.233 125.156 709.541 125.767C709.849 126.373 710.002 127.14 710.002 128.068V135H708.326V128.182C708.326 127.325 708.104 126.657 707.659 126.179C707.214 125.696 706.603 125.455 705.826 125.455C705.291 125.455 704.813 125.571 704.392 125.803C703.975 126.035 703.646 126.373 703.404 126.818C703.163 127.263 703.042 127.803 703.042 128.438ZM718.69 135V124.091H720.366V135H718.69ZM719.543 122.273C719.216 122.273 718.934 122.161 718.697 121.939C718.465 121.716 718.349 121.449 718.349 121.136C718.349 120.824 718.465 120.556 718.697 120.334C718.934 120.111 719.216 120 719.543 120C719.869 120 720.149 120.111 720.381 120.334C720.617 120.556 720.736 120.824 720.736 121.136C720.736 121.449 720.617 121.716 720.381 121.939C720.149 122.161 719.869 122.273 719.543 122.273ZM727.556 135.227C726.647 135.227 725.844 134.998 725.148 134.538C724.452 134.074 723.908 133.421 723.515 132.578C723.122 131.731 722.925 130.729 722.925 129.574C722.925 128.428 723.122 127.434 723.515 126.591C723.908 125.748 724.454 125.097 725.155 124.638C725.856 124.179 726.666 123.949 727.584 123.949C728.294 123.949 728.855 124.067 729.267 124.304C729.684 124.536 730.001 124.801 730.219 125.099C730.442 125.393 730.614 125.634 730.738 125.824H730.88V120.455H732.556V135H730.936V133.324H730.738C730.614 133.523 730.439 133.774 730.212 134.077C729.985 134.375 729.66 134.643 729.239 134.879C728.818 135.111 728.257 135.227 727.556 135.227ZM727.783 133.722C728.455 133.722 729.024 133.546 729.488 133.196C729.952 132.841 730.304 132.351 730.546 131.726C730.787 131.096 730.908 130.369 730.908 129.545C730.908 128.731 730.79 128.018 730.553 127.408C730.316 126.792 729.966 126.314 729.502 125.973C729.038 125.627 728.465 125.455 727.783 125.455C727.073 125.455 726.481 125.637 726.007 126.001C725.539 126.361 725.186 126.851 724.949 127.472C724.717 128.087 724.601 128.778 724.601 129.545C724.601 130.322 724.72 131.027 724.956 131.662C725.198 132.292 725.553 132.794 726.022 133.168C726.495 133.537 727.082 133.722 727.783 133.722ZM740.432 135.227C739.381 135.227 738.474 134.995 737.712 134.531C736.954 134.062 736.37 133.409 735.958 132.571C735.551 131.728 735.347 130.748 735.347 129.631C735.347 128.513 735.551 127.528 735.958 126.676C736.37 125.819 736.943 125.152 737.676 124.673C738.415 124.19 739.277 123.949 740.262 123.949C740.83 123.949 741.391 124.044 741.945 124.233C742.499 124.422 743.003 124.73 743.458 125.156C743.912 125.578 744.275 126.136 744.544 126.832C744.814 127.528 744.949 128.385 744.949 129.403V130.114H736.54V128.665H743.245C743.245 128.049 743.122 127.5 742.875 127.017C742.634 126.534 742.288 126.153 741.838 125.874C741.393 125.594 740.868 125.455 740.262 125.455C739.594 125.455 739.016 125.62 738.529 125.952C738.046 126.278 737.674 126.705 737.414 127.23C737.153 127.756 737.023 128.319 737.023 128.92V129.886C737.023 130.71 737.165 131.409 737.449 131.982C737.738 132.55 738.138 132.983 738.65 133.281C739.161 133.575 739.755 133.722 740.432 133.722C740.873 133.722 741.27 133.66 741.625 133.537C741.985 133.409 742.295 133.22 742.556 132.969C742.816 132.713 743.017 132.396 743.159 132.017L744.779 132.472C744.608 133.021 744.322 133.504 743.919 133.92C743.517 134.332 743.02 134.654 742.428 134.886C741.836 135.114 741.171 135.227 740.432 135.227ZM750.709 135.256C750.018 135.256 749.391 135.125 748.827 134.865C748.264 134.6 747.816 134.219 747.485 133.722C747.153 133.22 746.988 132.614 746.988 131.903C746.988 131.278 747.111 130.772 747.357 130.384C747.603 129.991 747.932 129.683 748.344 129.46C748.756 129.238 749.211 129.072 749.708 128.963C750.21 128.849 750.714 128.759 751.221 128.693C751.883 128.608 752.421 128.544 752.833 128.501C753.249 128.454 753.552 128.376 753.742 128.267C753.936 128.158 754.033 127.969 754.033 127.699V127.642C754.033 126.941 753.841 126.397 753.458 126.009C753.079 125.62 752.504 125.426 751.732 125.426C750.932 125.426 750.304 125.601 749.85 125.952C749.395 126.302 749.076 126.676 748.891 127.074L747.3 126.506C747.584 125.843 747.963 125.327 748.436 124.957C748.915 124.583 749.435 124.323 749.999 124.176C750.567 124.025 751.126 123.949 751.675 123.949C752.025 123.949 752.428 123.991 752.882 124.077C753.342 124.157 753.784 124.325 754.211 124.581C754.641 124.837 754.999 125.223 755.283 125.739C755.567 126.255 755.709 126.946 755.709 127.812V135H754.033V133.523H753.948C753.834 133.759 753.645 134.013 753.38 134.283C753.114 134.553 752.762 134.782 752.321 134.972C751.881 135.161 751.344 135.256 750.709 135.256ZM750.965 133.75C751.628 133.75 752.186 133.62 752.641 133.359C753.1 133.099 753.446 132.763 753.678 132.351C753.915 131.939 754.033 131.506 754.033 131.051V129.517C753.962 129.602 753.806 129.68 753.564 129.751C753.328 129.818 753.053 129.877 752.74 129.929C752.433 129.976 752.132 130.019 751.838 130.057C751.55 130.09 751.315 130.118 751.135 130.142C750.7 130.199 750.292 130.291 749.914 130.419C749.54 130.542 749.237 130.729 749.005 130.98C748.777 131.226 748.664 131.562 748.664 131.989C748.664 132.571 748.879 133.011 749.31 133.31C749.746 133.603 750.297 133.75 750.965 133.75ZM766.496 126.534L764.99 126.96C764.895 126.709 764.756 126.465 764.571 126.229C764.391 125.987 764.145 125.788 763.832 125.632C763.52 125.476 763.12 125.398 762.632 125.398C761.964 125.398 761.408 125.552 760.963 125.859C760.523 126.162 760.303 126.548 760.303 127.017C760.303 127.434 760.454 127.763 760.757 128.004C761.06 128.246 761.534 128.447 762.178 128.608L763.797 129.006C764.772 129.242 765.499 129.605 765.977 130.092C766.455 130.575 766.695 131.198 766.695 131.96C766.695 132.585 766.515 133.144 766.155 133.636C765.8 134.129 765.303 134.517 764.663 134.801C764.024 135.085 763.281 135.227 762.433 135.227C761.321 135.227 760.4 134.986 759.67 134.503C758.941 134.02 758.48 133.314 758.286 132.386L759.876 131.989C760.028 132.576 760.314 133.016 760.736 133.31C761.162 133.603 761.718 133.75 762.405 133.75C763.186 133.75 763.806 133.584 764.266 133.253C764.73 132.917 764.962 132.514 764.962 132.045C764.962 131.667 764.829 131.349 764.564 131.094C764.299 130.833 763.892 130.639 763.342 130.511L761.524 130.085C760.525 129.848 759.791 129.482 759.322 128.984C758.858 128.482 758.626 127.855 758.626 127.102C758.626 126.487 758.799 125.942 759.145 125.469C759.495 124.995 759.971 124.624 760.572 124.354C761.179 124.084 761.865 123.949 762.632 123.949C763.712 123.949 764.559 124.186 765.175 124.659C765.795 125.133 766.235 125.758 766.496 126.534ZM779.275 135.227C778.29 135.227 777.426 134.993 776.682 134.524C775.944 134.055 775.366 133.4 774.949 132.557C774.537 131.714 774.331 130.729 774.331 129.602C774.331 128.466 774.537 127.474 774.949 126.626C775.366 125.779 775.944 125.121 776.682 124.652C777.426 124.183 778.29 123.949 779.275 123.949C780.259 123.949 781.121 124.183 781.86 124.652C782.603 125.121 783.181 125.779 783.593 126.626C784.009 127.474 784.218 128.466 784.218 129.602C784.218 130.729 784.009 131.714 783.593 132.557C783.181 133.4 782.603 134.055 781.86 134.524C781.121 134.993 780.259 135.227 779.275 135.227ZM779.275 133.722C780.023 133.722 780.638 133.53 781.121 133.146C781.604 132.763 781.962 132.259 782.194 131.634C782.426 131.009 782.542 130.331 782.542 129.602C782.542 128.873 782.426 128.194 782.194 127.564C781.962 126.934 781.604 126.425 781.121 126.037C780.638 125.649 780.023 125.455 779.275 125.455C778.526 125.455 777.911 125.649 777.428 126.037C776.945 126.425 776.587 126.934 776.355 127.564C776.123 128.194 776.007 128.873 776.007 129.602C776.007 130.331 776.123 131.009 776.355 131.634C776.587 132.259 776.945 132.763 777.428 133.146C777.911 133.53 778.526 133.722 779.275 133.722ZM791.634 124.091V125.511H785.754V124.091H791.634ZM787.515 135V122.585C787.515 121.96 787.662 121.439 787.955 121.023C788.249 120.606 788.63 120.294 789.099 120.085C789.567 119.877 790.062 119.773 790.583 119.773C790.995 119.773 791.331 119.806 791.592 119.872C791.852 119.938 792.046 120 792.174 120.057L791.691 121.506C791.606 121.477 791.487 121.442 791.336 121.399C791.189 121.357 790.995 121.335 790.754 121.335C790.2 121.335 789.799 121.475 789.553 121.754C789.312 122.034 789.191 122.443 789.191 122.983V135H787.515ZM804.353 124.091V125.511H798.699V124.091H804.353ZM800.347 121.477H802.023V131.875C802.023 132.348 802.092 132.704 802.229 132.94C802.371 133.172 802.551 133.329 802.769 133.409C802.991 133.485 803.226 133.523 803.472 133.523C803.657 133.523 803.808 133.513 803.926 133.494C804.045 133.471 804.14 133.452 804.211 133.438L804.551 134.943C804.438 134.986 804.279 135.028 804.076 135.071C803.872 135.118 803.614 135.142 803.301 135.142C802.828 135.142 802.364 135.04 801.909 134.837C801.46 134.633 801.086 134.323 800.787 133.906C800.494 133.49 800.347 132.964 800.347 132.33V121.477ZM808.784 128.438V135H807.108V120.455H808.784V125.795H808.926C809.182 125.232 809.566 124.785 810.077 124.453C810.593 124.117 811.28 123.949 812.137 123.949C812.88 123.949 813.531 124.098 814.09 124.396C814.649 124.69 815.082 125.142 815.39 125.753C815.702 126.359 815.858 127.131 815.858 128.068V135H814.182V128.182C814.182 127.315 813.957 126.645 813.507 126.172C813.062 125.694 812.444 125.455 811.654 125.455C811.105 125.455 810.612 125.571 810.176 125.803C809.746 126.035 809.405 126.373 809.154 126.818C808.908 127.263 808.784 127.803 808.784 128.438ZM823.499 135.227C822.447 135.227 821.541 134.995 820.778 134.531C820.021 134.062 819.436 133.409 819.024 132.571C818.617 131.728 818.413 130.748 818.413 129.631C818.413 128.513 818.617 127.528 819.024 126.676C819.436 125.819 820.009 125.152 820.743 124.673C821.482 124.19 822.343 123.949 823.328 123.949C823.896 123.949 824.457 124.044 825.011 124.233C825.565 124.422 826.07 124.73 826.524 125.156C826.979 125.578 827.341 126.136 827.611 126.832C827.881 127.528 828.016 128.385 828.016 129.403V130.114H819.607V128.665H826.311C826.311 128.049 826.188 127.5 825.942 127.017C825.7 126.534 825.355 126.153 824.905 125.874C824.46 125.594 823.934 125.455 823.328 125.455C822.661 125.455 822.083 125.62 821.595 125.952C821.112 126.278 820.741 126.705 820.48 127.23C820.22 127.756 820.089 128.319 820.089 128.92V129.886C820.089 130.71 820.232 131.409 820.516 131.982C820.804 132.55 821.205 132.983 821.716 133.281C822.227 133.575 822.821 133.722 823.499 133.722C823.939 133.722 824.337 133.66 824.692 133.537C825.052 133.409 825.362 133.22 825.622 132.969C825.883 132.713 826.084 132.396 826.226 132.017L827.845 132.472C827.675 133.021 827.388 133.504 826.986 133.92C826.583 134.332 826.086 134.654 825.494 134.886C824.902 135.114 824.237 135.227 823.499 135.227ZM836.418 135V120.455H838.094V125.824H838.236C838.359 125.634 838.529 125.393 838.747 125.099C838.97 124.801 839.287 124.536 839.699 124.304C840.116 124.067 840.679 123.949 841.389 123.949C842.308 123.949 843.117 124.179 843.818 124.638C844.519 125.097 845.066 125.748 845.459 126.591C845.852 127.434 846.048 128.428 846.048 129.574C846.048 130.729 845.852 131.731 845.459 132.578C845.066 133.421 844.521 134.074 843.825 134.538C843.129 134.998 842.327 135.227 841.418 135.227C840.717 135.227 840.156 135.111 839.734 134.879C839.313 134.643 838.989 134.375 838.761 134.077C838.534 133.774 838.359 133.523 838.236 133.324H838.037V135H836.418ZM838.065 129.545C838.065 130.369 838.186 131.096 838.428 131.726C838.669 132.351 839.022 132.841 839.486 133.196C839.95 133.546 840.518 133.722 841.19 133.722C841.891 133.722 842.476 133.537 842.945 133.168C843.418 132.794 843.773 132.292 844.01 131.662C844.251 131.027 844.372 130.322 844.372 129.545C844.372 128.778 844.254 128.087 844.017 127.472C843.785 126.851 843.432 126.361 842.959 126.001C842.49 125.637 841.901 125.455 841.19 125.455C840.509 125.455 839.936 125.627 839.472 125.973C839.008 126.314 838.657 126.792 838.42 127.408C838.184 128.018 838.065 128.731 838.065 129.545ZM853.044 135.227C852.059 135.227 851.195 134.993 850.452 134.524C849.713 134.055 849.135 133.4 848.719 132.557C848.307 131.714 848.101 130.729 848.101 129.602C848.101 128.466 848.307 127.474 848.719 126.626C849.135 125.779 849.713 125.121 850.452 124.652C851.195 124.183 852.059 123.949 853.044 123.949C854.029 123.949 854.891 124.183 855.629 124.652C856.373 125.121 856.95 125.779 857.362 126.626C857.779 127.474 857.987 128.466 857.987 129.602C857.987 130.729 857.779 131.714 857.362 132.557C856.95 133.4 856.373 134.055 855.629 134.524C854.891 134.993 854.029 135.227 853.044 135.227ZM853.044 133.722C853.792 133.722 854.408 133.53 854.891 133.146C855.374 132.763 855.731 132.259 855.963 131.634C856.195 131.009 856.311 130.331 856.311 129.602C856.311 128.873 856.195 128.194 855.963 127.564C855.731 126.934 855.374 126.425 854.891 126.037C854.408 125.649 853.792 125.455 853.044 125.455C852.296 125.455 851.68 125.649 851.197 126.037C850.714 126.425 850.357 126.934 850.125 127.564C849.893 128.194 849.777 128.873 849.777 129.602C849.777 130.331 849.893 131.009 850.125 131.634C850.357 132.259 850.714 132.763 851.197 133.146C851.68 133.53 852.296 133.722 853.044 133.722ZM864.978 135.227C863.993 135.227 863.129 134.993 862.385 134.524C861.647 134.055 861.069 133.4 860.652 132.557C860.24 131.714 860.034 130.729 860.034 129.602C860.034 128.466 860.24 127.474 860.652 126.626C861.069 125.779 861.647 125.121 862.385 124.652C863.129 124.183 863.993 123.949 864.978 123.949C865.962 123.949 866.824 124.183 867.563 124.652C868.306 125.121 868.884 125.779 869.296 126.626C869.712 127.474 869.921 128.466 869.921 129.602C869.921 130.729 869.712 131.714 869.296 132.557C868.884 133.4 868.306 134.055 867.563 134.524C866.824 134.993 865.962 135.227 864.978 135.227ZM864.978 133.722C865.726 133.722 866.341 133.53 866.824 133.146C867.307 132.763 867.665 132.259 867.897 131.634C868.129 131.009 868.245 130.331 868.245 129.602C868.245 128.873 868.129 128.194 867.897 127.564C867.665 126.934 867.307 126.425 866.824 126.037C866.341 125.649 865.726 125.455 864.978 125.455C864.23 125.455 863.614 125.649 863.131 126.037C862.648 126.425 862.291 126.934 862.059 127.564C861.827 128.194 861.711 128.873 861.711 129.602C861.711 130.331 861.827 131.009 862.059 131.634C862.291 132.259 862.648 132.763 863.131 133.146C863.614 133.53 864.23 133.722 864.978 133.722ZM874.042 131.023L874.013 128.949H874.354L879.127 124.091H881.201L876.116 129.233H875.974L874.042 131.023ZM872.479 135V120.455H874.156V135H872.479ZM879.411 135L875.15 129.602L876.343 128.438L881.542 135H879.411ZM892.194 135.256C891.502 135.256 890.875 135.125 890.311 134.865C889.748 134.6 889.301 134.219 888.969 133.722C888.638 133.22 888.472 132.614 888.472 131.903C888.472 131.278 888.595 130.772 888.841 130.384C889.087 129.991 889.417 129.683 889.828 129.46C890.24 129.238 890.695 129.072 891.192 128.963C891.694 128.849 892.198 128.759 892.705 128.693C893.368 128.608 893.905 128.544 894.317 128.501C894.734 128.454 895.037 128.376 895.226 128.267C895.42 128.158 895.517 127.969 895.517 127.699V127.642C895.517 126.941 895.326 126.397 894.942 126.009C894.563 125.62 893.988 125.426 893.216 125.426C892.416 125.426 891.789 125.601 891.334 125.952C890.88 126.302 890.56 126.676 890.375 127.074L888.784 126.506C889.069 125.843 889.447 125.327 889.921 124.957C890.399 124.583 890.92 124.323 891.483 124.176C892.051 124.025 892.61 123.949 893.159 123.949C893.51 123.949 893.912 123.991 894.367 124.077C894.826 124.157 895.269 124.325 895.695 124.581C896.126 124.837 896.483 125.223 896.767 125.739C897.051 126.255 897.194 126.946 897.194 127.812V135H895.517V133.523H895.432C895.319 133.759 895.129 134.013 894.864 134.283C894.599 134.553 894.246 134.782 893.806 134.972C893.365 135.161 892.828 135.256 892.194 135.256ZM892.449 133.75C893.112 133.75 893.671 133.62 894.125 133.359C894.585 133.099 894.93 132.763 895.162 132.351C895.399 131.939 895.517 131.506 895.517 131.051V129.517C895.446 129.602 895.29 129.68 895.049 129.751C894.812 129.818 894.537 129.877 894.225 129.929C893.917 129.976 893.616 130.019 893.323 130.057C893.034 130.09 892.8 130.118 892.62 130.142C892.184 130.199 891.777 130.291 891.398 130.419C891.024 130.542 890.721 130.729 890.489 130.98C890.262 131.226 890.148 131.562 890.148 131.989C890.148 132.571 890.364 133.011 890.794 133.31C891.23 133.603 891.782 133.75 892.449 133.75ZM901.929 128.438V135H900.253V124.091H901.872V125.795H902.014C902.27 125.241 902.658 124.796 903.179 124.46C903.7 124.119 904.372 123.949 905.196 123.949C905.935 123.949 906.581 124.1 907.135 124.403C907.689 124.702 908.12 125.156 908.428 125.767C908.735 126.373 908.889 127.14 908.889 128.068V135H907.213V128.182C907.213 127.325 906.991 126.657 906.545 126.179C906.1 125.696 905.49 125.455 904.713 125.455C904.178 125.455 903.7 125.571 903.278 125.803C902.862 126.035 902.533 126.373 902.291 126.818C902.05 127.263 901.929 127.803 901.929 128.438ZM916.071 135.227C915.162 135.227 914.36 134.998 913.664 134.538C912.968 134.074 912.423 133.421 912.03 132.578C911.637 131.731 911.441 130.729 911.441 129.574C911.441 128.428 911.637 127.434 912.03 126.591C912.423 125.748 912.97 125.097 913.671 124.638C914.372 124.179 915.181 123.949 916.1 123.949C916.81 123.949 917.371 124.067 917.783 124.304C918.2 124.536 918.517 124.801 918.735 125.099C918.957 125.393 919.13 125.634 919.253 125.824H919.395V120.455H921.071V135H919.452V133.324H919.253C919.13 133.523 918.955 133.774 918.728 134.077C918.5 134.375 918.176 134.643 917.755 134.879C917.333 135.111 916.772 135.227 916.071 135.227ZM916.299 133.722C916.971 133.722 917.539 133.546 918.003 133.196C918.467 132.841 918.82 132.351 919.061 131.726C919.303 131.096 919.424 130.369 919.424 129.545C919.424 128.731 919.305 128.018 919.069 127.408C918.832 126.792 918.481 126.314 918.017 125.973C917.553 125.627 916.98 125.455 916.299 125.455C915.588 125.455 914.997 125.637 914.523 126.001C914.054 126.361 913.702 126.851 913.465 127.472C913.233 128.087 913.117 128.778 913.117 129.545C913.117 130.322 913.235 131.027 913.472 131.662C913.713 132.292 914.069 132.794 914.537 133.168C915.011 133.537 915.598 133.722 916.299 133.722ZM929.999 135V124.091H931.618V125.739H931.732C931.931 125.199 932.291 124.761 932.811 124.425C933.332 124.089 933.919 123.92 934.573 123.92C934.696 123.92 934.85 123.923 935.034 123.928C935.219 123.932 935.359 123.939 935.453 123.949V125.653C935.397 125.639 935.266 125.618 935.063 125.589C934.864 125.556 934.653 125.54 934.431 125.54C933.9 125.54 933.427 125.651 933.01 125.874C932.598 126.091 932.272 126.394 932.03 126.783C931.793 127.166 931.675 127.604 931.675 128.097V135H929.999ZM941.682 135.227C940.631 135.227 939.724 134.995 938.962 134.531C938.204 134.062 937.62 133.409 937.208 132.571C936.801 131.728 936.597 130.748 936.597 129.631C936.597 128.513 936.801 127.528 937.208 126.676C937.62 125.819 938.193 125.152 938.926 124.673C939.665 124.19 940.527 123.949 941.512 123.949C942.08 123.949 942.641 124.044 943.195 124.233C943.749 124.422 944.253 124.73 944.708 125.156C945.162 125.578 945.525 126.136 945.794 126.832C946.064 127.528 946.199 128.385 946.199 129.403V130.114H937.79V128.665H944.495C944.495 128.049 944.372 127.5 944.125 127.017C943.884 126.534 943.538 126.153 943.088 125.874C942.643 125.594 942.118 125.455 941.512 125.455C940.844 125.455 940.266 125.62 939.779 125.952C939.296 126.278 938.924 126.705 938.664 127.23C938.403 127.756 938.273 128.319 938.273 128.92V129.886C938.273 130.71 938.415 131.409 938.699 131.982C938.988 132.55 939.388 132.983 939.9 133.281C940.411 133.575 941.005 133.722 941.682 133.722C942.123 133.722 942.52 133.66 942.875 133.537C943.235 133.409 943.545 133.22 943.806 132.969C944.066 132.713 944.267 132.396 944.409 132.017L946.029 132.472C945.858 133.021 945.572 133.504 945.169 133.92C944.767 134.332 944.27 134.654 943.678 134.886C943.086 135.114 942.421 135.227 941.682 135.227ZM953.493 124.091V125.511H947.84V124.091H953.493ZM949.488 121.477H951.164V131.875C951.164 132.348 951.232 132.704 951.37 132.94C951.512 133.172 951.692 133.329 951.909 133.409C952.132 133.485 952.366 133.523 952.613 133.523C952.797 133.523 952.949 133.513 953.067 133.494C953.185 133.471 953.28 133.452 953.351 133.438L953.692 134.943C953.578 134.986 953.42 135.028 953.216 135.071C953.013 135.118 952.755 135.142 952.442 135.142C951.969 135.142 951.505 135.04 951.05 134.837C950.6 134.633 950.226 134.323 949.928 133.906C949.634 133.49 949.488 132.964 949.488 132.33V121.477ZM962.89 130.54V124.091H964.566V135H962.89V133.153H962.776C962.52 133.707 962.123 134.179 961.583 134.567C961.043 134.95 960.361 135.142 959.537 135.142C958.855 135.142 958.249 134.993 957.719 134.695C957.189 134.392 956.772 133.937 956.469 133.331C956.166 132.72 956.015 131.951 956.015 131.023V124.091H957.691V130.909C957.691 131.705 957.913 132.339 958.358 132.812C958.808 133.286 959.381 133.523 960.077 133.523C960.494 133.523 960.917 133.416 961.348 133.203C961.784 132.99 962.149 132.663 962.442 132.223C962.74 131.783 962.89 131.222 962.89 130.54ZM967.636 135V124.091H969.255V125.739H969.369C969.567 125.199 969.927 124.761 970.448 124.425C970.969 124.089 971.556 123.92 972.21 123.92C972.333 123.92 972.487 123.923 972.671 123.928C972.856 123.932 972.996 123.939 973.09 123.949V125.653C973.033 125.639 972.903 125.618 972.7 125.589C972.501 125.556 972.29 125.54 972.067 125.54C971.537 125.54 971.064 125.651 970.647 125.874C970.235 126.091 969.908 126.394 969.667 126.783C969.43 127.166 969.312 127.604 969.312 128.097V135H967.636ZM976.753 128.438V135H975.077V124.091H976.696V125.795H976.838C977.094 125.241 977.482 124.796 978.003 124.46C978.524 124.119 979.196 123.949 980.02 123.949C980.759 123.949 981.405 124.1 981.959 124.403C982.513 124.702 982.944 125.156 983.252 125.767C983.56 126.373 983.713 127.14 983.713 128.068V135H982.037V128.182C982.037 127.325 981.815 126.657 981.37 126.179C980.925 125.696 980.314 125.455 979.537 125.455C979.002 125.455 978.524 125.571 978.103 125.803C977.686 126.035 977.357 126.373 977.115 126.818C976.874 127.263 976.753 127.803 976.753 128.438ZM997.146 124.091V125.511H991.492V124.091H997.146ZM993.14 121.477H994.816V131.875C994.816 132.348 994.885 132.704 995.022 132.94C995.164 133.172 995.344 133.329 995.562 133.409C995.784 133.485 996.019 133.523 996.265 133.523C996.45 133.523 996.601 133.513 996.719 133.494C996.838 133.471 996.933 133.452 997.004 133.438L997.344 134.943C997.231 134.986 997.072 135.028 996.869 135.071C996.665 135.118 996.407 135.142 996.094 135.142C995.621 135.142 995.157 135.04 994.702 134.837C994.253 134.633 993.879 134.323 993.58 133.906C993.287 133.49 993.14 132.964 993.14 132.33V121.477ZM1003.98 135.227C1003 135.227 1002.13 134.993 1001.39 134.524C1000.65 134.055 1000.07 133.4 999.656 132.557C999.244 131.714 999.038 130.729 999.038 129.602C999.038 128.466 999.244 127.474 999.656 126.626C1000.07 125.779 1000.65 125.121 1001.39 124.652C1002.13 124.183 1003 123.949 1003.98 123.949C1004.97 123.949 1005.83 124.183 1006.57 124.652C1007.31 125.121 1007.89 125.779 1008.3 126.626C1008.72 127.474 1008.92 128.466 1008.92 129.602C1008.92 130.729 1008.72 131.714 1008.3 132.557C1007.89 133.4 1007.31 134.055 1006.57 134.524C1005.83 134.993 1004.97 135.227 1003.98 135.227ZM1003.98 133.722C1004.73 133.722 1005.35 133.53 1005.83 133.146C1006.31 132.763 1006.67 132.259 1006.9 131.634C1007.13 131.009 1007.25 130.331 1007.25 129.602C1007.25 128.873 1007.13 128.194 1006.9 127.564C1006.67 126.934 1006.31 126.425 1005.83 126.037C1005.35 125.649 1004.73 125.455 1003.98 125.455C1003.23 125.455 1002.62 125.649 1002.13 126.037C1001.65 126.425 1001.29 126.934 1001.06 127.564C1000.83 128.194 1000.71 128.873 1000.71 129.602C1000.71 130.331 1000.83 131.009 1001.06 131.634C1001.29 132.259 1001.65 132.763 1002.13 133.146C1002.62 133.53 1003.23 133.722 1003.98 133.722ZM528.278 148.091V149.511H522.625V148.091H528.278ZM524.273 145.477H525.949V155.875C525.949 156.348 526.018 156.704 526.155 156.94C526.297 157.172 526.477 157.329 526.695 157.409C526.917 157.485 527.152 157.523 527.398 157.523C527.582 157.523 527.734 157.513 527.852 157.494C527.971 157.471 528.065 157.452 528.136 157.438L528.477 158.943C528.364 158.986 528.205 159.028 528.001 159.071C527.798 159.118 527.54 159.142 527.227 159.142C526.754 159.142 526.29 159.04 525.835 158.837C525.385 158.633 525.011 158.323 524.713 157.906C524.42 157.49 524.273 156.964 524.273 156.33V145.477ZM532.71 152.438V159H531.034V144.455H532.71V149.795H532.852C533.108 149.232 533.491 148.785 534.003 148.453C534.519 148.117 535.205 147.949 536.062 147.949C536.806 147.949 537.457 148.098 538.016 148.396C538.574 148.69 539.008 149.142 539.315 149.753C539.628 150.359 539.784 151.131 539.784 152.068V159H538.108V152.182C538.108 151.315 537.883 150.645 537.433 150.172C536.988 149.694 536.37 149.455 535.58 149.455C535.03 149.455 534.538 149.571 534.102 149.803C533.671 150.035 533.33 150.373 533.08 150.818C532.833 151.263 532.71 151.803 532.71 152.438ZM547.424 159.227C546.373 159.227 545.467 158.995 544.704 158.531C543.947 158.062 543.362 157.409 542.95 156.571C542.543 155.728 542.339 154.748 542.339 153.631C542.339 152.513 542.543 151.528 542.95 150.676C543.362 149.819 543.935 149.152 544.669 148.673C545.407 148.19 546.269 147.949 547.254 147.949C547.822 147.949 548.383 148.044 548.937 148.233C549.491 148.422 549.995 148.73 550.45 149.156C550.904 149.578 551.267 150.136 551.537 150.832C551.806 151.528 551.941 152.385 551.941 153.403V154.114H543.532V152.665H550.237C550.237 152.049 550.114 151.5 549.868 151.017C549.626 150.534 549.28 150.153 548.831 149.874C548.386 149.594 547.86 149.455 547.254 149.455C546.586 149.455 546.009 149.62 545.521 149.952C545.038 150.278 544.666 150.705 544.406 151.23C544.145 151.756 544.015 152.319 544.015 152.92V153.886C544.015 154.71 544.157 155.409 544.441 155.982C544.73 156.55 545.13 156.983 545.642 157.281C546.153 157.575 546.747 157.722 547.424 157.722C547.865 157.722 548.262 157.66 548.618 157.537C548.977 157.409 549.288 157.22 549.548 156.969C549.808 156.713 550.01 156.396 550.152 156.017L551.771 156.472C551.6 157.021 551.314 157.504 550.912 157.92C550.509 158.332 550.012 158.654 549.42 158.886C548.828 159.114 548.163 159.227 547.424 159.227ZM554.491 159V148.091H556.11V149.795H556.252C556.48 149.213 556.847 148.761 557.353 148.439C557.86 148.112 558.468 147.949 559.179 147.949C559.898 147.949 560.497 148.112 560.975 148.439C561.458 148.761 561.835 149.213 562.105 149.795H562.218C562.498 149.232 562.917 148.785 563.475 148.453C564.034 148.117 564.704 147.949 565.485 147.949C566.461 147.949 567.259 148.254 567.879 148.865C568.499 149.471 568.809 150.416 568.809 151.699V159H567.133V151.699C567.133 150.894 566.913 150.319 566.473 149.973C566.032 149.627 565.514 149.455 564.917 149.455C564.15 149.455 563.556 149.687 563.135 150.151C562.713 150.61 562.502 151.192 562.502 151.898V159H560.798V151.528C560.798 150.908 560.597 150.409 560.194 150.03C559.792 149.646 559.273 149.455 558.639 149.455C558.203 149.455 557.796 149.571 557.417 149.803C557.043 150.035 556.74 150.357 556.508 150.768C556.281 151.176 556.167 151.647 556.167 152.182V159H554.491ZM579.971 159L576.647 148.091H578.408L580.766 156.443H580.88L583.209 148.091H584.999L587.3 156.415H587.414L589.772 148.091H591.533L588.209 159H586.561L584.175 150.619H584.005L581.618 159H579.971ZM595.425 152.438V159H593.749V144.455H595.425V149.795H595.567C595.823 149.232 596.206 148.785 596.718 148.453C597.234 148.117 597.92 147.949 598.777 147.949C599.521 147.949 600.172 148.098 600.73 148.396C601.289 148.69 601.722 149.142 602.03 149.753C602.343 150.359 602.499 151.131 602.499 152.068V159H600.823V152.182C600.823 151.315 600.598 150.645 600.148 150.172C599.703 149.694 599.085 149.455 598.294 149.455C597.745 149.455 597.253 149.571 596.817 149.803C596.386 150.035 596.045 150.373 595.794 150.818C595.548 151.263 595.425 151.803 595.425 152.438ZM610.139 159.227C609.088 159.227 608.181 158.995 607.419 158.531C606.661 158.062 606.077 157.409 605.665 156.571C605.258 155.728 605.054 154.748 605.054 153.631C605.054 152.513 605.258 151.528 605.665 150.676C606.077 149.819 606.65 149.152 607.384 148.673C608.122 148.19 608.984 147.949 609.969 147.949C610.537 147.949 611.098 148.044 611.652 148.233C612.206 148.422 612.71 148.73 613.165 149.156C613.619 149.578 613.982 150.136 614.251 150.832C614.521 151.528 614.656 152.385 614.656 153.403V154.114H606.247V152.665H612.952C612.952 152.049 612.829 151.5 612.582 151.017C612.341 150.534 611.995 150.153 611.545 149.874C611.1 149.594 610.575 149.455 609.969 149.455C609.301 149.455 608.723 149.62 608.236 149.952C607.753 150.278 607.381 150.705 607.121 151.23C606.86 151.756 606.73 152.319 606.73 152.92V153.886C606.73 154.71 606.872 155.409 607.156 155.982C607.445 156.55 607.845 156.983 608.357 157.281C608.868 157.575 609.462 157.722 610.139 157.722C610.58 157.722 610.977 157.66 611.332 157.537C611.692 157.409 612.002 157.22 612.263 156.969C612.523 156.713 612.724 156.396 612.866 156.017L614.486 156.472C614.315 157.021 614.029 157.504 613.626 157.92C613.224 158.332 612.727 158.654 612.135 158.886C611.543 159.114 610.878 159.227 610.139 159.227ZM618.882 152.438V159H617.206V148.091H618.825V149.795H618.967C619.223 149.241 619.611 148.796 620.132 148.46C620.653 148.119 621.325 147.949 622.149 147.949C622.888 147.949 623.534 148.1 624.088 148.403C624.642 148.702 625.073 149.156 625.381 149.767C625.688 150.373 625.842 151.14 625.842 152.068V159H624.166V152.182C624.166 151.325 623.944 150.657 623.499 150.179C623.054 149.696 622.443 149.455 621.666 149.455C621.131 149.455 620.653 149.571 620.232 149.803C619.815 150.035 619.486 150.373 619.244 150.818C619.003 151.263 618.882 151.803 618.882 152.438ZM639.275 148.091V149.511H633.621V148.091H639.275ZM635.269 145.477H636.945V155.875C636.945 156.348 637.014 156.704 637.151 156.94C637.293 157.172 637.473 157.329 637.691 157.409C637.913 157.485 638.148 157.523 638.394 157.523C638.578 157.523 638.73 157.513 638.848 157.494C638.967 157.471 639.061 157.452 639.132 157.438L639.473 158.943C639.36 158.986 639.201 159.028 638.998 159.071C638.794 159.118 638.536 159.142 638.223 159.142C637.75 159.142 637.286 159.04 636.831 158.837C636.382 158.633 636.007 158.323 635.709 157.906C635.416 157.49 635.269 156.964 635.269 156.33V145.477ZM643.706 152.438V159H642.03V144.455H643.706V149.795H643.848C644.104 149.232 644.488 148.785 644.999 148.453C645.515 148.117 646.202 147.949 647.059 147.949C647.802 147.949 648.453 148.098 649.012 148.396C649.57 148.69 650.004 149.142 650.311 149.753C650.624 150.359 650.78 151.131 650.78 152.068V159H649.104V152.182C649.104 151.315 648.879 150.645 648.429 150.172C647.984 149.694 647.366 149.455 646.576 149.455C646.026 149.455 645.534 149.571 645.098 149.803C644.667 150.035 644.327 150.373 644.076 150.818C643.829 151.263 643.706 151.803 643.706 152.438ZM658.42 159.227C657.369 159.227 656.463 158.995 655.7 158.531C654.943 158.062 654.358 157.409 653.946 156.571C653.539 155.728 653.335 154.748 653.335 153.631C653.335 152.513 653.539 151.528 653.946 150.676C654.358 149.819 654.931 149.152 655.665 148.673C656.403 148.19 657.265 147.949 658.25 147.949C658.818 147.949 659.379 148.044 659.933 148.233C660.487 148.422 660.991 148.73 661.446 149.156C661.901 149.578 662.263 150.136 662.533 150.832C662.803 151.528 662.938 152.385 662.938 153.403V154.114H654.528V152.665H661.233C661.233 152.049 661.11 151.5 660.864 151.017C660.622 150.534 660.277 150.153 659.827 149.874C659.382 149.594 658.856 149.455 658.25 149.455C657.582 149.455 657.005 149.62 656.517 149.952C656.034 150.278 655.662 150.705 655.402 151.23C655.142 151.756 655.011 152.319 655.011 152.92V153.886C655.011 154.71 655.153 155.409 655.438 155.982C655.726 156.55 656.126 156.983 656.638 157.281C657.149 157.575 657.743 157.722 658.42 157.722C658.861 157.722 659.259 157.66 659.614 157.537C659.973 157.409 660.284 157.22 660.544 156.969C660.804 156.713 661.006 156.396 661.148 156.017L662.767 156.472C662.597 157.021 662.31 157.504 661.908 157.92C661.505 158.332 661.008 158.654 660.416 158.886C659.824 159.114 659.159 159.227 658.42 159.227ZM675.857 148.091V149.511H670.203V148.091H675.857ZM671.851 145.477H673.527V155.875C673.527 156.348 673.596 156.704 673.733 156.94C673.875 157.172 674.055 157.329 674.273 157.409C674.495 157.485 674.73 157.523 674.976 157.523C675.161 157.523 675.312 157.513 675.43 157.494C675.549 157.471 675.643 157.452 675.714 157.438L676.055 158.943C675.942 158.986 675.783 159.028 675.58 159.071C675.376 159.118 675.118 159.142 674.805 159.142C674.332 159.142 673.868 159.04 673.413 158.837C672.964 158.633 672.589 158.323 672.291 157.906C671.998 157.49 671.851 156.964 671.851 156.33V145.477ZM678.378 159V148.091H680.054V159H678.378ZM679.23 146.273C678.903 146.273 678.622 146.161 678.385 145.939C678.153 145.716 678.037 145.449 678.037 145.136C678.037 144.824 678.153 144.556 678.385 144.334C678.622 144.111 678.903 144 679.23 144C679.557 144 679.836 144.111 680.068 144.334C680.305 144.556 680.423 144.824 680.423 145.136C680.423 145.449 680.305 145.716 680.068 145.939C679.836 146.161 679.557 146.273 679.23 146.273ZM683.124 159V148.091H684.743V149.795H684.885C685.113 149.213 685.48 148.761 685.986 148.439C686.493 148.112 687.101 147.949 687.811 147.949C688.531 147.949 689.13 148.112 689.608 148.439C690.091 148.761 690.468 149.213 690.738 149.795H690.851C691.131 149.232 691.55 148.785 692.108 148.453C692.667 148.117 693.337 147.949 694.118 147.949C695.094 147.949 695.891 148.254 696.512 148.865C697.132 149.471 697.442 150.416 697.442 151.699V159H695.766V151.699C695.766 150.894 695.546 150.319 695.105 149.973C694.665 149.627 694.147 149.455 693.55 149.455C692.783 149.455 692.189 149.687 691.767 150.151C691.346 150.61 691.135 151.192 691.135 151.898V159H689.431V151.528C689.431 150.908 689.23 150.409 688.827 150.03C688.425 149.646 687.906 149.455 687.272 149.455C686.836 149.455 686.429 149.571 686.05 149.803C685.676 150.035 685.373 150.357 685.141 150.768C684.914 151.176 684.8 151.647 684.8 152.182V159H683.124ZM705.081 159.227C704.029 159.227 703.123 158.995 702.36 158.531C701.603 158.062 701.018 157.409 700.606 156.571C700.199 155.728 699.995 154.748 699.995 153.631C699.995 152.513 700.199 151.528 700.606 150.676C701.018 149.819 701.591 149.152 702.325 148.673C703.064 148.19 703.925 147.949 704.91 147.949C705.478 147.949 706.039 148.044 706.593 148.233C707.147 148.422 707.652 148.73 708.106 149.156C708.561 149.578 708.923 150.136 709.193 150.832C709.463 151.528 709.598 152.385 709.598 153.403V154.114H701.189V152.665H707.893C707.893 152.049 707.77 151.5 707.524 151.017C707.282 150.534 706.937 150.153 706.487 149.874C706.042 149.594 705.516 149.455 704.91 149.455C704.243 149.455 703.665 149.62 703.177 149.952C702.694 150.278 702.323 150.705 702.062 151.23C701.802 151.756 701.672 152.319 701.672 152.92V153.886C701.672 154.71 701.814 155.409 702.098 155.982C702.386 156.55 702.787 156.983 703.298 157.281C703.809 157.575 704.404 157.722 705.081 157.722C705.521 157.722 705.919 157.66 706.274 157.537C706.634 157.409 706.944 157.22 707.204 156.969C707.465 156.713 707.666 156.396 707.808 156.017L709.427 156.472C709.257 157.021 708.97 157.504 708.568 157.92C708.165 158.332 707.668 158.654 707.076 158.886C706.484 159.114 705.819 159.227 705.081 159.227ZM722.204 159.227C721.181 159.227 720.301 158.986 719.562 158.503C718.824 158.02 718.255 157.355 717.858 156.507C717.46 155.66 717.261 154.691 717.261 153.602C717.261 152.494 717.465 151.517 717.872 150.669C718.284 149.817 718.857 149.152 719.591 148.673C720.329 148.19 721.191 147.949 722.176 147.949C722.943 147.949 723.634 148.091 724.25 148.375C724.865 148.659 725.369 149.057 725.762 149.568C726.155 150.08 726.399 150.676 726.494 151.358H724.818C724.69 150.861 724.406 150.42 723.966 150.037C723.53 149.649 722.943 149.455 722.204 149.455C721.551 149.455 720.978 149.625 720.485 149.966C719.998 150.302 719.617 150.778 719.342 151.393C719.072 152.004 718.937 152.722 718.937 153.545C718.937 154.388 719.07 155.122 719.335 155.747C719.605 156.372 719.984 156.857 720.471 157.203C720.964 157.549 721.541 157.722 722.204 157.722C722.64 157.722 723.035 157.646 723.39 157.494C723.745 157.343 724.046 157.125 724.292 156.841C724.538 156.557 724.714 156.216 724.818 155.818H726.494C726.399 156.462 726.165 157.042 725.791 157.558C725.422 158.07 724.931 158.477 724.321 158.78C723.715 159.078 723.009 159.227 722.204 159.227ZM733.376 159.227C732.391 159.227 731.527 158.993 730.784 158.524C730.045 158.055 729.467 157.4 729.051 156.557C728.639 155.714 728.433 154.729 728.433 153.602C728.433 152.466 728.639 151.474 729.051 150.626C729.467 149.779 730.045 149.121 730.784 148.652C731.527 148.183 732.391 147.949 733.376 147.949C734.361 147.949 735.223 148.183 735.961 148.652C736.705 149.121 737.282 149.779 737.694 150.626C738.111 151.474 738.319 152.466 738.319 153.602C738.319 154.729 738.111 155.714 737.694 156.557C737.282 157.4 736.705 158.055 735.961 158.524C735.223 158.993 734.361 159.227 733.376 159.227ZM733.376 157.722C734.124 157.722 734.74 157.53 735.223 157.146C735.706 156.763 736.063 156.259 736.295 155.634C736.527 155.009 736.643 154.331 736.643 153.602C736.643 152.873 736.527 152.194 736.295 151.564C736.063 150.934 735.706 150.425 735.223 150.037C734.74 149.649 734.124 149.455 733.376 149.455C732.628 149.455 732.012 149.649 731.529 150.037C731.047 150.425 730.689 150.934 730.457 151.564C730.225 152.194 730.109 152.873 730.109 153.602C730.109 154.331 730.225 155.009 730.457 155.634C730.689 156.259 731.047 156.763 731.529 157.146C732.012 157.53 732.628 157.722 733.376 157.722ZM740.878 159V148.091H742.497V149.795H742.639C742.866 149.213 743.233 148.761 743.74 148.439C744.247 148.112 744.855 147.949 745.565 147.949C746.285 147.949 746.884 148.112 747.362 148.439C747.845 148.761 748.222 149.213 748.491 149.795H748.605C748.884 149.232 749.304 148.785 749.862 148.453C750.421 148.117 751.091 147.949 751.872 147.949C752.848 147.949 753.645 148.254 754.266 148.865C754.886 149.471 755.196 150.416 755.196 151.699V159H753.52V151.699C753.52 150.894 753.3 150.319 752.859 149.973C752.419 149.627 751.901 149.455 751.304 149.455C750.537 149.455 749.943 149.687 749.521 150.151C749.1 150.61 748.889 151.192 748.889 151.898V159H747.185V151.528C747.185 150.908 746.983 150.409 746.581 150.03C746.179 149.646 745.66 149.455 745.026 149.455C744.59 149.455 744.183 149.571 743.804 149.803C743.43 150.035 743.127 150.357 742.895 150.768C742.668 151.176 742.554 151.647 742.554 152.182V159H740.878ZM762.835 159.227C761.783 159.227 760.877 158.995 760.114 158.531C759.357 158.062 758.772 157.409 758.36 156.571C757.953 155.728 757.749 154.748 757.749 153.631C757.749 152.513 757.953 151.528 758.36 150.676C758.772 149.819 759.345 149.152 760.079 148.673C760.817 148.19 761.679 147.949 762.664 147.949C763.232 147.949 763.793 148.044 764.347 148.233C764.901 148.422 765.406 148.73 765.86 149.156C766.315 149.578 766.677 150.136 766.947 150.832C767.217 151.528 767.352 152.385 767.352 153.403V154.114H758.942V152.665H765.647C765.647 152.049 765.524 151.5 765.278 151.017C765.036 150.534 764.691 150.153 764.241 149.874C763.796 149.594 763.27 149.455 762.664 149.455C761.996 149.455 761.419 149.62 760.931 149.952C760.448 150.278 760.076 150.705 759.816 151.23C759.556 151.756 759.425 152.319 759.425 152.92V153.886C759.425 154.71 759.567 155.409 759.852 155.982C760.14 156.55 760.54 156.983 761.052 157.281C761.563 157.575 762.157 157.722 762.835 157.722C763.275 157.722 763.673 157.66 764.028 157.537C764.388 157.409 764.698 157.22 764.958 156.969C765.219 156.713 765.42 156.396 765.562 156.017L767.181 156.472C767.011 157.021 766.724 157.504 766.322 157.92C765.919 158.332 765.422 158.654 764.83 158.886C764.238 159.114 763.573 159.227 762.835 159.227ZM777.629 150.534L776.123 150.96C776.028 150.709 775.888 150.465 775.704 150.229C775.524 149.987 775.278 149.788 774.965 149.632C774.653 149.476 774.253 149.398 773.765 149.398C773.097 149.398 772.541 149.552 772.096 149.859C771.656 150.162 771.435 150.548 771.435 151.017C771.435 151.434 771.587 151.763 771.89 152.004C772.193 152.246 772.666 152.447 773.31 152.608L774.93 153.006C775.905 153.242 776.632 153.605 777.11 154.092C777.588 154.575 777.827 155.198 777.827 155.96C777.827 156.585 777.647 157.144 777.288 157.636C776.933 158.129 776.435 158.517 775.796 158.801C775.157 159.085 774.414 159.227 773.566 159.227C772.453 159.227 771.532 158.986 770.803 158.503C770.074 158.02 769.612 157.314 769.418 156.386L771.009 155.989C771.161 156.576 771.447 157.016 771.869 157.31C772.295 157.603 772.851 157.75 773.538 157.75C774.319 157.75 774.939 157.584 775.398 157.253C775.862 156.917 776.094 156.514 776.094 156.045C776.094 155.667 775.962 155.349 775.697 155.094C775.432 154.833 775.024 154.639 774.475 154.511L772.657 154.085C771.658 153.848 770.924 153.482 770.455 152.984C769.991 152.482 769.759 151.855 769.759 151.102C769.759 150.487 769.932 149.942 770.278 149.469C770.628 148.995 771.104 148.624 771.705 148.354C772.311 148.084 772.998 147.949 773.765 147.949C774.844 147.949 775.692 148.186 776.308 148.659C776.928 149.133 777.368 149.758 777.629 150.534ZM781.572 159.114C781.222 159.114 780.921 158.988 780.67 158.737C780.419 158.486 780.294 158.186 780.294 157.835C780.294 157.485 780.419 157.184 780.67 156.933C780.921 156.682 781.222 156.557 781.572 156.557C781.922 156.557 782.223 156.682 782.474 156.933C782.725 157.184 782.85 157.485 782.85 157.835C782.85 158.067 782.791 158.28 782.673 158.474C782.559 158.669 782.405 158.825 782.211 158.943C782.022 159.057 781.809 159.114 781.572 159.114Z"
          fill="#335B7F"/>
    <rect width="1920" height="24" transform="matrix(1 0 0 -1 0 215)" fill="#3D5F82"/>
    <mask id="path-7-inside-1_433_4324" fill="white">
        <path d="M1363.06 38.2246H1403.6V201.878H1363.06V38.2246Z"/>
    </mask>
    <path d="M1363.06 38.2246H1403.6V201.878H1363.06V38.2246Z" fill="#91A4B5"/>
    <path d="M1400.6 38.2246V201.878H1406.6V38.2246H1400.6ZM1363.56 201.878V38.2246H1362.56V201.878H1363.56Z" fill="#426480"
          mask="url(#path-7-inside-1_433_4324)"/>
    <mask id="path-9-inside-2_433_4324" fill="white">
        <path d="M1338.07 60.4648L1363.17 65.252L1334.1 201.916L1309 197.129L1338.07 60.4648Z"/>
    </mask>
    <path d="M1338.07 60.4648L1363.17 65.252L1334.1 201.916L1309 197.129L1338.07 60.4648Z" fill="#8498B0"/>
    <path d="M1362.19 65.0647L1333.12 201.729L1335.08 202.103L1364.16 65.4394L1362.19 65.0647ZM1309.98 197.316L1339.05 60.6522L1337.09 60.2775L1308.02 196.941L1309.98 197.316Z"
          fill="black" mask="url(#path-9-inside-2_433_4324)"/>
    <mask id="path-11-inside-3_433_4324" fill="white">
        <path d="M1403.6 28.123H1444.14V201.878H1403.6V28.123Z"/>
    </mask>
    <path d="M1403.6 28.123H1444.14V201.878H1403.6V28.123Z" fill="#BBC7D3"/>
    <path d="M1442.14 28.123V201.878H1446.14V28.123H1442.14ZM1404.6 201.878V28.123H1402.6V201.878H1404.6Z" fill="black"
          mask="url(#path-11-inside-3_433_4324)"/>
    <mask id="path-13-inside-4_433_4324" fill="white">
        <path d="M1444.14 28.123H1484.68V201.878H1444.14V28.123Z"/>
    </mask>
    <path d="M1444.14 28.123H1484.68V201.878H1444.14V28.123Z" fill="#547692"/>
    <path d="M1483.68 28.123V201.878H1485.68V28.123H1483.68ZM1445.14 201.878V28.123H1443.14V201.878H1445.14Z" fill="#446078"
          mask="url(#path-13-inside-4_433_4324)"/>
    <mask id="path-15-inside-5_433_4324" fill="white">
        <path d="M1484.68 16H1508.16V201.878H1484.68V16Z"/>
    </mask>
    <path d="M1484.68 16H1508.16V201.878H1484.68V16Z" fill="#A6B5C2"/>
    <path d="M1507.16 16V201.878H1509.16V16H1507.16Z" fill="#7A90A5" mask="url(#path-15-inside-5_433_4324)"/>
    <mask id="path-17-inside-6_433_4324" fill="white">
        <path d="M1508.16 44.2852H1531.63V201.877H1508.16V44.2852Z"/>
    </mask>
    <path d="M1508.16 44.2852H1531.63V201.877H1508.16V44.2852Z" fill="#E6EBEF"/>
    <path d="M1530.63 44.2852V201.877H1532.63V44.2852H1530.63ZM1509.16 201.877V44.2852H1507.16V201.877H1509.16Z" fill="#577492"
          mask="url(#path-17-inside-6_433_4324)"/>
    <mask id="path-19-inside-7_433_4324" fill="white">
        <path d="M1531.63 38.2246H1555.1V201.878H1531.63V38.2246Z"/>
    </mask>
    <path d="M1531.63 38.2246H1555.1V201.878H1531.63V38.2246Z" fill="#5A7795"/>
    <path d="M1554.1 38.2246V201.878H1556.1V38.2246H1554.1ZM1532.63 201.878V38.2246H1530.63V201.878H1532.63Z" fill="#3E5B79"
          mask="url(#path-19-inside-7_433_4324)"/>
    <mask id="path-21-inside-8_433_4324" fill="white">
        <path d="M1555.1 34.1836H1578.57V201.878H1555.1V34.1836Z"/>
    </mask>
    <path d="M1555.1 34.1836H1578.57V201.878H1555.1V34.1836Z" fill="#6C85A3"/>
    <path d="M1577.57 34.1836V201.878H1579.57V34.1836H1577.57ZM1556.1 201.878V34.1836H1554.1V201.878H1556.1Z" fill="#385B7B"
          mask="url(#path-21-inside-8_433_4324)"/>
    <mask id="path-23-inside-9_433_4324" fill="white">
        <path d="M1578.57 56.4082H1612.71V201.878H1578.57V56.4082Z"/>
    </mask>
    <path d="M1578.57 56.4082H1612.71V201.878H1578.57V56.4082Z" fill="#3F6282"/>
    <path d="M1611.71 56.4082V201.878H1613.71V56.4082H1611.71ZM1579.57 201.878V56.4082H1577.57V201.878H1579.57Z" fill="#33485B"
          mask="url(#path-23-inside-9_433_4324)"/>
    <mask id="path-25-inside-10_433_4324" fill="white">
        <path d="M1612.71 44.2852H1648.99V201.877H1612.71V44.2852Z"/>
    </mask>
    <path d="M1612.71 44.2852H1648.99V201.877H1612.71V44.2852Z" fill="#B1BECE"/>
    <path d="M1647.99 44.2852V201.877H1649.99V44.2852H1647.99ZM1613.71 201.877V44.2852H1611.71V201.877H1613.71Z" fill="#6E7882"
          mask="url(#path-25-inside-10_433_4324)"/>
    <mask id="path-27-inside-11_433_4324" fill="white">
        <path d="M1648.99 44.2852H1685.26V201.877H1648.99V44.2852Z"/>
    </mask>
    <path d="M1648.99 44.2852H1685.26V201.877H1648.99V44.2852Z" fill="#F7F5FA"/>
    <path d="M1684.26 44.2852V201.877H1686.26V44.2852H1684.26ZM1649.99 201.877V44.2852H1647.99V201.877H1649.99Z" fill="#34546D"
          mask="url(#path-27-inside-11_433_4324)"/>
    <mask id="path-29-inside-12_433_4324" fill="white">
        <path d="M1685.26 34.1836H1713V201.878H1685.26V34.1836Z"/>
    </mask>
    <path d="M1685.26 34.1836H1713V201.878H1685.26V34.1836Z" fill="#4A6C88"/>
    <path d="M1712 34.1836V201.878H1714V34.1836H1712ZM1686.26 201.878V34.1836H1684.26V201.878H1686.26Z" fill="#7C9AB5"
          mask="url(#path-29-inside-12_433_4324)"/>
    <path d="M1354.35 102.948L1363.06 65.5005L1363.06 194.807L1333.19 201.878L1354.35 102.948Z" fill="#587692"/>
    <path d="M1418.73 101.424L1418.77 98.7878L1430.35 102.948L1430.31 106.118L1418.61 109.986L1418.65 107.35L1427.67 104.546L1427.67 104.455L1418.73 101.424ZM1423.31 101.316L1423.22 107.542L1421.3 107.519L1421.39 101.292L1423.31 101.316ZM1418.6 111.386L1430.23 111.529L1430.17 116.12C1430.16 116.999 1429.99 117.747 1429.67 118.364C1429.35 118.985 1428.9 119.455 1428.32 119.774C1427.75 120.096 1427.08 120.253 1426.31 120.243C1425.54 120.234 1424.87 120.059 1424.32 119.719C1423.77 119.378 1423.36 118.89 1423.07 118.254C1422.78 117.622 1422.65 116.859 1422.66 115.965L1422.7 112.891L1424.68 112.916L1424.64 115.592C1424.63 116.061 1424.69 116.452 1424.82 116.764C1424.94 117.076 1425.13 117.31 1425.39 117.464C1425.64 117.623 1425.96 117.705 1426.34 117.709C1426.73 117.714 1427.06 117.64 1427.33 117.488C1427.59 117.34 1427.8 117.11 1427.94 116.797C1428.08 116.488 1428.16 116.097 1428.16 115.624L1428.19 113.965L1418.56 113.846L1418.6 111.386ZM1423.8 117.735L1418.47 120.561L1418.51 117.846L1423.84 115.082L1423.8 117.735ZM1428.06 121.56L1430.09 121.585L1429.96 131.141L1427.93 131.116L1427.98 127.554L1418.38 127.436L1418.41 125.004L1428.02 125.122L1428.06 121.56Z"
          fill="#627387"/>
    <path d="M1659.85 96.6738L1671.48 96.8171L1671.45 98.9248L1666.53 98.8642L1666.45 104.256L1671.38 104.316L1671.35 106.43L1659.71 106.286L1659.74 104.173L1664.68 104.234L1664.76 98.8424L1659.82 98.7815L1659.85 96.6738ZM1659.68 108.488L1668.41 108.595L1668.38 110.652L1659.65 110.545L1659.68 108.488ZM1669.63 109.645C1669.64 109.319 1669.75 109.04 1669.97 108.808C1670.19 108.576 1670.46 108.462 1670.76 108.465C1671.07 108.469 1671.34 108.59 1671.55 108.827C1671.77 109.065 1671.87 109.346 1671.87 109.672C1671.86 110.002 1671.75 110.281 1671.53 110.509C1671.31 110.741 1671.04 110.855 1670.73 110.851C1670.42 110.848 1670.16 110.727 1669.95 110.49C1669.73 110.256 1669.63 109.974 1669.63 109.645ZM1665.95 119.636L1665.77 117.758C1665.96 117.708 1666.14 117.617 1666.31 117.486C1666.48 117.36 1666.62 117.187 1666.72 116.969C1666.83 116.75 1666.88 116.482 1666.88 116.164C1666.89 115.736 1666.8 115.375 1666.62 115.081C1666.44 114.791 1666.2 114.646 1665.91 114.646C1665.65 114.639 1665.44 114.729 1665.28 114.917C1665.12 115.108 1664.99 115.425 1664.88 115.866L1664.54 117.351C1664.35 118.174 1664.06 118.785 1663.67 119.181C1663.28 119.582 1662.77 119.78 1662.14 119.776C1661.59 119.766 1661.11 119.599 1660.69 119.275C1660.28 118.956 1659.96 118.514 1659.73 117.951C1659.51 117.388 1659.4 116.742 1659.41 116.015C1659.42 114.947 1659.66 114.09 1660.11 113.444C1660.57 112.798 1661.21 112.418 1662.01 112.302L1662.18 114.31C1661.78 114.396 1661.48 114.586 1661.28 114.879C1661.07 115.172 1660.97 115.555 1660.96 116.028C1660.95 116.517 1661.05 116.91 1661.25 117.208C1661.44 117.51 1661.69 117.663 1661.98 117.666C1662.23 117.669 1662.44 117.575 1662.61 117.384C1662.77 117.197 1662.9 116.903 1662.99 116.502L1663.33 115.018C1663.51 114.183 1663.81 113.567 1664.23 113.171C1664.65 112.774 1665.18 112.582 1665.82 112.594C1666.36 112.597 1666.82 112.748 1667.21 113.048C1667.61 113.352 1667.91 113.771 1668.12 114.304C1668.33 114.841 1668.43 115.457 1668.42 116.154C1668.41 117.177 1668.18 117.979 1667.73 118.561C1667.29 119.146 1666.7 119.505 1665.95 119.636ZM1668.17 125.905L1666.58 125.885L1666.65 120.869L1668.24 120.888L1668.17 125.905ZM1670.31 122.153L1670.29 124.209L1662.09 124.108C1661.82 124.105 1661.6 124.144 1661.46 124.225C1661.31 124.311 1661.21 124.423 1661.16 124.563C1661.1 124.702 1661.07 124.857 1661.07 125.028C1661.07 125.156 1661.08 125.274 1661.09 125.38C1661.11 125.49 1661.13 125.574 1661.14 125.631L1659.53 125.958C1659.49 125.847 1659.45 125.69 1659.41 125.484C1659.37 125.283 1659.34 125.037 1659.34 124.745C1659.33 124.23 1659.42 123.767 1659.59 123.356C1659.77 122.945 1660.05 122.621 1660.41 122.383C1660.78 122.149 1661.24 122.037 1661.78 122.048L1670.31 122.153ZM1659.2 131.228C1659.21 130.376 1659.41 129.64 1659.79 129.019C1660.18 128.399 1660.71 127.921 1661.39 127.584C1662.07 127.252 1662.86 127.091 1663.76 127.102C1664.66 127.113 1665.45 127.293 1666.12 127.643C1666.79 127.996 1667.31 128.487 1667.68 129.116C1668.05 129.746 1668.22 130.487 1668.21 131.339C1668.2 132.191 1668 132.927 1667.62 133.548C1667.23 134.168 1666.7 134.645 1666.02 134.977C1665.34 135.313 1664.54 135.476 1663.64 135.465C1662.74 135.454 1661.96 135.272 1661.29 134.919C1660.62 134.57 1660.1 134.08 1659.73 133.451C1659.37 132.821 1659.19 132.08 1659.2 131.228ZM1660.85 131.26C1660.84 131.722 1660.96 132.11 1661.21 132.423C1661.47 132.737 1661.81 132.972 1662.24 133.129C1662.67 133.29 1663.15 133.373 1663.68 133.38C1664.21 133.387 1664.69 133.315 1665.13 133.165C1665.57 133.019 1665.92 132.792 1666.18 132.485C1666.44 132.177 1666.57 131.792 1666.58 131.33C1666.59 130.857 1666.46 130.461 1666.21 130.144C1665.96 129.83 1665.61 129.593 1665.18 129.432C1664.75 129.275 1664.27 129.194 1663.73 129.187C1663.2 129.181 1662.72 129.25 1662.29 129.397C1661.85 129.547 1661.51 129.775 1661.24 130.083C1660.99 130.394 1660.85 130.786 1660.85 131.26ZM1659.29 137.157L1668.02 137.265L1667.99 139.259L1666.53 139.241L1666.53 139.332C1667.03 139.497 1667.42 139.775 1667.69 140.164C1667.96 140.558 1668.09 141.004 1668.08 141.504C1668.08 141.618 1668.07 141.745 1668.06 141.885C1668.05 142.029 1668.04 142.148 1668.02 142.242L1666.12 142.219C1666.16 142.132 1666.18 141.994 1666.21 141.805C1666.24 141.62 1666.25 141.44 1666.26 141.266C1666.26 140.891 1666.18 140.553 1666.03 140.252C1665.87 139.954 1665.65 139.719 1665.37 139.545C1665.09 139.371 1664.76 139.282 1664.39 139.277L1659.26 139.214L1659.29 137.157ZM1655.91 145.004C1655.91 144.724 1655.94 144.464 1655.99 144.226C1656.03 143.992 1656.08 143.805 1656.14 143.666L1657.74 144.163C1657.65 144.461 1657.6 144.727 1657.6 144.962C1657.6 145.197 1657.67 145.404 1657.82 145.584C1657.95 145.768 1658.19 145.924 1658.51 146.053L1658.98 146.235L1667.93 143.18L1667.9 145.362L1661.29 147.292L1661.29 147.383L1667.85 149.481L1667.82 151.668L1658.08 148.054C1657.62 147.885 1657.23 147.664 1656.9 147.391C1656.57 147.118 1656.33 146.786 1656.16 146.393C1655.98 146.005 1655.9 145.542 1655.91 145.004Z"
          fill="#4C687D"/>
    <path d="M1457.41 70.7969L1469.04 70.9402L1468.98 75.3035C1468.97 76.1973 1468.79 76.9452 1468.45 77.5471C1468.11 78.1528 1467.65 78.6073 1467.06 78.9107C1466.47 79.2179 1465.81 79.367 1465.07 79.3579C1464.33 79.3487 1463.67 79.1834 1463.09 78.8619C1462.52 78.5404 1462.07 78.0708 1461.74 77.4531C1461.42 76.8354 1461.27 76.0778 1461.28 75.1802L1461.32 72.2884L1463.05 72.3097L1463.02 74.9174C1463.01 75.4401 1463.09 75.8692 1463.27 76.2048C1463.45 76.5403 1463.7 76.7896 1464.01 76.9526C1464.33 77.1194 1464.69 77.2053 1465.1 77.2104C1465.52 77.2155 1465.88 77.1385 1466.2 76.9795C1466.51 76.8243 1466.76 76.5792 1466.94 76.2443C1467.12 75.9132 1467.22 75.4844 1467.23 74.9579L1467.25 73.0263L1457.38 72.9047L1457.41 70.7969ZM1462.35 83.1215L1457.24 83.0586L1457.27 81.0019L1468.9 81.1452L1468.88 83.1564L1464.48 83.1023L1464.48 83.2046C1464.97 83.4152 1465.36 83.7362 1465.63 84.1677C1465.92 84.603 1466.05 85.154 1466.04 85.8206C1466.03 86.4266 1465.9 86.9534 1465.64 87.401C1465.38 87.8486 1465 88.1925 1464.51 88.4326C1464.02 88.6766 1463.42 88.7942 1462.72 88.7855L1457.16 88.7171L1457.19 86.6605L1462.43 86.725C1463.01 86.7322 1463.47 86.5864 1463.8 86.2874C1464.14 85.9922 1464.31 85.5738 1464.31 85.0322C1464.32 84.6686 1464.24 84.3419 1464.09 84.0521C1463.94 83.7661 1463.72 83.5399 1463.42 83.3734C1463.13 83.2107 1462.77 83.1267 1462.35 83.1215ZM1457.13 90.8135L1465.86 90.921L1465.83 92.9776L1457.1 92.8701L1457.13 90.8135ZM1467.08 91.9702C1467.09 91.6445 1467.2 91.3656 1467.42 91.1334C1467.64 90.9013 1467.91 90.7871 1468.21 90.7909C1468.52 90.7947 1468.79 90.9154 1469 91.1528C1469.21 91.3904 1469.32 91.672 1469.32 91.9977C1469.31 92.3272 1469.2 92.6062 1468.98 92.8345C1468.76 93.0667 1468.49 93.1808 1468.18 93.177C1467.87 93.1732 1467.61 93.0526 1467.4 92.8151C1467.18 92.5814 1467.08 92.2997 1467.08 91.9702ZM1468.68 97.1849L1457.05 97.0416L1457.08 94.985L1468.71 95.1283L1468.68 97.1849ZM1456.8 102.961C1456.81 102.109 1457 101.372 1457.39 100.752C1457.77 100.132 1458.3 99.6534 1458.98 99.317C1459.66 98.9845 1460.45 98.8237 1461.35 98.8348C1462.25 98.8459 1463.04 99.0261 1463.71 99.3753C1464.39 99.7283 1464.91 100.22 1465.27 100.849C1465.64 101.479 1465.82 102.22 1465.81 103.072C1465.79 103.924 1465.6 104.66 1465.21 105.281C1464.83 105.901 1464.3 106.377 1463.61 106.71C1462.93 107.046 1462.14 107.209 1461.24 107.198C1460.34 107.187 1459.55 107.005 1458.88 106.652C1458.21 106.302 1457.69 105.813 1457.33 105.183C1456.96 104.554 1456.78 103.813 1456.8 102.961ZM1458.44 102.992C1458.44 103.455 1458.56 103.842 1458.81 104.156C1459.06 104.47 1459.4 104.705 1459.83 104.862C1460.26 105.023 1460.74 105.106 1461.27 105.113C1461.81 105.119 1462.29 105.048 1462.72 104.898C1463.16 104.751 1463.51 104.525 1463.77 104.217C1464.03 103.91 1464.17 103.525 1464.18 103.063C1464.18 102.59 1464.06 102.194 1463.81 101.877C1463.55 101.563 1463.21 101.326 1462.77 101.165C1462.35 101.008 1461.86 100.927 1461.33 100.92C1460.8 100.913 1460.32 100.983 1459.88 101.129C1459.45 101.279 1459.1 101.508 1458.84 101.815C1458.58 102.127 1458.45 102.519 1458.44 102.992ZM1463.21 115.866L1463.03 113.989C1463.22 113.938 1463.4 113.847 1463.57 113.717C1463.74 113.59 1463.87 113.418 1463.98 113.199C1464.08 112.981 1464.14 112.713 1464.14 112.394C1464.15 111.966 1464.06 111.605 1463.88 111.311C1463.7 111.021 1463.46 110.876 1463.16 110.877C1462.91 110.87 1462.7 110.96 1462.54 111.147C1462.38 111.338 1462.24 111.655 1462.14 112.097L1461.8 113.581C1461.61 114.405 1461.32 115.015 1460.93 115.412C1460.53 115.812 1460.03 116.011 1459.4 116.007C1458.85 115.996 1458.37 115.829 1457.95 115.506C1457.54 115.186 1457.22 114.745 1456.99 114.181C1456.77 113.618 1456.66 112.973 1456.67 112.245C1456.68 111.177 1456.92 110.32 1457.37 109.674C1457.83 109.029 1458.47 108.648 1459.27 108.533L1459.44 110.541C1459.04 110.627 1458.74 110.816 1458.54 111.109C1458.33 111.402 1458.23 111.785 1458.22 112.259C1458.21 112.747 1458.31 113.141 1458.5 113.439C1458.7 113.74 1458.95 113.893 1459.24 113.897C1459.49 113.9 1459.7 113.806 1459.87 113.614C1460.03 113.427 1460.16 113.133 1460.25 112.733L1460.59 111.248C1460.77 110.413 1461.07 109.798 1461.49 109.401C1461.91 109.005 1462.44 108.813 1463.08 108.824C1463.62 108.827 1464.08 108.979 1464.47 109.279C1464.86 109.583 1465.17 110.001 1465.37 110.534C1465.59 111.071 1465.69 111.688 1465.68 112.385C1465.66 113.407 1465.44 114.21 1464.99 114.791C1464.55 115.377 1463.95 115.735 1463.21 115.866ZM1456.54 121.475C1456.55 120.623 1456.75 119.886 1457.13 119.266C1457.52 118.646 1458.05 118.167 1458.73 117.831C1459.41 117.498 1460.2 117.338 1461.1 117.349C1462 117.36 1462.79 117.54 1463.46 117.889C1464.13 118.242 1464.65 118.733 1465.02 119.363C1465.39 119.993 1465.56 120.733 1465.55 121.586C1465.54 122.438 1465.34 123.174 1464.96 123.794C1464.58 124.415 1464.04 124.891 1463.36 125.224C1462.68 125.56 1461.88 125.723 1460.98 125.712C1460.08 125.7 1459.3 125.518 1458.63 125.165C1457.96 124.816 1457.44 124.327 1457.07 123.697C1456.71 123.068 1456.53 122.327 1456.54 121.475ZM1458.19 121.506C1458.18 121.968 1458.3 122.356 1458.55 122.67C1458.81 122.984 1459.15 123.219 1459.58 123.376C1460.01 123.536 1460.49 123.62 1461.02 123.627C1461.55 123.633 1462.04 123.561 1462.47 123.411C1462.91 123.265 1463.26 123.039 1463.52 122.731C1463.78 122.424 1463.91 122.039 1463.92 121.577C1463.93 121.104 1463.8 120.708 1463.55 120.39C1463.3 120.077 1462.95 119.84 1462.52 119.679C1462.09 119.522 1461.61 119.44 1461.07 119.434C1460.54 119.427 1460.06 119.497 1459.63 119.643C1459.19 119.793 1458.85 120.022 1458.59 120.329C1458.33 120.641 1458.19 121.033 1458.19 121.506ZM1453.36 127.363L1465.36 127.511L1465.33 129.534L1463.89 129.516L1463.88 129.635C1464.09 129.744 1464.32 129.896 1464.55 130.092C1464.79 130.289 1465 130.553 1465.16 130.884C1465.33 131.216 1465.41 131.637 1465.41 132.149C1465.4 132.823 1465.22 133.429 1464.86 133.966C1464.52 134.507 1464 134.933 1463.33 135.243C1462.66 135.556 1461.84 135.707 1460.87 135.695C1459.91 135.683 1459.1 135.516 1458.43 135.194C1457.77 134.871 1457.26 134.437 1456.92 133.891C1456.57 133.345 1456.4 132.729 1456.41 132.044C1456.42 131.544 1456.51 131.13 1456.68 130.802C1456.85 130.475 1457.06 130.212 1457.29 130.014C1457.53 129.82 1457.76 129.67 1457.98 129.563L1457.98 129.477L1453.33 129.42L1453.36 127.363ZM1460.97 129.474C1460.4 129.467 1459.91 129.541 1459.48 129.695C1459.05 129.852 1458.72 130.081 1458.48 130.381C1458.24 130.685 1458.11 131.055 1458.11 131.49C1458.1 131.945 1458.22 132.327 1458.46 132.637C1458.7 132.947 1459.03 133.182 1459.45 133.342C1459.88 133.507 1460.36 133.592 1460.91 133.599C1461.45 133.606 1461.93 133.534 1462.36 133.384C1462.78 133.234 1463.11 133.007 1463.35 132.703C1463.6 132.399 1463.72 132.018 1463.73 131.56C1463.73 131.12 1463.62 130.746 1463.4 130.436C1463.17 130.127 1462.85 129.89 1462.43 129.725C1462.02 129.565 1461.53 129.481 1460.97 129.474ZM1461.58 139.522L1456.46 139.459L1456.49 137.403L1468.13 137.546L1468.1 139.557L1463.71 139.503L1463.71 139.606C1464.2 139.816 1464.58 140.137 1464.86 140.569C1465.14 141.004 1465.28 141.555 1465.27 142.222C1465.26 142.828 1465.13 143.354 1464.87 143.802C1464.61 144.249 1464.23 144.593 1463.74 144.834C1463.25 145.078 1462.65 145.195 1461.94 145.186L1456.39 145.118L1456.41 143.061L1461.65 143.126C1462.24 143.133 1462.7 142.987 1463.03 142.688C1463.36 142.393 1463.53 141.975 1463.54 141.433C1463.55 141.07 1463.47 140.743 1463.31 140.453C1463.16 140.167 1462.94 139.941 1462.65 139.774C1462.35 139.612 1462 139.528 1461.58 139.522ZM1453.07 148.14C1453.08 147.86 1453.1 147.601 1453.15 147.362C1453.2 147.128 1453.25 146.941 1453.31 146.802L1454.9 147.299C1454.81 147.597 1454.77 147.863 1454.77 148.098C1454.77 148.333 1454.84 148.541 1454.98 148.72C1455.12 148.904 1455.35 149.06 1455.68 149.189L1456.15 149.371L1465.1 146.316L1465.07 148.498L1458.45 150.428L1458.45 150.519L1465.01 152.617L1464.98 154.804L1455.25 151.19C1454.79 151.021 1454.39 150.8 1454.07 150.527C1453.74 150.254 1453.49 149.922 1453.32 149.529C1453.15 149.141 1453.06 148.678 1453.07 148.14Z"
          fill="#DCDFF0"/>
    <ellipse cx="1496.69" cy="33.1982" rx="7.95277" ry="4.4589" fill="#C8D1D7"/>
    <rect width="15.0866" height="0.975294" transform="matrix(0.961749 0.273933 -0.303277 0.952902 1338.87 76.4414)" fill="white"/>
    <rect width="14.8908" height="1.01128" transform="matrix(0.961749 0.273933 -0.303277 0.952902 1340.09 72.5703)" fill="white"/>
    <rect width="14.8908" height="1.01128" transform="matrix(0.961749 0.273933 -0.303277 0.952902 1341.33 68.6992)" fill="white"/>
    <path d="M1677.61 31.2881L1685.96 34.228V44.0278L1676.42 34.228L1677.61 31.2881Z" fill="#3B5364"/>
    <rect x="502" y="68" width="4" height="96" fill="#335B7F"/>
</svg>
